G75*
G70*
%OFA0B0*%
%FSLAX24Y24*%
%IPPOS*%
%LPD*%
%AMOC8*
5,1,8,0,0,1.08239X$1,22.5*
%
%ADD10C,0.0060*%
%ADD11C,0.0040*%
%ADD12C,0.0050*%
%ADD13C,0.0080*%
%ADD14C,0.0100*%
%ADD15C,0.0200*%
%ADD16R,0.0200X0.2300*%
%ADD17R,0.0900X0.0200*%
%ADD18R,0.0700X0.0200*%
%ADD19R,0.0500X0.0200*%
%ADD20R,0.0300X0.0200*%
%ADD21R,0.0100X0.0100*%
%ADD22R,0.6000X0.6000*%
%ADD23R,0.3854X0.3004*%
D10*
X002973Y001093D02*
X002093Y003733D01*
X002093Y007683D01*
X002193Y007783D01*
X003093Y007783D01*
X003893Y007783D01*
X003893Y007733D01*
X005093Y007733D01*
X005593Y007733D01*
X006043Y007733D01*
X005593Y007733D02*
X005593Y005933D01*
X006043Y005933D01*
X007543Y005933D01*
X011193Y005933D01*
X011193Y007733D01*
X011693Y007733D01*
X011693Y006183D01*
X012693Y005533D01*
X013693Y006183D01*
X013693Y007783D01*
X012893Y007783D01*
X012893Y007733D01*
X011693Y007733D01*
X011193Y007733D02*
X010743Y007733D01*
X010043Y007733D02*
X009743Y007733D01*
X009043Y007733D02*
X008743Y007733D01*
X008043Y007733D02*
X007743Y007733D01*
X007043Y007733D02*
X006743Y007733D01*
X006850Y009063D02*
X006850Y009490D01*
X006636Y009704D01*
X006423Y009490D01*
X006423Y009063D01*
X006423Y009384D02*
X006850Y009384D01*
X007067Y009490D02*
X007067Y009063D01*
X007067Y009277D02*
X007281Y009490D01*
X007387Y009490D01*
X007604Y009384D02*
X007711Y009490D01*
X007924Y009490D01*
X008031Y009384D01*
X008031Y009277D01*
X007604Y009277D01*
X007604Y009170D02*
X007604Y009384D01*
X007604Y009170D02*
X007711Y009063D01*
X007924Y009063D01*
X008249Y009063D02*
X008249Y009490D01*
X008569Y009490D01*
X008676Y009384D01*
X008676Y009063D01*
X008893Y009170D02*
X009000Y009277D01*
X009320Y009277D01*
X009320Y009384D02*
X009320Y009063D01*
X009000Y009063D01*
X008893Y009170D01*
X009000Y009490D02*
X009214Y009490D01*
X009320Y009384D01*
X009538Y009384D02*
X009645Y009490D01*
X009965Y009490D01*
X009858Y009277D02*
X009645Y009277D01*
X009538Y009384D01*
X009538Y009063D02*
X009858Y009063D01*
X009965Y009170D01*
X009858Y009277D01*
X010827Y009490D02*
X011040Y009704D01*
X011040Y009063D01*
X010827Y009063D02*
X011254Y009063D01*
X011471Y009170D02*
X011578Y009063D01*
X011792Y009063D01*
X011899Y009170D01*
X011899Y009277D01*
X011792Y009384D01*
X011685Y009384D01*
X011792Y009384D02*
X011899Y009490D01*
X011899Y009597D01*
X011792Y009704D01*
X011578Y009704D01*
X011471Y009597D01*
X012116Y009384D02*
X012543Y009384D01*
X012761Y009490D02*
X012974Y009704D01*
X012974Y009063D01*
X012761Y009063D02*
X013188Y009063D01*
X013405Y009170D02*
X013512Y009063D01*
X013725Y009063D01*
X013832Y009170D01*
X013832Y009277D01*
X013725Y009384D01*
X013405Y009384D01*
X013405Y009170D01*
X013405Y009384D02*
X013619Y009597D01*
X013832Y009704D01*
X013693Y007783D02*
X014593Y007783D01*
X014693Y007683D01*
X014693Y003733D01*
X013813Y001093D01*
X013811Y001093D02*
X013801Y001066D01*
X013787Y001040D01*
X013770Y001017D01*
X013750Y000996D01*
X013728Y000977D01*
X013703Y000962D01*
X013677Y000949D01*
X013649Y000940D01*
X013621Y000935D01*
X013592Y000933D01*
X013593Y000933D02*
X011893Y000933D01*
X011653Y001113D02*
X011650Y001123D01*
X011653Y001113D02*
X011403Y002073D01*
X011411Y002049D02*
X011404Y002080D01*
X011395Y002111D01*
X011381Y002141D01*
X011364Y002168D01*
X011344Y002193D01*
X011321Y002216D01*
X011295Y002236D01*
X011268Y002253D01*
X011238Y002266D01*
X011207Y002275D01*
X011175Y002281D01*
X011143Y002283D01*
X009243Y002283D01*
X007543Y002283D01*
X006043Y002283D01*
X006043Y005133D01*
X006043Y005933D01*
X006043Y005133D02*
X006593Y005133D01*
X006593Y004833D01*
X007193Y004833D01*
X007193Y005133D01*
X007543Y005133D01*
X007543Y005233D01*
X007543Y005933D01*
X007543Y005233D02*
X009243Y005233D01*
X009243Y004833D01*
X007543Y004833D01*
X007543Y005133D01*
X007543Y004833D02*
X007543Y002283D01*
X007293Y002283D02*
X007293Y002683D01*
X006493Y002683D01*
X006493Y002283D01*
X006043Y002283D02*
X005643Y002283D01*
X005611Y002281D01*
X005579Y002275D01*
X005548Y002266D01*
X005518Y002253D01*
X005491Y002236D01*
X005465Y002216D01*
X005442Y002193D01*
X005422Y002168D01*
X005405Y002141D01*
X005391Y002111D01*
X005382Y002080D01*
X005375Y002049D01*
X005383Y002073D02*
X005133Y001113D01*
X005136Y001123D01*
X005133Y001113D02*
X005123Y001085D01*
X005110Y001059D01*
X005094Y001035D01*
X005076Y001012D01*
X005054Y000992D01*
X005031Y000975D01*
X005006Y000960D01*
X004979Y000948D01*
X004951Y000940D01*
X004922Y000935D01*
X004893Y000933D01*
X003193Y000933D01*
X003164Y000935D01*
X003136Y000940D01*
X003108Y000949D01*
X003082Y000962D01*
X003057Y000977D01*
X003035Y000996D01*
X003015Y001017D01*
X002998Y001040D01*
X002984Y001066D01*
X002974Y001093D01*
X003293Y001183D02*
X004793Y001183D01*
X004793Y002283D01*
X003293Y002283D01*
X003293Y001183D01*
X003468Y001463D02*
X003828Y001463D01*
X003648Y001463D02*
X003648Y002004D01*
X003468Y001824D01*
X004020Y001914D02*
X004110Y002004D01*
X004290Y002004D01*
X004380Y001914D01*
X004020Y001553D01*
X004110Y001463D01*
X004290Y001463D01*
X004380Y001553D01*
X004380Y001914D01*
X004020Y001914D02*
X004020Y001553D01*
X003043Y003733D02*
X003045Y003780D01*
X003051Y003826D01*
X003061Y003872D01*
X003074Y003916D01*
X003092Y003960D01*
X003113Y004001D01*
X003137Y004041D01*
X003165Y004079D01*
X003196Y004114D01*
X003230Y004146D01*
X003266Y004175D01*
X003305Y004201D01*
X003345Y004224D01*
X003388Y004243D01*
X003432Y004259D01*
X003477Y004271D01*
X003523Y004279D01*
X003570Y004283D01*
X003616Y004283D01*
X003663Y004279D01*
X003709Y004271D01*
X003754Y004259D01*
X003798Y004243D01*
X003841Y004224D01*
X003881Y004201D01*
X003920Y004175D01*
X003956Y004146D01*
X003990Y004114D01*
X004021Y004079D01*
X004049Y004041D01*
X004073Y004001D01*
X004094Y003960D01*
X004112Y003916D01*
X004125Y003872D01*
X004135Y003826D01*
X004141Y003780D01*
X004143Y003733D01*
X004141Y003686D01*
X004135Y003640D01*
X004125Y003594D01*
X004112Y003550D01*
X004094Y003506D01*
X004073Y003465D01*
X004049Y003425D01*
X004021Y003387D01*
X003990Y003352D01*
X003956Y003320D01*
X003920Y003291D01*
X003881Y003265D01*
X003841Y003242D01*
X003798Y003223D01*
X003754Y003207D01*
X003709Y003195D01*
X003663Y003187D01*
X003616Y003183D01*
X003570Y003183D01*
X003523Y003187D01*
X003477Y003195D01*
X003432Y003207D01*
X003388Y003223D01*
X003345Y003242D01*
X003305Y003265D01*
X003266Y003291D01*
X003230Y003320D01*
X003196Y003352D01*
X003165Y003387D01*
X003137Y003425D01*
X003113Y003465D01*
X003092Y003506D01*
X003074Y003550D01*
X003061Y003594D01*
X003051Y003640D01*
X003045Y003686D01*
X003043Y003733D01*
X004093Y005533D02*
X003093Y006183D01*
X003093Y007783D01*
X003573Y006823D02*
X003575Y006868D01*
X003581Y006913D01*
X003591Y006958D01*
X003604Y007001D01*
X003622Y007043D01*
X003643Y007083D01*
X003667Y007121D01*
X003695Y007157D01*
X003725Y007191D01*
X003759Y007221D01*
X003795Y007249D01*
X003833Y007273D01*
X003873Y007294D01*
X003915Y007312D01*
X003958Y007325D01*
X004003Y007335D01*
X004048Y007341D01*
X004093Y007343D01*
X004138Y007341D01*
X004183Y007335D01*
X004228Y007325D01*
X004271Y007312D01*
X004313Y007294D01*
X004353Y007273D01*
X004391Y007249D01*
X004427Y007221D01*
X004461Y007191D01*
X004491Y007157D01*
X004519Y007121D01*
X004543Y007083D01*
X004564Y007043D01*
X004582Y007001D01*
X004595Y006958D01*
X004605Y006913D01*
X004611Y006868D01*
X004613Y006823D01*
X004611Y006778D01*
X004605Y006733D01*
X004595Y006688D01*
X004582Y006645D01*
X004564Y006603D01*
X004543Y006563D01*
X004519Y006525D01*
X004491Y006489D01*
X004461Y006455D01*
X004427Y006425D01*
X004391Y006397D01*
X004353Y006373D01*
X004313Y006352D01*
X004271Y006334D01*
X004228Y006321D01*
X004183Y006311D01*
X004138Y006305D01*
X004093Y006303D01*
X004048Y006305D01*
X004003Y006311D01*
X003958Y006321D01*
X003915Y006334D01*
X003873Y006352D01*
X003833Y006373D01*
X003795Y006397D01*
X003759Y006425D01*
X003725Y006455D01*
X003695Y006489D01*
X003667Y006525D01*
X003643Y006563D01*
X003622Y006603D01*
X003604Y006645D01*
X003591Y006688D01*
X003581Y006733D01*
X003575Y006778D01*
X003573Y006823D01*
X004093Y005533D02*
X005093Y006183D01*
X005093Y007733D01*
X006593Y004833D02*
X006593Y004233D01*
X006595Y004199D01*
X006601Y004166D01*
X006610Y004134D01*
X006623Y004103D01*
X006639Y004073D01*
X006658Y004046D01*
X006681Y004021D01*
X006706Y003998D01*
X006733Y003979D01*
X006763Y003963D01*
X006794Y003950D01*
X006826Y003941D01*
X006859Y003935D01*
X006893Y003933D01*
X006927Y003935D01*
X006960Y003941D01*
X006992Y003950D01*
X007023Y003963D01*
X007053Y003979D01*
X007080Y003998D01*
X007105Y004021D01*
X007128Y004046D01*
X007147Y004073D01*
X007163Y004103D01*
X007176Y004134D01*
X007185Y004166D01*
X007191Y004199D01*
X007193Y004233D01*
X007193Y004833D01*
X009243Y004833D02*
X009243Y002283D01*
X011653Y001113D02*
X011663Y001085D01*
X011676Y001059D01*
X011692Y001035D01*
X011710Y001012D01*
X011732Y000992D01*
X011755Y000975D01*
X011780Y000960D01*
X011807Y000948D01*
X011835Y000940D01*
X011864Y000935D01*
X011893Y000933D01*
X012643Y003733D02*
X012645Y003780D01*
X012651Y003826D01*
X012661Y003872D01*
X012674Y003916D01*
X012692Y003960D01*
X012713Y004001D01*
X012737Y004041D01*
X012765Y004079D01*
X012796Y004114D01*
X012830Y004146D01*
X012866Y004175D01*
X012905Y004201D01*
X012945Y004224D01*
X012988Y004243D01*
X013032Y004259D01*
X013077Y004271D01*
X013123Y004279D01*
X013170Y004283D01*
X013216Y004283D01*
X013263Y004279D01*
X013309Y004271D01*
X013354Y004259D01*
X013398Y004243D01*
X013441Y004224D01*
X013481Y004201D01*
X013520Y004175D01*
X013556Y004146D01*
X013590Y004114D01*
X013621Y004079D01*
X013649Y004041D01*
X013673Y004001D01*
X013694Y003960D01*
X013712Y003916D01*
X013725Y003872D01*
X013735Y003826D01*
X013741Y003780D01*
X013743Y003733D01*
X013741Y003686D01*
X013735Y003640D01*
X013725Y003594D01*
X013712Y003550D01*
X013694Y003506D01*
X013673Y003465D01*
X013649Y003425D01*
X013621Y003387D01*
X013590Y003352D01*
X013556Y003320D01*
X013520Y003291D01*
X013481Y003265D01*
X013441Y003242D01*
X013398Y003223D01*
X013354Y003207D01*
X013309Y003195D01*
X013263Y003187D01*
X013216Y003183D01*
X013170Y003183D01*
X013123Y003187D01*
X013077Y003195D01*
X013032Y003207D01*
X012988Y003223D01*
X012945Y003242D01*
X012905Y003265D01*
X012866Y003291D01*
X012830Y003320D01*
X012796Y003352D01*
X012765Y003387D01*
X012737Y003425D01*
X012713Y003465D01*
X012692Y003506D01*
X012674Y003550D01*
X012661Y003594D01*
X012651Y003640D01*
X012645Y003686D01*
X012643Y003733D01*
X012173Y006823D02*
X012175Y006868D01*
X012181Y006913D01*
X012191Y006958D01*
X012204Y007001D01*
X012222Y007043D01*
X012243Y007083D01*
X012267Y007121D01*
X012295Y007157D01*
X012325Y007191D01*
X012359Y007221D01*
X012395Y007249D01*
X012433Y007273D01*
X012473Y007294D01*
X012515Y007312D01*
X012558Y007325D01*
X012603Y007335D01*
X012648Y007341D01*
X012693Y007343D01*
X012738Y007341D01*
X012783Y007335D01*
X012828Y007325D01*
X012871Y007312D01*
X012913Y007294D01*
X012953Y007273D01*
X012991Y007249D01*
X013027Y007221D01*
X013061Y007191D01*
X013091Y007157D01*
X013119Y007121D01*
X013143Y007083D01*
X013164Y007043D01*
X013182Y007001D01*
X013195Y006958D01*
X013205Y006913D01*
X013211Y006868D01*
X013213Y006823D01*
X013211Y006778D01*
X013205Y006733D01*
X013195Y006688D01*
X013182Y006645D01*
X013164Y006603D01*
X013143Y006563D01*
X013119Y006525D01*
X013091Y006489D01*
X013061Y006455D01*
X013027Y006425D01*
X012991Y006397D01*
X012953Y006373D01*
X012913Y006352D01*
X012871Y006334D01*
X012828Y006321D01*
X012783Y006311D01*
X012738Y006305D01*
X012693Y006303D01*
X012648Y006305D01*
X012603Y006311D01*
X012558Y006321D01*
X012515Y006334D01*
X012473Y006352D01*
X012433Y006373D01*
X012395Y006397D01*
X012359Y006425D01*
X012325Y006455D01*
X012295Y006489D01*
X012267Y006525D01*
X012243Y006563D01*
X012222Y006603D01*
X012204Y006645D01*
X012191Y006688D01*
X012181Y006733D01*
X012175Y006778D01*
X012173Y006823D01*
X022603Y007683D02*
X022603Y003733D01*
X023483Y001093D01*
X023484Y001093D02*
X023494Y001066D01*
X023508Y001040D01*
X023525Y001017D01*
X023545Y000996D01*
X023567Y000977D01*
X023592Y000962D01*
X023618Y000949D01*
X023646Y000940D01*
X023674Y000935D01*
X023703Y000933D01*
X025403Y000933D01*
X025643Y001113D02*
X025646Y001123D01*
X025643Y001113D02*
X025893Y002073D01*
X025885Y002049D02*
X025892Y002080D01*
X025901Y002111D01*
X025915Y002141D01*
X025932Y002168D01*
X025952Y002193D01*
X025975Y002216D01*
X026001Y002236D01*
X026028Y002253D01*
X026058Y002266D01*
X026089Y002275D01*
X026121Y002281D01*
X026153Y002283D01*
X026553Y002283D01*
X026553Y005133D01*
X026553Y005933D01*
X026103Y005933D01*
X026103Y007733D01*
X025603Y007733D01*
X025603Y006183D01*
X024603Y005533D01*
X023603Y006183D01*
X023603Y007783D01*
X024403Y007783D01*
X024403Y007733D01*
X025603Y007733D01*
X026103Y007733D02*
X026553Y007733D01*
X027253Y007733D02*
X027553Y007733D01*
X028253Y007733D02*
X028553Y007733D01*
X029253Y007733D02*
X029553Y007733D01*
X030253Y007733D02*
X030553Y007733D01*
X031253Y007733D02*
X031703Y007733D01*
X032203Y007733D01*
X032203Y006183D01*
X033203Y005533D01*
X034203Y006183D01*
X034203Y007783D01*
X033403Y007783D01*
X033403Y007733D01*
X032203Y007733D01*
X031703Y007733D02*
X031703Y005933D01*
X028053Y005933D01*
X026553Y005933D01*
X026553Y005133D02*
X027103Y005133D01*
X027103Y004833D01*
X027703Y004833D01*
X027703Y005133D01*
X028053Y005133D01*
X028053Y005233D01*
X028053Y005933D01*
X028053Y005233D02*
X029753Y005233D01*
X029753Y004833D01*
X028053Y004833D01*
X028053Y005133D01*
X028053Y004833D02*
X028053Y002283D01*
X026553Y002283D01*
X027003Y002283D02*
X027003Y002683D01*
X027803Y002683D01*
X027803Y002283D01*
X028053Y002283D02*
X029753Y002283D01*
X029753Y004833D01*
X027703Y004833D02*
X027703Y004233D01*
X027701Y004199D01*
X027695Y004166D01*
X027686Y004134D01*
X027673Y004103D01*
X027657Y004073D01*
X027638Y004046D01*
X027615Y004021D01*
X027590Y003998D01*
X027563Y003979D01*
X027533Y003963D01*
X027502Y003950D01*
X027470Y003941D01*
X027437Y003935D01*
X027403Y003933D01*
X027369Y003935D01*
X027336Y003941D01*
X027304Y003950D01*
X027273Y003963D01*
X027243Y003979D01*
X027216Y003998D01*
X027191Y004021D01*
X027168Y004046D01*
X027149Y004073D01*
X027133Y004103D01*
X027120Y004134D01*
X027111Y004166D01*
X027105Y004199D01*
X027103Y004233D01*
X027103Y004833D01*
X025303Y002283D02*
X023803Y002283D01*
X023803Y001183D01*
X025303Y001183D01*
X025303Y002283D01*
X024890Y001914D02*
X024800Y002004D01*
X024620Y002004D01*
X024530Y001914D01*
X024530Y001553D01*
X024890Y001914D01*
X024890Y001553D01*
X024800Y001463D01*
X024620Y001463D01*
X024530Y001553D01*
X024338Y001463D02*
X023978Y001463D01*
X024158Y001463D02*
X024158Y002004D01*
X023978Y001824D01*
X025403Y000933D02*
X025432Y000935D01*
X025461Y000940D01*
X025489Y000948D01*
X025516Y000960D01*
X025541Y000975D01*
X025564Y000992D01*
X025586Y001012D01*
X025604Y001035D01*
X025620Y001059D01*
X025633Y001085D01*
X025643Y001113D01*
X023553Y003733D02*
X023555Y003780D01*
X023561Y003826D01*
X023571Y003872D01*
X023584Y003916D01*
X023602Y003960D01*
X023623Y004001D01*
X023647Y004041D01*
X023675Y004079D01*
X023706Y004114D01*
X023740Y004146D01*
X023776Y004175D01*
X023815Y004201D01*
X023855Y004224D01*
X023898Y004243D01*
X023942Y004259D01*
X023987Y004271D01*
X024033Y004279D01*
X024080Y004283D01*
X024126Y004283D01*
X024173Y004279D01*
X024219Y004271D01*
X024264Y004259D01*
X024308Y004243D01*
X024351Y004224D01*
X024391Y004201D01*
X024430Y004175D01*
X024466Y004146D01*
X024500Y004114D01*
X024531Y004079D01*
X024559Y004041D01*
X024583Y004001D01*
X024604Y003960D01*
X024622Y003916D01*
X024635Y003872D01*
X024645Y003826D01*
X024651Y003780D01*
X024653Y003733D01*
X024651Y003686D01*
X024645Y003640D01*
X024635Y003594D01*
X024622Y003550D01*
X024604Y003506D01*
X024583Y003465D01*
X024559Y003425D01*
X024531Y003387D01*
X024500Y003352D01*
X024466Y003320D01*
X024430Y003291D01*
X024391Y003265D01*
X024351Y003242D01*
X024308Y003223D01*
X024264Y003207D01*
X024219Y003195D01*
X024173Y003187D01*
X024126Y003183D01*
X024080Y003183D01*
X024033Y003187D01*
X023987Y003195D01*
X023942Y003207D01*
X023898Y003223D01*
X023855Y003242D01*
X023815Y003265D01*
X023776Y003291D01*
X023740Y003320D01*
X023706Y003352D01*
X023675Y003387D01*
X023647Y003425D01*
X023623Y003465D01*
X023602Y003506D01*
X023584Y003550D01*
X023571Y003594D01*
X023561Y003640D01*
X023555Y003686D01*
X023553Y003733D01*
X024083Y006823D02*
X024085Y006868D01*
X024091Y006913D01*
X024101Y006958D01*
X024114Y007001D01*
X024132Y007043D01*
X024153Y007083D01*
X024177Y007121D01*
X024205Y007157D01*
X024235Y007191D01*
X024269Y007221D01*
X024305Y007249D01*
X024343Y007273D01*
X024383Y007294D01*
X024425Y007312D01*
X024468Y007325D01*
X024513Y007335D01*
X024558Y007341D01*
X024603Y007343D01*
X024648Y007341D01*
X024693Y007335D01*
X024738Y007325D01*
X024781Y007312D01*
X024823Y007294D01*
X024863Y007273D01*
X024901Y007249D01*
X024937Y007221D01*
X024971Y007191D01*
X025001Y007157D01*
X025029Y007121D01*
X025053Y007083D01*
X025074Y007043D01*
X025092Y007001D01*
X025105Y006958D01*
X025115Y006913D01*
X025121Y006868D01*
X025123Y006823D01*
X025121Y006778D01*
X025115Y006733D01*
X025105Y006688D01*
X025092Y006645D01*
X025074Y006603D01*
X025053Y006563D01*
X025029Y006525D01*
X025001Y006489D01*
X024971Y006455D01*
X024937Y006425D01*
X024901Y006397D01*
X024863Y006373D01*
X024823Y006352D01*
X024781Y006334D01*
X024738Y006321D01*
X024693Y006311D01*
X024648Y006305D01*
X024603Y006303D01*
X024558Y006305D01*
X024513Y006311D01*
X024468Y006321D01*
X024425Y006334D01*
X024383Y006352D01*
X024343Y006373D01*
X024305Y006397D01*
X024269Y006425D01*
X024235Y006455D01*
X024205Y006489D01*
X024177Y006525D01*
X024153Y006563D01*
X024132Y006603D01*
X024114Y006645D01*
X024101Y006688D01*
X024091Y006733D01*
X024085Y006778D01*
X024083Y006823D01*
X023603Y007783D02*
X022703Y007783D01*
X022603Y007683D01*
X025923Y009063D02*
X025923Y009490D01*
X026136Y009704D01*
X026350Y009490D01*
X026350Y009063D01*
X026567Y009063D02*
X026567Y009490D01*
X026567Y009277D02*
X026781Y009490D01*
X026887Y009490D01*
X027104Y009384D02*
X027211Y009490D01*
X027424Y009490D01*
X027531Y009384D01*
X027531Y009277D01*
X027104Y009277D01*
X027104Y009170D02*
X027104Y009384D01*
X027104Y009170D02*
X027211Y009063D01*
X027424Y009063D01*
X027749Y009063D02*
X027749Y009490D01*
X028069Y009490D01*
X028176Y009384D01*
X028176Y009063D01*
X028393Y009170D02*
X028500Y009277D01*
X028820Y009277D01*
X028820Y009384D02*
X028820Y009063D01*
X028500Y009063D01*
X028393Y009170D01*
X028500Y009490D02*
X028714Y009490D01*
X028820Y009384D01*
X029038Y009384D02*
X029145Y009490D01*
X029465Y009490D01*
X029358Y009277D02*
X029145Y009277D01*
X029038Y009384D01*
X029038Y009063D02*
X029358Y009063D01*
X029465Y009170D01*
X029358Y009277D01*
X030327Y009170D02*
X030434Y009063D01*
X030647Y009063D01*
X030754Y009170D01*
X030754Y009597D01*
X030647Y009704D01*
X030434Y009704D01*
X030327Y009597D01*
X030327Y009490D01*
X030434Y009384D01*
X030754Y009384D01*
X030971Y009384D02*
X031399Y009384D01*
X031616Y009490D02*
X031830Y009704D01*
X031830Y009063D01*
X032043Y009063D02*
X031616Y009063D01*
X032261Y009063D02*
X032688Y009490D01*
X032688Y009597D01*
X032581Y009704D01*
X032367Y009704D01*
X032261Y009597D01*
X032261Y009063D02*
X032688Y009063D01*
X034203Y007783D02*
X035103Y007783D01*
X035203Y007683D01*
X035203Y003733D01*
X034323Y001093D01*
X034321Y001093D02*
X034311Y001066D01*
X034297Y001040D01*
X034280Y001017D01*
X034260Y000996D01*
X034238Y000977D01*
X034213Y000962D01*
X034187Y000949D01*
X034159Y000940D01*
X034131Y000935D01*
X034102Y000933D01*
X034103Y000933D02*
X032403Y000933D01*
X032163Y001113D02*
X032160Y001123D01*
X032163Y001113D02*
X031913Y002073D01*
X031921Y002049D02*
X031914Y002080D01*
X031905Y002111D01*
X031891Y002141D01*
X031874Y002168D01*
X031854Y002193D01*
X031831Y002216D01*
X031805Y002236D01*
X031778Y002253D01*
X031748Y002266D01*
X031717Y002275D01*
X031685Y002281D01*
X031653Y002283D01*
X029753Y002283D01*
X032163Y001113D02*
X032173Y001085D01*
X032186Y001059D01*
X032202Y001035D01*
X032220Y001012D01*
X032242Y000992D01*
X032265Y000975D01*
X032290Y000960D01*
X032317Y000948D01*
X032345Y000940D01*
X032374Y000935D01*
X032403Y000933D01*
X033153Y003733D02*
X033155Y003780D01*
X033161Y003826D01*
X033171Y003872D01*
X033184Y003916D01*
X033202Y003960D01*
X033223Y004001D01*
X033247Y004041D01*
X033275Y004079D01*
X033306Y004114D01*
X033340Y004146D01*
X033376Y004175D01*
X033415Y004201D01*
X033455Y004224D01*
X033498Y004243D01*
X033542Y004259D01*
X033587Y004271D01*
X033633Y004279D01*
X033680Y004283D01*
X033726Y004283D01*
X033773Y004279D01*
X033819Y004271D01*
X033864Y004259D01*
X033908Y004243D01*
X033951Y004224D01*
X033991Y004201D01*
X034030Y004175D01*
X034066Y004146D01*
X034100Y004114D01*
X034131Y004079D01*
X034159Y004041D01*
X034183Y004001D01*
X034204Y003960D01*
X034222Y003916D01*
X034235Y003872D01*
X034245Y003826D01*
X034251Y003780D01*
X034253Y003733D01*
X034251Y003686D01*
X034245Y003640D01*
X034235Y003594D01*
X034222Y003550D01*
X034204Y003506D01*
X034183Y003465D01*
X034159Y003425D01*
X034131Y003387D01*
X034100Y003352D01*
X034066Y003320D01*
X034030Y003291D01*
X033991Y003265D01*
X033951Y003242D01*
X033908Y003223D01*
X033864Y003207D01*
X033819Y003195D01*
X033773Y003187D01*
X033726Y003183D01*
X033680Y003183D01*
X033633Y003187D01*
X033587Y003195D01*
X033542Y003207D01*
X033498Y003223D01*
X033455Y003242D01*
X033415Y003265D01*
X033376Y003291D01*
X033340Y003320D01*
X033306Y003352D01*
X033275Y003387D01*
X033247Y003425D01*
X033223Y003465D01*
X033202Y003506D01*
X033184Y003550D01*
X033171Y003594D01*
X033161Y003640D01*
X033155Y003686D01*
X033153Y003733D01*
X032683Y006823D02*
X032685Y006868D01*
X032691Y006913D01*
X032701Y006958D01*
X032714Y007001D01*
X032732Y007043D01*
X032753Y007083D01*
X032777Y007121D01*
X032805Y007157D01*
X032835Y007191D01*
X032869Y007221D01*
X032905Y007249D01*
X032943Y007273D01*
X032983Y007294D01*
X033025Y007312D01*
X033068Y007325D01*
X033113Y007335D01*
X033158Y007341D01*
X033203Y007343D01*
X033248Y007341D01*
X033293Y007335D01*
X033338Y007325D01*
X033381Y007312D01*
X033423Y007294D01*
X033463Y007273D01*
X033501Y007249D01*
X033537Y007221D01*
X033571Y007191D01*
X033601Y007157D01*
X033629Y007121D01*
X033653Y007083D01*
X033674Y007043D01*
X033692Y007001D01*
X033705Y006958D01*
X033715Y006913D01*
X033721Y006868D01*
X033723Y006823D01*
X033721Y006778D01*
X033715Y006733D01*
X033705Y006688D01*
X033692Y006645D01*
X033674Y006603D01*
X033653Y006563D01*
X033629Y006525D01*
X033601Y006489D01*
X033571Y006455D01*
X033537Y006425D01*
X033501Y006397D01*
X033463Y006373D01*
X033423Y006352D01*
X033381Y006334D01*
X033338Y006321D01*
X033293Y006311D01*
X033248Y006305D01*
X033203Y006303D01*
X033158Y006305D01*
X033113Y006311D01*
X033068Y006321D01*
X033025Y006334D01*
X032983Y006352D01*
X032943Y006373D01*
X032905Y006397D01*
X032869Y006425D01*
X032835Y006455D01*
X032805Y006489D01*
X032777Y006525D01*
X032753Y006563D01*
X032732Y006603D01*
X032714Y006645D01*
X032701Y006688D01*
X032691Y006733D01*
X032685Y006778D01*
X032683Y006823D01*
X026350Y009384D02*
X025923Y009384D01*
X043093Y007683D02*
X043093Y003733D01*
X043973Y001093D01*
X043974Y001093D02*
X043984Y001066D01*
X043998Y001040D01*
X044015Y001017D01*
X044035Y000996D01*
X044057Y000977D01*
X044082Y000962D01*
X044108Y000949D01*
X044136Y000940D01*
X044164Y000935D01*
X044193Y000933D01*
X045893Y000933D01*
X046133Y001113D02*
X046136Y001123D01*
X046133Y001113D02*
X046383Y002073D01*
X046375Y002049D02*
X046382Y002080D01*
X046391Y002111D01*
X046405Y002141D01*
X046422Y002168D01*
X046442Y002193D01*
X046465Y002216D01*
X046491Y002236D01*
X046518Y002253D01*
X046548Y002266D01*
X046579Y002275D01*
X046611Y002281D01*
X046643Y002283D01*
X047043Y002283D01*
X047043Y005133D01*
X047043Y005933D01*
X046593Y005933D01*
X046593Y007733D01*
X046093Y007733D01*
X046093Y006183D01*
X045093Y005533D01*
X044093Y006183D01*
X044093Y007783D01*
X044893Y007783D01*
X044893Y007733D01*
X046093Y007733D01*
X046593Y007733D02*
X047043Y007733D01*
X047743Y007733D02*
X048043Y007733D01*
X048743Y007733D02*
X049043Y007733D01*
X049743Y007733D02*
X050043Y007733D01*
X050743Y007733D02*
X051043Y007733D01*
X051743Y007733D02*
X052193Y007733D01*
X052693Y007733D01*
X052693Y006183D01*
X053693Y005533D01*
X054693Y006183D01*
X054693Y007783D01*
X053893Y007783D01*
X053893Y007733D01*
X052693Y007733D01*
X052193Y007733D02*
X052193Y005933D01*
X048543Y005933D01*
X047043Y005933D01*
X047043Y005133D02*
X047593Y005133D01*
X047593Y004833D01*
X048193Y004833D01*
X048193Y005133D01*
X048543Y005133D01*
X048543Y005233D01*
X048543Y005933D01*
X048543Y005233D02*
X050243Y005233D01*
X050243Y004833D01*
X048543Y004833D01*
X048543Y005133D01*
X048543Y004833D02*
X048543Y002283D01*
X047043Y002283D01*
X047493Y002283D02*
X047493Y002683D01*
X048293Y002683D01*
X048293Y002283D01*
X048543Y002283D02*
X050243Y002283D01*
X050243Y004833D01*
X048193Y004833D02*
X048193Y004233D01*
X048191Y004199D01*
X048185Y004166D01*
X048176Y004134D01*
X048163Y004103D01*
X048147Y004073D01*
X048128Y004046D01*
X048105Y004021D01*
X048080Y003998D01*
X048053Y003979D01*
X048023Y003963D01*
X047992Y003950D01*
X047960Y003941D01*
X047927Y003935D01*
X047893Y003933D01*
X047859Y003935D01*
X047826Y003941D01*
X047794Y003950D01*
X047763Y003963D01*
X047733Y003979D01*
X047706Y003998D01*
X047681Y004021D01*
X047658Y004046D01*
X047639Y004073D01*
X047623Y004103D01*
X047610Y004134D01*
X047601Y004166D01*
X047595Y004199D01*
X047593Y004233D01*
X047593Y004833D01*
X044573Y006823D02*
X044575Y006868D01*
X044581Y006913D01*
X044591Y006958D01*
X044604Y007001D01*
X044622Y007043D01*
X044643Y007083D01*
X044667Y007121D01*
X044695Y007157D01*
X044725Y007191D01*
X044759Y007221D01*
X044795Y007249D01*
X044833Y007273D01*
X044873Y007294D01*
X044915Y007312D01*
X044958Y007325D01*
X045003Y007335D01*
X045048Y007341D01*
X045093Y007343D01*
X045138Y007341D01*
X045183Y007335D01*
X045228Y007325D01*
X045271Y007312D01*
X045313Y007294D01*
X045353Y007273D01*
X045391Y007249D01*
X045427Y007221D01*
X045461Y007191D01*
X045491Y007157D01*
X045519Y007121D01*
X045543Y007083D01*
X045564Y007043D01*
X045582Y007001D01*
X045595Y006958D01*
X045605Y006913D01*
X045611Y006868D01*
X045613Y006823D01*
X045611Y006778D01*
X045605Y006733D01*
X045595Y006688D01*
X045582Y006645D01*
X045564Y006603D01*
X045543Y006563D01*
X045519Y006525D01*
X045491Y006489D01*
X045461Y006455D01*
X045427Y006425D01*
X045391Y006397D01*
X045353Y006373D01*
X045313Y006352D01*
X045271Y006334D01*
X045228Y006321D01*
X045183Y006311D01*
X045138Y006305D01*
X045093Y006303D01*
X045048Y006305D01*
X045003Y006311D01*
X044958Y006321D01*
X044915Y006334D01*
X044873Y006352D01*
X044833Y006373D01*
X044795Y006397D01*
X044759Y006425D01*
X044725Y006455D01*
X044695Y006489D01*
X044667Y006525D01*
X044643Y006563D01*
X044622Y006603D01*
X044604Y006645D01*
X044591Y006688D01*
X044581Y006733D01*
X044575Y006778D01*
X044573Y006823D01*
X044093Y007783D02*
X043193Y007783D01*
X043093Y007683D01*
X046423Y009063D02*
X046423Y009490D01*
X046636Y009704D01*
X046850Y009490D01*
X046850Y009063D01*
X047067Y009063D02*
X047067Y009490D01*
X047067Y009277D02*
X047281Y009490D01*
X047387Y009490D01*
X047604Y009384D02*
X047711Y009490D01*
X047924Y009490D01*
X048031Y009384D01*
X048031Y009277D01*
X047604Y009277D01*
X047604Y009170D02*
X047604Y009384D01*
X047604Y009170D02*
X047711Y009063D01*
X047924Y009063D01*
X048249Y009063D02*
X048249Y009490D01*
X048569Y009490D01*
X048676Y009384D01*
X048676Y009063D01*
X048893Y009170D02*
X049000Y009277D01*
X049320Y009277D01*
X049320Y009384D02*
X049320Y009063D01*
X049000Y009063D01*
X048893Y009170D01*
X049000Y009490D02*
X049214Y009490D01*
X049320Y009384D01*
X049538Y009384D02*
X049645Y009490D01*
X049965Y009490D01*
X049858Y009277D02*
X049645Y009277D01*
X049538Y009384D01*
X049538Y009063D02*
X049858Y009063D01*
X049965Y009170D01*
X049858Y009277D01*
X050827Y009384D02*
X050827Y009704D01*
X051254Y009704D01*
X051147Y009490D02*
X051254Y009384D01*
X051254Y009170D01*
X051147Y009063D01*
X050934Y009063D01*
X050827Y009170D01*
X050827Y009384D02*
X051040Y009490D01*
X051147Y009490D01*
X051471Y009384D02*
X051899Y009384D01*
X052116Y009490D02*
X052116Y009597D01*
X052223Y009704D01*
X052436Y009704D01*
X052543Y009597D01*
X052543Y009490D01*
X052436Y009384D01*
X052223Y009384D01*
X052116Y009490D01*
X052223Y009384D02*
X052116Y009277D01*
X052116Y009170D01*
X052223Y009063D01*
X052436Y009063D01*
X052543Y009170D01*
X052543Y009277D01*
X052436Y009384D01*
X054693Y007783D02*
X055593Y007783D01*
X055693Y007683D01*
X055693Y003733D01*
X054813Y001093D01*
X054811Y001093D02*
X054801Y001066D01*
X054787Y001040D01*
X054770Y001017D01*
X054750Y000996D01*
X054728Y000977D01*
X054703Y000962D01*
X054677Y000949D01*
X054649Y000940D01*
X054621Y000935D01*
X054592Y000933D01*
X054593Y000933D02*
X052893Y000933D01*
X052653Y001113D02*
X052650Y001123D01*
X052653Y001113D02*
X052403Y002073D01*
X052411Y002049D02*
X052404Y002080D01*
X052395Y002111D01*
X052381Y002141D01*
X052364Y002168D01*
X052344Y002193D01*
X052321Y002216D01*
X052295Y002236D01*
X052268Y002253D01*
X052238Y002266D01*
X052207Y002275D01*
X052175Y002281D01*
X052143Y002283D01*
X050243Y002283D01*
X052653Y001113D02*
X052663Y001085D01*
X052676Y001059D01*
X052692Y001035D01*
X052710Y001012D01*
X052732Y000992D01*
X052755Y000975D01*
X052780Y000960D01*
X052807Y000948D01*
X052835Y000940D01*
X052864Y000935D01*
X052893Y000933D01*
X053643Y003733D02*
X053645Y003780D01*
X053651Y003826D01*
X053661Y003872D01*
X053674Y003916D01*
X053692Y003960D01*
X053713Y004001D01*
X053737Y004041D01*
X053765Y004079D01*
X053796Y004114D01*
X053830Y004146D01*
X053866Y004175D01*
X053905Y004201D01*
X053945Y004224D01*
X053988Y004243D01*
X054032Y004259D01*
X054077Y004271D01*
X054123Y004279D01*
X054170Y004283D01*
X054216Y004283D01*
X054263Y004279D01*
X054309Y004271D01*
X054354Y004259D01*
X054398Y004243D01*
X054441Y004224D01*
X054481Y004201D01*
X054520Y004175D01*
X054556Y004146D01*
X054590Y004114D01*
X054621Y004079D01*
X054649Y004041D01*
X054673Y004001D01*
X054694Y003960D01*
X054712Y003916D01*
X054725Y003872D01*
X054735Y003826D01*
X054741Y003780D01*
X054743Y003733D01*
X054741Y003686D01*
X054735Y003640D01*
X054725Y003594D01*
X054712Y003550D01*
X054694Y003506D01*
X054673Y003465D01*
X054649Y003425D01*
X054621Y003387D01*
X054590Y003352D01*
X054556Y003320D01*
X054520Y003291D01*
X054481Y003265D01*
X054441Y003242D01*
X054398Y003223D01*
X054354Y003207D01*
X054309Y003195D01*
X054263Y003187D01*
X054216Y003183D01*
X054170Y003183D01*
X054123Y003187D01*
X054077Y003195D01*
X054032Y003207D01*
X053988Y003223D01*
X053945Y003242D01*
X053905Y003265D01*
X053866Y003291D01*
X053830Y003320D01*
X053796Y003352D01*
X053765Y003387D01*
X053737Y003425D01*
X053713Y003465D01*
X053692Y003506D01*
X053674Y003550D01*
X053661Y003594D01*
X053651Y003640D01*
X053645Y003686D01*
X053643Y003733D01*
X053173Y006823D02*
X053175Y006868D01*
X053181Y006913D01*
X053191Y006958D01*
X053204Y007001D01*
X053222Y007043D01*
X053243Y007083D01*
X053267Y007121D01*
X053295Y007157D01*
X053325Y007191D01*
X053359Y007221D01*
X053395Y007249D01*
X053433Y007273D01*
X053473Y007294D01*
X053515Y007312D01*
X053558Y007325D01*
X053603Y007335D01*
X053648Y007341D01*
X053693Y007343D01*
X053738Y007341D01*
X053783Y007335D01*
X053828Y007325D01*
X053871Y007312D01*
X053913Y007294D01*
X053953Y007273D01*
X053991Y007249D01*
X054027Y007221D01*
X054061Y007191D01*
X054091Y007157D01*
X054119Y007121D01*
X054143Y007083D01*
X054164Y007043D01*
X054182Y007001D01*
X054195Y006958D01*
X054205Y006913D01*
X054211Y006868D01*
X054213Y006823D01*
X054211Y006778D01*
X054205Y006733D01*
X054195Y006688D01*
X054182Y006645D01*
X054164Y006603D01*
X054143Y006563D01*
X054119Y006525D01*
X054091Y006489D01*
X054061Y006455D01*
X054027Y006425D01*
X053991Y006397D01*
X053953Y006373D01*
X053913Y006352D01*
X053871Y006334D01*
X053828Y006321D01*
X053783Y006311D01*
X053738Y006305D01*
X053693Y006303D01*
X053648Y006305D01*
X053603Y006311D01*
X053558Y006321D01*
X053515Y006334D01*
X053473Y006352D01*
X053433Y006373D01*
X053395Y006397D01*
X053359Y006425D01*
X053325Y006455D01*
X053295Y006489D01*
X053267Y006525D01*
X053243Y006563D01*
X053222Y006603D01*
X053204Y006645D01*
X053191Y006688D01*
X053181Y006733D01*
X053175Y006778D01*
X053173Y006823D01*
X046850Y009384D02*
X046423Y009384D01*
X044043Y003733D02*
X044045Y003780D01*
X044051Y003826D01*
X044061Y003872D01*
X044074Y003916D01*
X044092Y003960D01*
X044113Y004001D01*
X044137Y004041D01*
X044165Y004079D01*
X044196Y004114D01*
X044230Y004146D01*
X044266Y004175D01*
X044305Y004201D01*
X044345Y004224D01*
X044388Y004243D01*
X044432Y004259D01*
X044477Y004271D01*
X044523Y004279D01*
X044570Y004283D01*
X044616Y004283D01*
X044663Y004279D01*
X044709Y004271D01*
X044754Y004259D01*
X044798Y004243D01*
X044841Y004224D01*
X044881Y004201D01*
X044920Y004175D01*
X044956Y004146D01*
X044990Y004114D01*
X045021Y004079D01*
X045049Y004041D01*
X045073Y004001D01*
X045094Y003960D01*
X045112Y003916D01*
X045125Y003872D01*
X045135Y003826D01*
X045141Y003780D01*
X045143Y003733D01*
X045141Y003686D01*
X045135Y003640D01*
X045125Y003594D01*
X045112Y003550D01*
X045094Y003506D01*
X045073Y003465D01*
X045049Y003425D01*
X045021Y003387D01*
X044990Y003352D01*
X044956Y003320D01*
X044920Y003291D01*
X044881Y003265D01*
X044841Y003242D01*
X044798Y003223D01*
X044754Y003207D01*
X044709Y003195D01*
X044663Y003187D01*
X044616Y003183D01*
X044570Y003183D01*
X044523Y003187D01*
X044477Y003195D01*
X044432Y003207D01*
X044388Y003223D01*
X044345Y003242D01*
X044305Y003265D01*
X044266Y003291D01*
X044230Y003320D01*
X044196Y003352D01*
X044165Y003387D01*
X044137Y003425D01*
X044113Y003465D01*
X044092Y003506D01*
X044074Y003550D01*
X044061Y003594D01*
X044051Y003640D01*
X044045Y003686D01*
X044043Y003733D01*
X044293Y002283D02*
X044293Y001183D01*
X045793Y001183D01*
X045793Y002283D01*
X044293Y002283D01*
X044648Y002004D02*
X044648Y001463D01*
X044468Y001463D02*
X044828Y001463D01*
X045020Y001553D02*
X045380Y001914D01*
X045380Y001553D01*
X045290Y001463D01*
X045110Y001463D01*
X045020Y001553D01*
X045020Y001914D01*
X045110Y002004D01*
X045290Y002004D01*
X045380Y001914D01*
X044648Y002004D02*
X044468Y001824D01*
X045893Y000933D02*
X045922Y000935D01*
X045951Y000940D01*
X045979Y000948D01*
X046006Y000960D01*
X046031Y000975D01*
X046054Y000992D01*
X046076Y001012D01*
X046094Y001035D01*
X046110Y001059D01*
X046123Y001085D01*
X046133Y001113D01*
X053643Y014533D02*
X053393Y014783D01*
X053393Y015283D01*
X053643Y015533D01*
X053393Y015783D01*
X053393Y016283D01*
X053643Y016533D01*
X054143Y016533D01*
X054393Y016283D01*
X054393Y015783D01*
X054143Y015533D01*
X054393Y015283D01*
X054393Y014783D01*
X054143Y014533D01*
X053643Y014533D01*
X053643Y015533D02*
X054143Y015533D01*
X063593Y007683D02*
X063693Y007783D01*
X064593Y007783D01*
X065393Y007783D01*
X065393Y007733D01*
X066593Y007733D01*
X067093Y007733D01*
X067543Y007733D01*
X067093Y007733D02*
X067093Y005933D01*
X067543Y005933D01*
X069043Y005933D01*
X072693Y005933D01*
X072693Y007733D01*
X073193Y007733D01*
X073193Y006183D01*
X074193Y005533D01*
X075193Y006183D01*
X075193Y007783D01*
X074393Y007783D01*
X074393Y007733D01*
X073193Y007733D01*
X072693Y007733D02*
X072243Y007733D01*
X071543Y007733D02*
X071243Y007733D01*
X070543Y007733D02*
X070243Y007733D01*
X069543Y007733D02*
X069243Y007733D01*
X068543Y007733D02*
X068243Y007733D01*
X068067Y009063D02*
X068067Y009490D01*
X068067Y009277D02*
X068281Y009490D01*
X068387Y009490D01*
X068604Y009384D02*
X068711Y009490D01*
X068924Y009490D01*
X069031Y009384D01*
X069031Y009277D01*
X068604Y009277D01*
X068604Y009170D02*
X068604Y009384D01*
X068604Y009170D02*
X068711Y009063D01*
X068924Y009063D01*
X069249Y009063D02*
X069249Y009490D01*
X069569Y009490D01*
X069676Y009384D01*
X069676Y009063D01*
X069893Y009170D02*
X070000Y009277D01*
X070320Y009277D01*
X070320Y009384D02*
X070320Y009063D01*
X070000Y009063D01*
X069893Y009170D01*
X070000Y009490D02*
X070214Y009490D01*
X070320Y009384D01*
X070538Y009384D02*
X070645Y009490D01*
X070965Y009490D01*
X070858Y009277D02*
X070965Y009170D01*
X070858Y009063D01*
X070538Y009063D01*
X070645Y009277D02*
X070538Y009384D01*
X070645Y009277D02*
X070858Y009277D01*
X071827Y009490D02*
X072040Y009704D01*
X072040Y009063D01*
X071827Y009063D02*
X072254Y009063D01*
X072471Y009384D02*
X072899Y009384D01*
X073116Y009384D02*
X073543Y009384D01*
X073436Y009704D02*
X073436Y009063D01*
X073116Y009384D02*
X073436Y009704D01*
X075193Y007783D02*
X076093Y007783D01*
X076193Y007683D01*
X076193Y003733D01*
X075313Y001093D01*
X075311Y001093D02*
X075301Y001066D01*
X075287Y001040D01*
X075270Y001017D01*
X075250Y000996D01*
X075228Y000977D01*
X075203Y000962D01*
X075177Y000949D01*
X075149Y000940D01*
X075121Y000935D01*
X075092Y000933D01*
X075093Y000933D02*
X073393Y000933D01*
X073153Y001113D02*
X073150Y001123D01*
X073153Y001113D02*
X072903Y002073D01*
X072911Y002049D02*
X072904Y002080D01*
X072895Y002111D01*
X072881Y002141D01*
X072864Y002168D01*
X072844Y002193D01*
X072821Y002216D01*
X072795Y002236D01*
X072768Y002253D01*
X072738Y002266D01*
X072707Y002275D01*
X072675Y002281D01*
X072643Y002283D01*
X070743Y002283D01*
X069043Y002283D01*
X067543Y002283D01*
X067543Y005133D01*
X067543Y005933D01*
X067543Y005133D02*
X068093Y005133D01*
X068093Y004833D01*
X068693Y004833D01*
X068693Y005133D01*
X069043Y005133D01*
X069043Y005233D01*
X069043Y005933D01*
X069043Y005233D02*
X070743Y005233D01*
X070743Y004833D01*
X069043Y004833D01*
X069043Y005133D01*
X069043Y004833D02*
X069043Y002283D01*
X068793Y002283D02*
X068793Y002683D01*
X067993Y002683D01*
X067993Y002283D01*
X067543Y002283D02*
X067143Y002283D01*
X067111Y002281D01*
X067079Y002275D01*
X067048Y002266D01*
X067018Y002253D01*
X066991Y002236D01*
X066965Y002216D01*
X066942Y002193D01*
X066922Y002168D01*
X066905Y002141D01*
X066891Y002111D01*
X066882Y002080D01*
X066875Y002049D01*
X066883Y002073D02*
X066633Y001113D01*
X066636Y001123D01*
X066633Y001113D02*
X066623Y001085D01*
X066610Y001059D01*
X066594Y001035D01*
X066576Y001012D01*
X066554Y000992D01*
X066531Y000975D01*
X066506Y000960D01*
X066479Y000948D01*
X066451Y000940D01*
X066422Y000935D01*
X066393Y000933D01*
X064693Y000933D01*
X064664Y000935D01*
X064636Y000940D01*
X064608Y000949D01*
X064582Y000962D01*
X064557Y000977D01*
X064535Y000996D01*
X064515Y001017D01*
X064498Y001040D01*
X064484Y001066D01*
X064474Y001093D01*
X064473Y001093D02*
X063593Y003733D01*
X063593Y007683D01*
X064593Y007783D02*
X064593Y006183D01*
X065593Y005533D01*
X066593Y006183D01*
X066593Y007733D01*
X065073Y006823D02*
X065075Y006868D01*
X065081Y006913D01*
X065091Y006958D01*
X065104Y007001D01*
X065122Y007043D01*
X065143Y007083D01*
X065167Y007121D01*
X065195Y007157D01*
X065225Y007191D01*
X065259Y007221D01*
X065295Y007249D01*
X065333Y007273D01*
X065373Y007294D01*
X065415Y007312D01*
X065458Y007325D01*
X065503Y007335D01*
X065548Y007341D01*
X065593Y007343D01*
X065638Y007341D01*
X065683Y007335D01*
X065728Y007325D01*
X065771Y007312D01*
X065813Y007294D01*
X065853Y007273D01*
X065891Y007249D01*
X065927Y007221D01*
X065961Y007191D01*
X065991Y007157D01*
X066019Y007121D01*
X066043Y007083D01*
X066064Y007043D01*
X066082Y007001D01*
X066095Y006958D01*
X066105Y006913D01*
X066111Y006868D01*
X066113Y006823D01*
X066111Y006778D01*
X066105Y006733D01*
X066095Y006688D01*
X066082Y006645D01*
X066064Y006603D01*
X066043Y006563D01*
X066019Y006525D01*
X065991Y006489D01*
X065961Y006455D01*
X065927Y006425D01*
X065891Y006397D01*
X065853Y006373D01*
X065813Y006352D01*
X065771Y006334D01*
X065728Y006321D01*
X065683Y006311D01*
X065638Y006305D01*
X065593Y006303D01*
X065548Y006305D01*
X065503Y006311D01*
X065458Y006321D01*
X065415Y006334D01*
X065373Y006352D01*
X065333Y006373D01*
X065295Y006397D01*
X065259Y006425D01*
X065225Y006455D01*
X065195Y006489D01*
X065167Y006525D01*
X065143Y006563D01*
X065122Y006603D01*
X065104Y006645D01*
X065091Y006688D01*
X065081Y006733D01*
X065075Y006778D01*
X065073Y006823D01*
X067423Y009063D02*
X067423Y009490D01*
X067636Y009704D01*
X067850Y009490D01*
X067850Y009063D01*
X067850Y009384D02*
X067423Y009384D01*
X068093Y004833D02*
X068093Y004233D01*
X068095Y004199D01*
X068101Y004166D01*
X068110Y004134D01*
X068123Y004103D01*
X068139Y004073D01*
X068158Y004046D01*
X068181Y004021D01*
X068206Y003998D01*
X068233Y003979D01*
X068263Y003963D01*
X068294Y003950D01*
X068326Y003941D01*
X068359Y003935D01*
X068393Y003933D01*
X068427Y003935D01*
X068460Y003941D01*
X068492Y003950D01*
X068523Y003963D01*
X068553Y003979D01*
X068580Y003998D01*
X068605Y004021D01*
X068628Y004046D01*
X068647Y004073D01*
X068663Y004103D01*
X068676Y004134D01*
X068685Y004166D01*
X068691Y004199D01*
X068693Y004233D01*
X068693Y004833D01*
X070743Y004833D02*
X070743Y002283D01*
X073153Y001113D02*
X073163Y001085D01*
X073176Y001059D01*
X073192Y001035D01*
X073210Y001012D01*
X073232Y000992D01*
X073255Y000975D01*
X073280Y000960D01*
X073307Y000948D01*
X073335Y000940D01*
X073364Y000935D01*
X073393Y000933D01*
X074143Y003733D02*
X074145Y003780D01*
X074151Y003826D01*
X074161Y003872D01*
X074174Y003916D01*
X074192Y003960D01*
X074213Y004001D01*
X074237Y004041D01*
X074265Y004079D01*
X074296Y004114D01*
X074330Y004146D01*
X074366Y004175D01*
X074405Y004201D01*
X074445Y004224D01*
X074488Y004243D01*
X074532Y004259D01*
X074577Y004271D01*
X074623Y004279D01*
X074670Y004283D01*
X074716Y004283D01*
X074763Y004279D01*
X074809Y004271D01*
X074854Y004259D01*
X074898Y004243D01*
X074941Y004224D01*
X074981Y004201D01*
X075020Y004175D01*
X075056Y004146D01*
X075090Y004114D01*
X075121Y004079D01*
X075149Y004041D01*
X075173Y004001D01*
X075194Y003960D01*
X075212Y003916D01*
X075225Y003872D01*
X075235Y003826D01*
X075241Y003780D01*
X075243Y003733D01*
X075241Y003686D01*
X075235Y003640D01*
X075225Y003594D01*
X075212Y003550D01*
X075194Y003506D01*
X075173Y003465D01*
X075149Y003425D01*
X075121Y003387D01*
X075090Y003352D01*
X075056Y003320D01*
X075020Y003291D01*
X074981Y003265D01*
X074941Y003242D01*
X074898Y003223D01*
X074854Y003207D01*
X074809Y003195D01*
X074763Y003187D01*
X074716Y003183D01*
X074670Y003183D01*
X074623Y003187D01*
X074577Y003195D01*
X074532Y003207D01*
X074488Y003223D01*
X074445Y003242D01*
X074405Y003265D01*
X074366Y003291D01*
X074330Y003320D01*
X074296Y003352D01*
X074265Y003387D01*
X074237Y003425D01*
X074213Y003465D01*
X074192Y003506D01*
X074174Y003550D01*
X074161Y003594D01*
X074151Y003640D01*
X074145Y003686D01*
X074143Y003733D01*
X073673Y006823D02*
X073675Y006868D01*
X073681Y006913D01*
X073691Y006958D01*
X073704Y007001D01*
X073722Y007043D01*
X073743Y007083D01*
X073767Y007121D01*
X073795Y007157D01*
X073825Y007191D01*
X073859Y007221D01*
X073895Y007249D01*
X073933Y007273D01*
X073973Y007294D01*
X074015Y007312D01*
X074058Y007325D01*
X074103Y007335D01*
X074148Y007341D01*
X074193Y007343D01*
X074238Y007341D01*
X074283Y007335D01*
X074328Y007325D01*
X074371Y007312D01*
X074413Y007294D01*
X074453Y007273D01*
X074491Y007249D01*
X074527Y007221D01*
X074561Y007191D01*
X074591Y007157D01*
X074619Y007121D01*
X074643Y007083D01*
X074664Y007043D01*
X074682Y007001D01*
X074695Y006958D01*
X074705Y006913D01*
X074711Y006868D01*
X074713Y006823D01*
X074711Y006778D01*
X074705Y006733D01*
X074695Y006688D01*
X074682Y006645D01*
X074664Y006603D01*
X074643Y006563D01*
X074619Y006525D01*
X074591Y006489D01*
X074561Y006455D01*
X074527Y006425D01*
X074491Y006397D01*
X074453Y006373D01*
X074413Y006352D01*
X074371Y006334D01*
X074328Y006321D01*
X074283Y006311D01*
X074238Y006305D01*
X074193Y006303D01*
X074148Y006305D01*
X074103Y006311D01*
X074058Y006321D01*
X074015Y006334D01*
X073973Y006352D01*
X073933Y006373D01*
X073895Y006397D01*
X073859Y006425D01*
X073825Y006455D01*
X073795Y006489D01*
X073767Y006525D01*
X073743Y006563D01*
X073722Y006603D01*
X073704Y006645D01*
X073691Y006688D01*
X073681Y006733D01*
X073675Y006778D01*
X073673Y006823D01*
X066293Y002283D02*
X066293Y001183D01*
X064793Y001183D01*
X064793Y002283D01*
X066293Y002283D01*
X065880Y001914D02*
X065520Y001553D01*
X065610Y001463D01*
X065790Y001463D01*
X065880Y001553D01*
X065880Y001914D01*
X065790Y002004D01*
X065610Y002004D01*
X065520Y001914D01*
X065520Y001553D01*
X065328Y001463D02*
X064968Y001463D01*
X065148Y001463D02*
X065148Y002004D01*
X064968Y001824D01*
X064543Y003733D02*
X064545Y003780D01*
X064551Y003826D01*
X064561Y003872D01*
X064574Y003916D01*
X064592Y003960D01*
X064613Y004001D01*
X064637Y004041D01*
X064665Y004079D01*
X064696Y004114D01*
X064730Y004146D01*
X064766Y004175D01*
X064805Y004201D01*
X064845Y004224D01*
X064888Y004243D01*
X064932Y004259D01*
X064977Y004271D01*
X065023Y004279D01*
X065070Y004283D01*
X065116Y004283D01*
X065163Y004279D01*
X065209Y004271D01*
X065254Y004259D01*
X065298Y004243D01*
X065341Y004224D01*
X065381Y004201D01*
X065420Y004175D01*
X065456Y004146D01*
X065490Y004114D01*
X065521Y004079D01*
X065549Y004041D01*
X065573Y004001D01*
X065594Y003960D01*
X065612Y003916D01*
X065625Y003872D01*
X065635Y003826D01*
X065641Y003780D01*
X065643Y003733D01*
X065641Y003686D01*
X065635Y003640D01*
X065625Y003594D01*
X065612Y003550D01*
X065594Y003506D01*
X065573Y003465D01*
X065549Y003425D01*
X065521Y003387D01*
X065490Y003352D01*
X065456Y003320D01*
X065420Y003291D01*
X065381Y003265D01*
X065341Y003242D01*
X065298Y003223D01*
X065254Y003207D01*
X065209Y003195D01*
X065163Y003187D01*
X065116Y003183D01*
X065070Y003183D01*
X065023Y003187D01*
X064977Y003195D01*
X064932Y003207D01*
X064888Y003223D01*
X064845Y003242D01*
X064805Y003265D01*
X064766Y003291D01*
X064730Y003320D01*
X064696Y003352D01*
X064665Y003387D01*
X064637Y003425D01*
X064613Y003465D01*
X064592Y003506D01*
X064574Y003550D01*
X064561Y003594D01*
X064551Y003640D01*
X064545Y003686D01*
X064543Y003733D01*
X020413Y026693D02*
X020413Y027193D01*
X020163Y027443D01*
X020413Y027693D01*
X020413Y028193D01*
X020163Y028443D01*
X020413Y028693D01*
X020413Y029193D01*
X020163Y029443D01*
X019663Y029443D01*
X019413Y029193D01*
X019413Y028693D01*
X019663Y028443D01*
X020163Y028443D01*
X019663Y028443D02*
X019413Y028193D01*
X019413Y027693D01*
X019663Y027443D01*
X020163Y027443D01*
X019663Y027443D02*
X019413Y027193D01*
X019413Y026693D01*
X019663Y026443D01*
X020163Y026443D01*
X020413Y026693D01*
X003303Y040763D02*
X003303Y041263D01*
X003053Y041513D01*
X003303Y041763D01*
X003303Y042263D01*
X003053Y042513D01*
X003303Y042763D01*
X003303Y043263D01*
X003053Y043513D01*
X002553Y043513D01*
X002303Y043263D01*
X002303Y042763D01*
X002553Y042513D01*
X003053Y042513D01*
X002553Y042513D02*
X002303Y042263D01*
X002303Y041763D01*
X002553Y041513D01*
X003053Y041513D01*
X002553Y041513D02*
X002303Y041263D01*
X002303Y040763D01*
X002553Y040513D01*
X003053Y040513D01*
X003303Y040763D01*
X006553Y046013D02*
X006303Y046263D01*
X006303Y046763D01*
X006553Y047013D01*
X006303Y047263D01*
X006303Y047763D01*
X006553Y048013D01*
X006303Y048263D01*
X006303Y048763D01*
X006553Y049013D01*
X007053Y049013D01*
X007303Y048763D01*
X007303Y048263D01*
X007053Y048013D01*
X007303Y047763D01*
X007303Y047263D01*
X007053Y047013D01*
X007303Y046763D01*
X007303Y046263D01*
X007053Y046013D01*
X006553Y046013D01*
X006553Y047013D02*
X007053Y047013D01*
X007053Y048013D02*
X006553Y048013D01*
X003483Y049303D02*
X003233Y049053D01*
X002733Y049053D01*
X002483Y049303D01*
X002483Y049803D01*
X002733Y050053D01*
X002483Y050303D01*
X002483Y050803D01*
X002733Y051053D01*
X003233Y051053D01*
X003483Y050803D01*
X003483Y050303D01*
X003233Y050053D01*
X003483Y049803D01*
X003483Y049303D01*
X003233Y050053D02*
X002733Y050053D01*
X005923Y054563D02*
X005923Y054990D01*
X006136Y055204D01*
X006350Y054990D01*
X006350Y054563D01*
X006567Y054563D02*
X006567Y054990D01*
X006567Y054777D02*
X006781Y054990D01*
X006887Y054990D01*
X007104Y054884D02*
X007211Y054990D01*
X007424Y054990D01*
X007531Y054884D01*
X007531Y054777D01*
X007104Y054777D01*
X007104Y054670D02*
X007104Y054884D01*
X007104Y054670D02*
X007211Y054563D01*
X007424Y054563D01*
X007749Y054563D02*
X007749Y054990D01*
X008069Y054990D01*
X008176Y054884D01*
X008176Y054563D01*
X008393Y054670D02*
X008500Y054777D01*
X008820Y054777D01*
X008820Y054884D02*
X008820Y054563D01*
X008500Y054563D01*
X008393Y054670D01*
X008500Y054990D02*
X008714Y054990D01*
X008820Y054884D01*
X009038Y054884D02*
X009145Y054990D01*
X009465Y054990D01*
X009358Y054777D02*
X009145Y054777D01*
X009038Y054884D01*
X009038Y054563D02*
X009358Y054563D01*
X009465Y054670D01*
X009358Y054777D01*
X010327Y054990D02*
X010540Y055204D01*
X010540Y054563D01*
X010327Y054563D02*
X010754Y054563D01*
X010971Y054563D02*
X010971Y054670D01*
X011399Y055097D01*
X011399Y055204D01*
X010971Y055204D01*
X011616Y054884D02*
X012043Y054884D01*
X012261Y055097D02*
X012367Y055204D01*
X012581Y055204D01*
X012688Y055097D01*
X012688Y054990D01*
X012261Y054563D01*
X012688Y054563D01*
X012905Y054670D02*
X013332Y055097D01*
X013332Y054670D01*
X013225Y054563D01*
X013012Y054563D01*
X012905Y054670D01*
X012905Y055097D01*
X013012Y055204D01*
X013225Y055204D01*
X013332Y055097D01*
X013693Y056283D02*
X012893Y056283D01*
X012893Y056333D01*
X011693Y056333D01*
X011193Y056333D01*
X010743Y056333D01*
X011193Y056333D02*
X011193Y058133D01*
X010743Y058133D01*
X009243Y058133D01*
X005593Y058133D01*
X005593Y056333D01*
X005093Y056333D01*
X005093Y057883D01*
X004093Y058533D01*
X003093Y057883D01*
X003093Y056283D01*
X003893Y056283D01*
X003893Y056333D01*
X005093Y056333D01*
X005593Y056333D02*
X006043Y056333D01*
X006743Y056333D02*
X007043Y056333D01*
X007743Y056333D02*
X008043Y056333D01*
X008743Y056333D02*
X009043Y056333D01*
X009743Y056333D02*
X010043Y056333D01*
X011693Y056333D02*
X011693Y057883D01*
X012693Y058533D01*
X013693Y057883D01*
X013693Y056283D01*
X014593Y056283D01*
X014693Y056383D01*
X014693Y060333D01*
X013813Y062973D01*
X013811Y062973D02*
X013801Y063000D01*
X013787Y063026D01*
X013770Y063049D01*
X013750Y063070D01*
X013728Y063089D01*
X013703Y063104D01*
X013677Y063117D01*
X013649Y063126D01*
X013621Y063131D01*
X013592Y063133D01*
X013593Y063133D02*
X011893Y063133D01*
X011653Y062954D02*
X011650Y062944D01*
X011653Y062953D02*
X011403Y061993D01*
X011411Y062017D02*
X011404Y061986D01*
X011395Y061955D01*
X011381Y061925D01*
X011364Y061898D01*
X011344Y061873D01*
X011321Y061850D01*
X011295Y061830D01*
X011268Y061813D01*
X011238Y061800D01*
X011207Y061791D01*
X011175Y061785D01*
X011143Y061783D01*
X010743Y061783D01*
X010743Y058933D01*
X010743Y058133D01*
X010743Y058933D02*
X010193Y058933D01*
X010193Y059233D01*
X009593Y059233D01*
X009593Y058933D01*
X009243Y058933D01*
X009243Y058833D01*
X009243Y058133D01*
X009243Y058833D02*
X007543Y058833D01*
X007543Y059233D01*
X009243Y059233D01*
X009243Y058933D01*
X009243Y059233D02*
X009243Y061783D01*
X010743Y061783D01*
X010293Y061783D02*
X010293Y061383D01*
X009493Y061383D01*
X009493Y061783D01*
X009243Y061783D02*
X007543Y061783D01*
X007543Y059233D01*
X009593Y059233D02*
X009593Y059833D01*
X009595Y059867D01*
X009601Y059900D01*
X009610Y059932D01*
X009623Y059963D01*
X009639Y059993D01*
X009658Y060020D01*
X009681Y060045D01*
X009706Y060068D01*
X009733Y060087D01*
X009763Y060103D01*
X009794Y060116D01*
X009826Y060125D01*
X009859Y060131D01*
X009893Y060133D01*
X009927Y060131D01*
X009960Y060125D01*
X009992Y060116D01*
X010023Y060103D01*
X010053Y060087D01*
X010080Y060068D01*
X010105Y060045D01*
X010128Y060020D01*
X010147Y059993D01*
X010163Y059963D01*
X010176Y059932D01*
X010185Y059900D01*
X010191Y059867D01*
X010193Y059833D01*
X010193Y059233D01*
X012173Y057243D02*
X012175Y057288D01*
X012181Y057333D01*
X012191Y057378D01*
X012204Y057421D01*
X012222Y057463D01*
X012243Y057503D01*
X012267Y057541D01*
X012295Y057577D01*
X012325Y057611D01*
X012359Y057641D01*
X012395Y057669D01*
X012433Y057693D01*
X012473Y057714D01*
X012515Y057732D01*
X012558Y057745D01*
X012603Y057755D01*
X012648Y057761D01*
X012693Y057763D01*
X012738Y057761D01*
X012783Y057755D01*
X012828Y057745D01*
X012871Y057732D01*
X012913Y057714D01*
X012953Y057693D01*
X012991Y057669D01*
X013027Y057641D01*
X013061Y057611D01*
X013091Y057577D01*
X013119Y057541D01*
X013143Y057503D01*
X013164Y057463D01*
X013182Y057421D01*
X013195Y057378D01*
X013205Y057333D01*
X013211Y057288D01*
X013213Y057243D01*
X013211Y057198D01*
X013205Y057153D01*
X013195Y057108D01*
X013182Y057065D01*
X013164Y057023D01*
X013143Y056983D01*
X013119Y056945D01*
X013091Y056909D01*
X013061Y056875D01*
X013027Y056845D01*
X012991Y056817D01*
X012953Y056793D01*
X012913Y056772D01*
X012871Y056754D01*
X012828Y056741D01*
X012783Y056731D01*
X012738Y056725D01*
X012693Y056723D01*
X012648Y056725D01*
X012603Y056731D01*
X012558Y056741D01*
X012515Y056754D01*
X012473Y056772D01*
X012433Y056793D01*
X012395Y056817D01*
X012359Y056845D01*
X012325Y056875D01*
X012295Y056909D01*
X012267Y056945D01*
X012243Y056983D01*
X012222Y057023D01*
X012204Y057065D01*
X012191Y057108D01*
X012181Y057153D01*
X012175Y057198D01*
X012173Y057243D01*
X012643Y060333D02*
X012645Y060380D01*
X012651Y060426D01*
X012661Y060472D01*
X012674Y060516D01*
X012692Y060560D01*
X012713Y060601D01*
X012737Y060641D01*
X012765Y060679D01*
X012796Y060714D01*
X012830Y060746D01*
X012866Y060775D01*
X012905Y060801D01*
X012945Y060824D01*
X012988Y060843D01*
X013032Y060859D01*
X013077Y060871D01*
X013123Y060879D01*
X013170Y060883D01*
X013216Y060883D01*
X013263Y060879D01*
X013309Y060871D01*
X013354Y060859D01*
X013398Y060843D01*
X013441Y060824D01*
X013481Y060801D01*
X013520Y060775D01*
X013556Y060746D01*
X013590Y060714D01*
X013621Y060679D01*
X013649Y060641D01*
X013673Y060601D01*
X013694Y060560D01*
X013712Y060516D01*
X013725Y060472D01*
X013735Y060426D01*
X013741Y060380D01*
X013743Y060333D01*
X013741Y060286D01*
X013735Y060240D01*
X013725Y060194D01*
X013712Y060150D01*
X013694Y060106D01*
X013673Y060065D01*
X013649Y060025D01*
X013621Y059987D01*
X013590Y059952D01*
X013556Y059920D01*
X013520Y059891D01*
X013481Y059865D01*
X013441Y059842D01*
X013398Y059823D01*
X013354Y059807D01*
X013309Y059795D01*
X013263Y059787D01*
X013216Y059783D01*
X013170Y059783D01*
X013123Y059787D01*
X013077Y059795D01*
X013032Y059807D01*
X012988Y059823D01*
X012945Y059842D01*
X012905Y059865D01*
X012866Y059891D01*
X012830Y059920D01*
X012796Y059952D01*
X012765Y059987D01*
X012737Y060025D01*
X012713Y060065D01*
X012692Y060106D01*
X012674Y060150D01*
X012661Y060194D01*
X012651Y060240D01*
X012645Y060286D01*
X012643Y060333D01*
X011993Y061783D02*
X013493Y061783D01*
X013493Y062883D01*
X011993Y062883D01*
X011993Y061783D01*
X012273Y062063D02*
X012633Y062063D01*
X012453Y062063D02*
X012453Y062604D01*
X012273Y062424D01*
X012825Y062514D02*
X012915Y062604D01*
X013095Y062604D01*
X013185Y062514D01*
X012825Y062153D01*
X012915Y062063D01*
X013095Y062063D01*
X013185Y062153D01*
X013185Y062514D01*
X012825Y062514D02*
X012825Y062153D01*
X011893Y063133D02*
X011864Y063131D01*
X011835Y063126D01*
X011807Y063118D01*
X011780Y063106D01*
X011755Y063091D01*
X011732Y063074D01*
X011710Y063054D01*
X011692Y063031D01*
X011676Y063007D01*
X011663Y062981D01*
X011653Y062953D01*
X007543Y061783D02*
X005643Y061783D01*
X005611Y061785D01*
X005579Y061791D01*
X005548Y061800D01*
X005518Y061813D01*
X005491Y061830D01*
X005465Y061850D01*
X005442Y061873D01*
X005422Y061898D01*
X005405Y061925D01*
X005391Y061955D01*
X005382Y061986D01*
X005375Y062017D01*
X005383Y061993D02*
X005133Y062953D01*
X005133Y062954D02*
X005136Y062944D01*
X005133Y062953D02*
X005123Y062981D01*
X005110Y063007D01*
X005094Y063031D01*
X005076Y063054D01*
X005054Y063074D01*
X005031Y063091D01*
X005006Y063106D01*
X004979Y063118D01*
X004951Y063126D01*
X004922Y063131D01*
X004893Y063133D01*
X003193Y063133D01*
X003164Y063131D01*
X003136Y063126D01*
X003108Y063117D01*
X003082Y063104D01*
X003057Y063089D01*
X003035Y063070D01*
X003015Y063049D01*
X002998Y063026D01*
X002984Y063000D01*
X002974Y062973D01*
X002973Y062973D02*
X002093Y060333D01*
X002093Y056383D01*
X002193Y056283D01*
X003093Y056283D01*
X003573Y057243D02*
X003575Y057288D01*
X003581Y057333D01*
X003591Y057378D01*
X003604Y057421D01*
X003622Y057463D01*
X003643Y057503D01*
X003667Y057541D01*
X003695Y057577D01*
X003725Y057611D01*
X003759Y057641D01*
X003795Y057669D01*
X003833Y057693D01*
X003873Y057714D01*
X003915Y057732D01*
X003958Y057745D01*
X004003Y057755D01*
X004048Y057761D01*
X004093Y057763D01*
X004138Y057761D01*
X004183Y057755D01*
X004228Y057745D01*
X004271Y057732D01*
X004313Y057714D01*
X004353Y057693D01*
X004391Y057669D01*
X004427Y057641D01*
X004461Y057611D01*
X004491Y057577D01*
X004519Y057541D01*
X004543Y057503D01*
X004564Y057463D01*
X004582Y057421D01*
X004595Y057378D01*
X004605Y057333D01*
X004611Y057288D01*
X004613Y057243D01*
X004611Y057198D01*
X004605Y057153D01*
X004595Y057108D01*
X004582Y057065D01*
X004564Y057023D01*
X004543Y056983D01*
X004519Y056945D01*
X004491Y056909D01*
X004461Y056875D01*
X004427Y056845D01*
X004391Y056817D01*
X004353Y056793D01*
X004313Y056772D01*
X004271Y056754D01*
X004228Y056741D01*
X004183Y056731D01*
X004138Y056725D01*
X004093Y056723D01*
X004048Y056725D01*
X004003Y056731D01*
X003958Y056741D01*
X003915Y056754D01*
X003873Y056772D01*
X003833Y056793D01*
X003795Y056817D01*
X003759Y056845D01*
X003725Y056875D01*
X003695Y056909D01*
X003667Y056945D01*
X003643Y056983D01*
X003622Y057023D01*
X003604Y057065D01*
X003591Y057108D01*
X003581Y057153D01*
X003575Y057198D01*
X003573Y057243D01*
X005923Y054884D02*
X006350Y054884D01*
X003043Y060333D02*
X003045Y060380D01*
X003051Y060426D01*
X003061Y060472D01*
X003074Y060516D01*
X003092Y060560D01*
X003113Y060601D01*
X003137Y060641D01*
X003165Y060679D01*
X003196Y060714D01*
X003230Y060746D01*
X003266Y060775D01*
X003305Y060801D01*
X003345Y060824D01*
X003388Y060843D01*
X003432Y060859D01*
X003477Y060871D01*
X003523Y060879D01*
X003570Y060883D01*
X003616Y060883D01*
X003663Y060879D01*
X003709Y060871D01*
X003754Y060859D01*
X003798Y060843D01*
X003841Y060824D01*
X003881Y060801D01*
X003920Y060775D01*
X003956Y060746D01*
X003990Y060714D01*
X004021Y060679D01*
X004049Y060641D01*
X004073Y060601D01*
X004094Y060560D01*
X004112Y060516D01*
X004125Y060472D01*
X004135Y060426D01*
X004141Y060380D01*
X004143Y060333D01*
X004141Y060286D01*
X004135Y060240D01*
X004125Y060194D01*
X004112Y060150D01*
X004094Y060106D01*
X004073Y060065D01*
X004049Y060025D01*
X004021Y059987D01*
X003990Y059952D01*
X003956Y059920D01*
X003920Y059891D01*
X003881Y059865D01*
X003841Y059842D01*
X003798Y059823D01*
X003754Y059807D01*
X003709Y059795D01*
X003663Y059787D01*
X003616Y059783D01*
X003570Y059783D01*
X003523Y059787D01*
X003477Y059795D01*
X003432Y059807D01*
X003388Y059823D01*
X003345Y059842D01*
X003305Y059865D01*
X003266Y059891D01*
X003230Y059920D01*
X003196Y059952D01*
X003165Y059987D01*
X003137Y060025D01*
X003113Y060065D01*
X003092Y060106D01*
X003074Y060150D01*
X003061Y060194D01*
X003051Y060240D01*
X003045Y060286D01*
X003043Y060333D01*
X022600Y060333D02*
X022600Y056383D01*
X022700Y056283D01*
X023600Y056283D01*
X024400Y056283D01*
X024400Y056333D01*
X025600Y056333D01*
X026100Y056333D01*
X026550Y056333D01*
X026100Y056333D02*
X026100Y058133D01*
X029750Y058133D01*
X031250Y058133D01*
X031700Y058133D01*
X031700Y056333D01*
X032200Y056333D01*
X032200Y057883D01*
X033200Y058533D01*
X034200Y057883D01*
X034200Y056283D01*
X033400Y056283D01*
X033400Y056333D01*
X032200Y056333D01*
X031700Y056333D02*
X031250Y056333D01*
X030550Y056333D02*
X030250Y056333D01*
X029550Y056333D02*
X029250Y056333D01*
X028550Y056333D02*
X028250Y056333D01*
X027550Y056333D02*
X027250Y056333D01*
X027211Y054990D02*
X027424Y054990D01*
X027531Y054884D01*
X027531Y054777D01*
X027104Y054777D01*
X027104Y054884D02*
X027211Y054990D01*
X027104Y054884D02*
X027104Y054670D01*
X027211Y054563D01*
X027424Y054563D01*
X027749Y054563D02*
X027749Y054990D01*
X028069Y054990D01*
X028176Y054884D01*
X028176Y054563D01*
X028393Y054670D02*
X028500Y054777D01*
X028820Y054777D01*
X028820Y054884D02*
X028820Y054563D01*
X028500Y054563D01*
X028393Y054670D01*
X028500Y054990D02*
X028714Y054990D01*
X028820Y054884D01*
X029038Y054884D02*
X029145Y054990D01*
X029465Y054990D01*
X029358Y054777D02*
X029145Y054777D01*
X029038Y054884D01*
X029038Y054563D02*
X029358Y054563D01*
X029465Y054670D01*
X029358Y054777D01*
X030327Y054563D02*
X030754Y054990D01*
X030754Y055097D01*
X030647Y055204D01*
X030434Y055204D01*
X030327Y055097D01*
X030327Y054563D02*
X030754Y054563D01*
X030971Y054563D02*
X031399Y054563D01*
X031185Y054563D02*
X031185Y055204D01*
X030971Y054990D01*
X031616Y054884D02*
X032043Y054884D01*
X032261Y055097D02*
X032367Y055204D01*
X032581Y055204D01*
X032688Y055097D01*
X032688Y054990D01*
X032261Y054563D01*
X032688Y054563D01*
X032905Y054884D02*
X033332Y054884D01*
X033225Y055204D02*
X033225Y054563D01*
X032905Y054884D02*
X033225Y055204D01*
X034200Y056283D02*
X035100Y056283D01*
X035200Y056383D01*
X035200Y060333D01*
X034320Y062973D01*
X034318Y062973D02*
X034308Y063000D01*
X034294Y063026D01*
X034277Y063049D01*
X034257Y063070D01*
X034235Y063089D01*
X034210Y063104D01*
X034184Y063117D01*
X034156Y063126D01*
X034128Y063131D01*
X034099Y063133D01*
X034100Y063133D02*
X032400Y063133D01*
X032160Y062954D02*
X032157Y062944D01*
X032160Y062953D02*
X031910Y061993D01*
X031918Y062017D02*
X031911Y061986D01*
X031902Y061955D01*
X031888Y061925D01*
X031871Y061898D01*
X031851Y061873D01*
X031828Y061850D01*
X031802Y061830D01*
X031775Y061813D01*
X031745Y061800D01*
X031714Y061791D01*
X031682Y061785D01*
X031650Y061783D01*
X031250Y061783D01*
X031250Y058933D01*
X031250Y058133D01*
X031250Y058933D02*
X030700Y058933D01*
X030700Y059233D01*
X030100Y059233D01*
X030100Y058933D01*
X029750Y058933D01*
X029750Y058833D01*
X029750Y058133D01*
X029750Y058833D02*
X028050Y058833D01*
X028050Y059233D01*
X029750Y059233D01*
X029750Y058933D01*
X029750Y059233D02*
X029750Y061783D01*
X031250Y061783D01*
X030800Y061783D02*
X030800Y061383D01*
X030000Y061383D01*
X030000Y061783D01*
X029750Y061783D02*
X028050Y061783D01*
X028050Y059233D01*
X030100Y059233D02*
X030100Y059833D01*
X030102Y059867D01*
X030108Y059900D01*
X030117Y059932D01*
X030130Y059963D01*
X030146Y059993D01*
X030165Y060020D01*
X030188Y060045D01*
X030213Y060068D01*
X030240Y060087D01*
X030270Y060103D01*
X030301Y060116D01*
X030333Y060125D01*
X030366Y060131D01*
X030400Y060133D01*
X030434Y060131D01*
X030467Y060125D01*
X030499Y060116D01*
X030530Y060103D01*
X030560Y060087D01*
X030587Y060068D01*
X030612Y060045D01*
X030635Y060020D01*
X030654Y059993D01*
X030670Y059963D01*
X030683Y059932D01*
X030692Y059900D01*
X030698Y059867D01*
X030700Y059833D01*
X030700Y059233D01*
X032500Y061783D02*
X034000Y061783D01*
X034000Y062883D01*
X032500Y062883D01*
X032500Y061783D01*
X032780Y062063D02*
X033140Y062063D01*
X032960Y062063D02*
X032960Y062604D01*
X032780Y062424D01*
X033332Y062514D02*
X033422Y062604D01*
X033602Y062604D01*
X033692Y062514D01*
X033332Y062153D01*
X033422Y062063D01*
X033602Y062063D01*
X033692Y062153D01*
X033692Y062514D01*
X033332Y062514D02*
X033332Y062153D01*
X032400Y063133D02*
X032371Y063131D01*
X032342Y063126D01*
X032314Y063118D01*
X032287Y063106D01*
X032262Y063091D01*
X032239Y063074D01*
X032217Y063054D01*
X032199Y063031D01*
X032183Y063007D01*
X032170Y062981D01*
X032160Y062953D01*
X033150Y060333D02*
X033152Y060380D01*
X033158Y060426D01*
X033168Y060472D01*
X033181Y060516D01*
X033199Y060560D01*
X033220Y060601D01*
X033244Y060641D01*
X033272Y060679D01*
X033303Y060714D01*
X033337Y060746D01*
X033373Y060775D01*
X033412Y060801D01*
X033452Y060824D01*
X033495Y060843D01*
X033539Y060859D01*
X033584Y060871D01*
X033630Y060879D01*
X033677Y060883D01*
X033723Y060883D01*
X033770Y060879D01*
X033816Y060871D01*
X033861Y060859D01*
X033905Y060843D01*
X033948Y060824D01*
X033988Y060801D01*
X034027Y060775D01*
X034063Y060746D01*
X034097Y060714D01*
X034128Y060679D01*
X034156Y060641D01*
X034180Y060601D01*
X034201Y060560D01*
X034219Y060516D01*
X034232Y060472D01*
X034242Y060426D01*
X034248Y060380D01*
X034250Y060333D01*
X034248Y060286D01*
X034242Y060240D01*
X034232Y060194D01*
X034219Y060150D01*
X034201Y060106D01*
X034180Y060065D01*
X034156Y060025D01*
X034128Y059987D01*
X034097Y059952D01*
X034063Y059920D01*
X034027Y059891D01*
X033988Y059865D01*
X033948Y059842D01*
X033905Y059823D01*
X033861Y059807D01*
X033816Y059795D01*
X033770Y059787D01*
X033723Y059783D01*
X033677Y059783D01*
X033630Y059787D01*
X033584Y059795D01*
X033539Y059807D01*
X033495Y059823D01*
X033452Y059842D01*
X033412Y059865D01*
X033373Y059891D01*
X033337Y059920D01*
X033303Y059952D01*
X033272Y059987D01*
X033244Y060025D01*
X033220Y060065D01*
X033199Y060106D01*
X033181Y060150D01*
X033168Y060194D01*
X033158Y060240D01*
X033152Y060286D01*
X033150Y060333D01*
X032680Y057243D02*
X032682Y057288D01*
X032688Y057333D01*
X032698Y057378D01*
X032711Y057421D01*
X032729Y057463D01*
X032750Y057503D01*
X032774Y057541D01*
X032802Y057577D01*
X032832Y057611D01*
X032866Y057641D01*
X032902Y057669D01*
X032940Y057693D01*
X032980Y057714D01*
X033022Y057732D01*
X033065Y057745D01*
X033110Y057755D01*
X033155Y057761D01*
X033200Y057763D01*
X033245Y057761D01*
X033290Y057755D01*
X033335Y057745D01*
X033378Y057732D01*
X033420Y057714D01*
X033460Y057693D01*
X033498Y057669D01*
X033534Y057641D01*
X033568Y057611D01*
X033598Y057577D01*
X033626Y057541D01*
X033650Y057503D01*
X033671Y057463D01*
X033689Y057421D01*
X033702Y057378D01*
X033712Y057333D01*
X033718Y057288D01*
X033720Y057243D01*
X033718Y057198D01*
X033712Y057153D01*
X033702Y057108D01*
X033689Y057065D01*
X033671Y057023D01*
X033650Y056983D01*
X033626Y056945D01*
X033598Y056909D01*
X033568Y056875D01*
X033534Y056845D01*
X033498Y056817D01*
X033460Y056793D01*
X033420Y056772D01*
X033378Y056754D01*
X033335Y056741D01*
X033290Y056731D01*
X033245Y056725D01*
X033200Y056723D01*
X033155Y056725D01*
X033110Y056731D01*
X033065Y056741D01*
X033022Y056754D01*
X032980Y056772D01*
X032940Y056793D01*
X032902Y056817D01*
X032866Y056845D01*
X032832Y056875D01*
X032802Y056909D01*
X032774Y056945D01*
X032750Y056983D01*
X032729Y057023D01*
X032711Y057065D01*
X032698Y057108D01*
X032688Y057153D01*
X032682Y057198D01*
X032680Y057243D01*
X028050Y061783D02*
X026150Y061783D01*
X026118Y061785D01*
X026086Y061791D01*
X026055Y061800D01*
X026025Y061813D01*
X025998Y061830D01*
X025972Y061850D01*
X025949Y061873D01*
X025929Y061898D01*
X025912Y061925D01*
X025898Y061955D01*
X025889Y061986D01*
X025882Y062017D01*
X025890Y061993D02*
X025640Y062953D01*
X025640Y062954D02*
X025643Y062944D01*
X025640Y062953D02*
X025630Y062981D01*
X025617Y063007D01*
X025601Y063031D01*
X025583Y063054D01*
X025561Y063074D01*
X025538Y063091D01*
X025513Y063106D01*
X025486Y063118D01*
X025458Y063126D01*
X025429Y063131D01*
X025400Y063133D01*
X023700Y063133D01*
X023671Y063131D01*
X023643Y063126D01*
X023615Y063117D01*
X023589Y063104D01*
X023564Y063089D01*
X023542Y063070D01*
X023522Y063049D01*
X023505Y063026D01*
X023491Y063000D01*
X023481Y062973D01*
X023480Y062973D02*
X022600Y060333D01*
X023550Y060333D02*
X023552Y060380D01*
X023558Y060426D01*
X023568Y060472D01*
X023581Y060516D01*
X023599Y060560D01*
X023620Y060601D01*
X023644Y060641D01*
X023672Y060679D01*
X023703Y060714D01*
X023737Y060746D01*
X023773Y060775D01*
X023812Y060801D01*
X023852Y060824D01*
X023895Y060843D01*
X023939Y060859D01*
X023984Y060871D01*
X024030Y060879D01*
X024077Y060883D01*
X024123Y060883D01*
X024170Y060879D01*
X024216Y060871D01*
X024261Y060859D01*
X024305Y060843D01*
X024348Y060824D01*
X024388Y060801D01*
X024427Y060775D01*
X024463Y060746D01*
X024497Y060714D01*
X024528Y060679D01*
X024556Y060641D01*
X024580Y060601D01*
X024601Y060560D01*
X024619Y060516D01*
X024632Y060472D01*
X024642Y060426D01*
X024648Y060380D01*
X024650Y060333D01*
X024648Y060286D01*
X024642Y060240D01*
X024632Y060194D01*
X024619Y060150D01*
X024601Y060106D01*
X024580Y060065D01*
X024556Y060025D01*
X024528Y059987D01*
X024497Y059952D01*
X024463Y059920D01*
X024427Y059891D01*
X024388Y059865D01*
X024348Y059842D01*
X024305Y059823D01*
X024261Y059807D01*
X024216Y059795D01*
X024170Y059787D01*
X024123Y059783D01*
X024077Y059783D01*
X024030Y059787D01*
X023984Y059795D01*
X023939Y059807D01*
X023895Y059823D01*
X023852Y059842D01*
X023812Y059865D01*
X023773Y059891D01*
X023737Y059920D01*
X023703Y059952D01*
X023672Y059987D01*
X023644Y060025D01*
X023620Y060065D01*
X023599Y060106D01*
X023581Y060150D01*
X023568Y060194D01*
X023558Y060240D01*
X023552Y060286D01*
X023550Y060333D01*
X024600Y058533D02*
X025600Y057883D01*
X025600Y056333D01*
X026136Y055204D02*
X026350Y054990D01*
X026350Y054563D01*
X026567Y054563D02*
X026567Y054990D01*
X026567Y054777D02*
X026781Y054990D01*
X026887Y054990D01*
X026350Y054884D02*
X025923Y054884D01*
X025923Y054990D02*
X026136Y055204D01*
X025923Y054990D02*
X025923Y054563D01*
X023600Y056283D02*
X023600Y057883D01*
X024600Y058533D01*
X024080Y057243D02*
X024082Y057288D01*
X024088Y057333D01*
X024098Y057378D01*
X024111Y057421D01*
X024129Y057463D01*
X024150Y057503D01*
X024174Y057541D01*
X024202Y057577D01*
X024232Y057611D01*
X024266Y057641D01*
X024302Y057669D01*
X024340Y057693D01*
X024380Y057714D01*
X024422Y057732D01*
X024465Y057745D01*
X024510Y057755D01*
X024555Y057761D01*
X024600Y057763D01*
X024645Y057761D01*
X024690Y057755D01*
X024735Y057745D01*
X024778Y057732D01*
X024820Y057714D01*
X024860Y057693D01*
X024898Y057669D01*
X024934Y057641D01*
X024968Y057611D01*
X024998Y057577D01*
X025026Y057541D01*
X025050Y057503D01*
X025071Y057463D01*
X025089Y057421D01*
X025102Y057378D01*
X025112Y057333D01*
X025118Y057288D01*
X025120Y057243D01*
X025118Y057198D01*
X025112Y057153D01*
X025102Y057108D01*
X025089Y057065D01*
X025071Y057023D01*
X025050Y056983D01*
X025026Y056945D01*
X024998Y056909D01*
X024968Y056875D01*
X024934Y056845D01*
X024898Y056817D01*
X024860Y056793D01*
X024820Y056772D01*
X024778Y056754D01*
X024735Y056741D01*
X024690Y056731D01*
X024645Y056725D01*
X024600Y056723D01*
X024555Y056725D01*
X024510Y056731D01*
X024465Y056741D01*
X024422Y056754D01*
X024380Y056772D01*
X024340Y056793D01*
X024302Y056817D01*
X024266Y056845D01*
X024232Y056875D01*
X024202Y056909D01*
X024174Y056945D01*
X024150Y056983D01*
X024129Y057023D01*
X024111Y057065D01*
X024098Y057108D01*
X024088Y057153D01*
X024082Y057198D01*
X024080Y057243D01*
X024143Y048860D02*
X023643Y048860D01*
X023393Y048610D01*
X023143Y048860D01*
X022643Y048860D01*
X022393Y048610D01*
X022393Y048110D01*
X022643Y047860D01*
X023143Y047860D01*
X023393Y048110D01*
X023393Y048610D01*
X023393Y048110D02*
X023643Y047860D01*
X024143Y047860D01*
X024393Y048110D01*
X024393Y048610D01*
X024143Y048860D01*
X025483Y048610D02*
X025733Y048860D01*
X026233Y048860D01*
X026483Y048610D01*
X026733Y048860D01*
X027233Y048860D01*
X027483Y048610D01*
X027483Y048110D01*
X027233Y047860D01*
X026733Y047860D01*
X026483Y048110D01*
X026233Y047860D01*
X025733Y047860D01*
X025483Y048110D01*
X025483Y048610D01*
X026483Y048610D02*
X026483Y048110D01*
X043093Y056383D02*
X043193Y056283D01*
X044093Y056283D01*
X044893Y056283D01*
X044893Y056333D01*
X046093Y056333D01*
X046593Y056333D01*
X047043Y056333D01*
X046593Y056333D02*
X046593Y058133D01*
X050243Y058133D01*
X051743Y058133D01*
X052193Y058133D01*
X052193Y056333D01*
X052693Y056333D01*
X052693Y057883D01*
X053693Y058533D01*
X054693Y057883D01*
X054693Y056283D01*
X053893Y056283D01*
X053893Y056333D01*
X052693Y056333D01*
X052193Y056333D02*
X051743Y056333D01*
X051043Y056333D02*
X050743Y056333D01*
X050043Y056333D02*
X049743Y056333D01*
X049043Y056333D02*
X048743Y056333D01*
X048043Y056333D02*
X047743Y056333D01*
X047749Y054990D02*
X048069Y054990D01*
X048176Y054884D01*
X048176Y054563D01*
X048393Y054670D02*
X048500Y054777D01*
X048820Y054777D01*
X048820Y054884D02*
X048820Y054563D01*
X048500Y054563D01*
X048393Y054670D01*
X048500Y054990D02*
X048714Y054990D01*
X048820Y054884D01*
X049038Y054884D02*
X049145Y054990D01*
X049465Y054990D01*
X049358Y054777D02*
X049145Y054777D01*
X049038Y054884D01*
X049038Y054563D02*
X049358Y054563D01*
X049465Y054670D01*
X049358Y054777D01*
X050327Y054563D02*
X050754Y054990D01*
X050754Y055097D01*
X050647Y055204D01*
X050434Y055204D01*
X050327Y055097D01*
X050327Y054563D02*
X050754Y054563D01*
X050971Y054670D02*
X051078Y054563D01*
X051292Y054563D01*
X051399Y054670D01*
X051399Y054884D01*
X051292Y054990D01*
X051185Y054990D01*
X050971Y054884D01*
X050971Y055204D01*
X051399Y055204D01*
X051616Y054884D02*
X052043Y054884D01*
X052261Y055097D02*
X052367Y055204D01*
X052581Y055204D01*
X052688Y055097D01*
X052688Y054990D01*
X052261Y054563D01*
X052688Y054563D01*
X052905Y054670D02*
X052905Y054777D01*
X053012Y054884D01*
X053225Y054884D01*
X053332Y054777D01*
X053332Y054670D01*
X053225Y054563D01*
X053012Y054563D01*
X052905Y054670D01*
X053012Y054884D02*
X052905Y054990D01*
X052905Y055097D01*
X053012Y055204D01*
X053225Y055204D01*
X053332Y055097D01*
X053332Y054990D01*
X053225Y054884D01*
X054693Y056283D02*
X055593Y056283D01*
X055693Y056383D01*
X055693Y060333D01*
X054813Y062973D01*
X054811Y062973D02*
X054801Y063000D01*
X054787Y063026D01*
X054770Y063049D01*
X054750Y063070D01*
X054728Y063089D01*
X054703Y063104D01*
X054677Y063117D01*
X054649Y063126D01*
X054621Y063131D01*
X054592Y063133D01*
X054593Y063133D02*
X052893Y063133D01*
X052653Y062954D02*
X052650Y062944D01*
X052653Y062953D02*
X052403Y061993D01*
X052411Y062017D02*
X052404Y061986D01*
X052395Y061955D01*
X052381Y061925D01*
X052364Y061898D01*
X052344Y061873D01*
X052321Y061850D01*
X052295Y061830D01*
X052268Y061813D01*
X052238Y061800D01*
X052207Y061791D01*
X052175Y061785D01*
X052143Y061783D01*
X051743Y061783D01*
X051743Y058933D01*
X051743Y058133D01*
X051743Y058933D02*
X051193Y058933D01*
X051193Y059233D01*
X050593Y059233D01*
X050593Y058933D01*
X050243Y058933D01*
X050243Y058833D01*
X050243Y058133D01*
X050243Y058833D02*
X048543Y058833D01*
X048543Y059233D01*
X050243Y059233D01*
X050243Y058933D01*
X050243Y059233D02*
X050243Y061783D01*
X051743Y061783D01*
X051293Y061783D02*
X051293Y061383D01*
X050493Y061383D01*
X050493Y061783D01*
X050243Y061783D02*
X048543Y061783D01*
X048543Y059233D01*
X050593Y059233D02*
X050593Y059833D01*
X050595Y059867D01*
X050601Y059900D01*
X050610Y059932D01*
X050623Y059963D01*
X050639Y059993D01*
X050658Y060020D01*
X050681Y060045D01*
X050706Y060068D01*
X050733Y060087D01*
X050763Y060103D01*
X050794Y060116D01*
X050826Y060125D01*
X050859Y060131D01*
X050893Y060133D01*
X050927Y060131D01*
X050960Y060125D01*
X050992Y060116D01*
X051023Y060103D01*
X051053Y060087D01*
X051080Y060068D01*
X051105Y060045D01*
X051128Y060020D01*
X051147Y059993D01*
X051163Y059963D01*
X051176Y059932D01*
X051185Y059900D01*
X051191Y059867D01*
X051193Y059833D01*
X051193Y059233D01*
X053173Y057243D02*
X053175Y057288D01*
X053181Y057333D01*
X053191Y057378D01*
X053204Y057421D01*
X053222Y057463D01*
X053243Y057503D01*
X053267Y057541D01*
X053295Y057577D01*
X053325Y057611D01*
X053359Y057641D01*
X053395Y057669D01*
X053433Y057693D01*
X053473Y057714D01*
X053515Y057732D01*
X053558Y057745D01*
X053603Y057755D01*
X053648Y057761D01*
X053693Y057763D01*
X053738Y057761D01*
X053783Y057755D01*
X053828Y057745D01*
X053871Y057732D01*
X053913Y057714D01*
X053953Y057693D01*
X053991Y057669D01*
X054027Y057641D01*
X054061Y057611D01*
X054091Y057577D01*
X054119Y057541D01*
X054143Y057503D01*
X054164Y057463D01*
X054182Y057421D01*
X054195Y057378D01*
X054205Y057333D01*
X054211Y057288D01*
X054213Y057243D01*
X054211Y057198D01*
X054205Y057153D01*
X054195Y057108D01*
X054182Y057065D01*
X054164Y057023D01*
X054143Y056983D01*
X054119Y056945D01*
X054091Y056909D01*
X054061Y056875D01*
X054027Y056845D01*
X053991Y056817D01*
X053953Y056793D01*
X053913Y056772D01*
X053871Y056754D01*
X053828Y056741D01*
X053783Y056731D01*
X053738Y056725D01*
X053693Y056723D01*
X053648Y056725D01*
X053603Y056731D01*
X053558Y056741D01*
X053515Y056754D01*
X053473Y056772D01*
X053433Y056793D01*
X053395Y056817D01*
X053359Y056845D01*
X053325Y056875D01*
X053295Y056909D01*
X053267Y056945D01*
X053243Y056983D01*
X053222Y057023D01*
X053204Y057065D01*
X053191Y057108D01*
X053181Y057153D01*
X053175Y057198D01*
X053173Y057243D01*
X053643Y060333D02*
X053645Y060380D01*
X053651Y060426D01*
X053661Y060472D01*
X053674Y060516D01*
X053692Y060560D01*
X053713Y060601D01*
X053737Y060641D01*
X053765Y060679D01*
X053796Y060714D01*
X053830Y060746D01*
X053866Y060775D01*
X053905Y060801D01*
X053945Y060824D01*
X053988Y060843D01*
X054032Y060859D01*
X054077Y060871D01*
X054123Y060879D01*
X054170Y060883D01*
X054216Y060883D01*
X054263Y060879D01*
X054309Y060871D01*
X054354Y060859D01*
X054398Y060843D01*
X054441Y060824D01*
X054481Y060801D01*
X054520Y060775D01*
X054556Y060746D01*
X054590Y060714D01*
X054621Y060679D01*
X054649Y060641D01*
X054673Y060601D01*
X054694Y060560D01*
X054712Y060516D01*
X054725Y060472D01*
X054735Y060426D01*
X054741Y060380D01*
X054743Y060333D01*
X054741Y060286D01*
X054735Y060240D01*
X054725Y060194D01*
X054712Y060150D01*
X054694Y060106D01*
X054673Y060065D01*
X054649Y060025D01*
X054621Y059987D01*
X054590Y059952D01*
X054556Y059920D01*
X054520Y059891D01*
X054481Y059865D01*
X054441Y059842D01*
X054398Y059823D01*
X054354Y059807D01*
X054309Y059795D01*
X054263Y059787D01*
X054216Y059783D01*
X054170Y059783D01*
X054123Y059787D01*
X054077Y059795D01*
X054032Y059807D01*
X053988Y059823D01*
X053945Y059842D01*
X053905Y059865D01*
X053866Y059891D01*
X053830Y059920D01*
X053796Y059952D01*
X053765Y059987D01*
X053737Y060025D01*
X053713Y060065D01*
X053692Y060106D01*
X053674Y060150D01*
X053661Y060194D01*
X053651Y060240D01*
X053645Y060286D01*
X053643Y060333D01*
X052993Y061783D02*
X054493Y061783D01*
X054493Y062883D01*
X052993Y062883D01*
X052993Y061783D01*
X053273Y062063D02*
X053633Y062063D01*
X053453Y062063D02*
X053453Y062604D01*
X053273Y062424D01*
X053825Y062514D02*
X053915Y062604D01*
X054095Y062604D01*
X054185Y062514D01*
X053825Y062153D01*
X053915Y062063D01*
X054095Y062063D01*
X054185Y062153D01*
X054185Y062514D01*
X053825Y062514D02*
X053825Y062153D01*
X052893Y063133D02*
X052864Y063131D01*
X052835Y063126D01*
X052807Y063118D01*
X052780Y063106D01*
X052755Y063091D01*
X052732Y063074D01*
X052710Y063054D01*
X052692Y063031D01*
X052676Y063007D01*
X052663Y062981D01*
X052653Y062953D01*
X048543Y061783D02*
X046643Y061783D01*
X046611Y061785D01*
X046579Y061791D01*
X046548Y061800D01*
X046518Y061813D01*
X046491Y061830D01*
X046465Y061850D01*
X046442Y061873D01*
X046422Y061898D01*
X046405Y061925D01*
X046391Y061955D01*
X046382Y061986D01*
X046375Y062017D01*
X046383Y061993D02*
X046133Y062953D01*
X046133Y062954D02*
X046136Y062944D01*
X046133Y062953D02*
X046123Y062981D01*
X046110Y063007D01*
X046094Y063031D01*
X046076Y063054D01*
X046054Y063074D01*
X046031Y063091D01*
X046006Y063106D01*
X045979Y063118D01*
X045951Y063126D01*
X045922Y063131D01*
X045893Y063133D01*
X044193Y063133D01*
X044164Y063131D01*
X044136Y063126D01*
X044108Y063117D01*
X044082Y063104D01*
X044057Y063089D01*
X044035Y063070D01*
X044015Y063049D01*
X043998Y063026D01*
X043984Y063000D01*
X043974Y062973D01*
X043973Y062973D02*
X043093Y060333D01*
X043093Y056383D01*
X044093Y056283D02*
X044093Y057883D01*
X045093Y058533D01*
X046093Y057883D01*
X046093Y056333D01*
X046136Y055204D02*
X046350Y054990D01*
X046350Y054563D01*
X046567Y054563D02*
X046567Y054990D01*
X046567Y054777D02*
X046781Y054990D01*
X046887Y054990D01*
X047104Y054884D02*
X047211Y054990D01*
X047424Y054990D01*
X047531Y054884D01*
X047531Y054777D01*
X047104Y054777D01*
X047104Y054670D02*
X047104Y054884D01*
X047104Y054670D02*
X047211Y054563D01*
X047424Y054563D01*
X047749Y054563D02*
X047749Y054990D01*
X046350Y054884D02*
X045923Y054884D01*
X045923Y054990D02*
X046136Y055204D01*
X045923Y054990D02*
X045923Y054563D01*
X044573Y057243D02*
X044575Y057288D01*
X044581Y057333D01*
X044591Y057378D01*
X044604Y057421D01*
X044622Y057463D01*
X044643Y057503D01*
X044667Y057541D01*
X044695Y057577D01*
X044725Y057611D01*
X044759Y057641D01*
X044795Y057669D01*
X044833Y057693D01*
X044873Y057714D01*
X044915Y057732D01*
X044958Y057745D01*
X045003Y057755D01*
X045048Y057761D01*
X045093Y057763D01*
X045138Y057761D01*
X045183Y057755D01*
X045228Y057745D01*
X045271Y057732D01*
X045313Y057714D01*
X045353Y057693D01*
X045391Y057669D01*
X045427Y057641D01*
X045461Y057611D01*
X045491Y057577D01*
X045519Y057541D01*
X045543Y057503D01*
X045564Y057463D01*
X045582Y057421D01*
X045595Y057378D01*
X045605Y057333D01*
X045611Y057288D01*
X045613Y057243D01*
X045611Y057198D01*
X045605Y057153D01*
X045595Y057108D01*
X045582Y057065D01*
X045564Y057023D01*
X045543Y056983D01*
X045519Y056945D01*
X045491Y056909D01*
X045461Y056875D01*
X045427Y056845D01*
X045391Y056817D01*
X045353Y056793D01*
X045313Y056772D01*
X045271Y056754D01*
X045228Y056741D01*
X045183Y056731D01*
X045138Y056725D01*
X045093Y056723D01*
X045048Y056725D01*
X045003Y056731D01*
X044958Y056741D01*
X044915Y056754D01*
X044873Y056772D01*
X044833Y056793D01*
X044795Y056817D01*
X044759Y056845D01*
X044725Y056875D01*
X044695Y056909D01*
X044667Y056945D01*
X044643Y056983D01*
X044622Y057023D01*
X044604Y057065D01*
X044591Y057108D01*
X044581Y057153D01*
X044575Y057198D01*
X044573Y057243D01*
X044043Y060333D02*
X044045Y060380D01*
X044051Y060426D01*
X044061Y060472D01*
X044074Y060516D01*
X044092Y060560D01*
X044113Y060601D01*
X044137Y060641D01*
X044165Y060679D01*
X044196Y060714D01*
X044230Y060746D01*
X044266Y060775D01*
X044305Y060801D01*
X044345Y060824D01*
X044388Y060843D01*
X044432Y060859D01*
X044477Y060871D01*
X044523Y060879D01*
X044570Y060883D01*
X044616Y060883D01*
X044663Y060879D01*
X044709Y060871D01*
X044754Y060859D01*
X044798Y060843D01*
X044841Y060824D01*
X044881Y060801D01*
X044920Y060775D01*
X044956Y060746D01*
X044990Y060714D01*
X045021Y060679D01*
X045049Y060641D01*
X045073Y060601D01*
X045094Y060560D01*
X045112Y060516D01*
X045125Y060472D01*
X045135Y060426D01*
X045141Y060380D01*
X045143Y060333D01*
X045141Y060286D01*
X045135Y060240D01*
X045125Y060194D01*
X045112Y060150D01*
X045094Y060106D01*
X045073Y060065D01*
X045049Y060025D01*
X045021Y059987D01*
X044990Y059952D01*
X044956Y059920D01*
X044920Y059891D01*
X044881Y059865D01*
X044841Y059842D01*
X044798Y059823D01*
X044754Y059807D01*
X044709Y059795D01*
X044663Y059787D01*
X044616Y059783D01*
X044570Y059783D01*
X044523Y059787D01*
X044477Y059795D01*
X044432Y059807D01*
X044388Y059823D01*
X044345Y059842D01*
X044305Y059865D01*
X044266Y059891D01*
X044230Y059920D01*
X044196Y059952D01*
X044165Y059987D01*
X044137Y060025D01*
X044113Y060065D01*
X044092Y060106D01*
X044074Y060150D01*
X044061Y060194D01*
X044051Y060240D01*
X044045Y060286D01*
X044043Y060333D01*
X063593Y060333D02*
X063593Y056383D01*
X063693Y056283D01*
X064593Y056283D01*
X065393Y056283D01*
X065393Y056333D01*
X066593Y056333D01*
X067093Y056333D01*
X067543Y056333D01*
X067093Y056333D02*
X067093Y058133D01*
X070743Y058133D01*
X072243Y058133D01*
X072693Y058133D01*
X072693Y056333D01*
X073193Y056333D01*
X073193Y057883D01*
X074193Y058533D01*
X075193Y057883D01*
X075193Y056283D01*
X074393Y056283D01*
X074393Y056333D01*
X073193Y056333D01*
X072693Y056333D02*
X072243Y056333D01*
X071543Y056333D02*
X071243Y056333D01*
X070543Y056333D02*
X070243Y056333D01*
X069543Y056333D02*
X069243Y056333D01*
X068543Y056333D02*
X068243Y056333D01*
X068069Y054990D02*
X067749Y054990D01*
X067749Y054563D01*
X067531Y054777D02*
X067104Y054777D01*
X067104Y054884D02*
X067211Y054990D01*
X067424Y054990D01*
X067531Y054884D01*
X067531Y054777D01*
X067424Y054563D02*
X067211Y054563D01*
X067104Y054670D01*
X067104Y054884D01*
X066887Y054990D02*
X066781Y054990D01*
X066567Y054777D01*
X066567Y054990D02*
X066567Y054563D01*
X066350Y054563D02*
X066350Y054990D01*
X066136Y055204D01*
X065923Y054990D01*
X065923Y054563D01*
X065923Y054884D02*
X066350Y054884D01*
X066593Y056333D02*
X066593Y057883D01*
X065593Y058533D01*
X064593Y057883D01*
X064593Y056283D01*
X065073Y057243D02*
X065075Y057288D01*
X065081Y057333D01*
X065091Y057378D01*
X065104Y057421D01*
X065122Y057463D01*
X065143Y057503D01*
X065167Y057541D01*
X065195Y057577D01*
X065225Y057611D01*
X065259Y057641D01*
X065295Y057669D01*
X065333Y057693D01*
X065373Y057714D01*
X065415Y057732D01*
X065458Y057745D01*
X065503Y057755D01*
X065548Y057761D01*
X065593Y057763D01*
X065638Y057761D01*
X065683Y057755D01*
X065728Y057745D01*
X065771Y057732D01*
X065813Y057714D01*
X065853Y057693D01*
X065891Y057669D01*
X065927Y057641D01*
X065961Y057611D01*
X065991Y057577D01*
X066019Y057541D01*
X066043Y057503D01*
X066064Y057463D01*
X066082Y057421D01*
X066095Y057378D01*
X066105Y057333D01*
X066111Y057288D01*
X066113Y057243D01*
X066111Y057198D01*
X066105Y057153D01*
X066095Y057108D01*
X066082Y057065D01*
X066064Y057023D01*
X066043Y056983D01*
X066019Y056945D01*
X065991Y056909D01*
X065961Y056875D01*
X065927Y056845D01*
X065891Y056817D01*
X065853Y056793D01*
X065813Y056772D01*
X065771Y056754D01*
X065728Y056741D01*
X065683Y056731D01*
X065638Y056725D01*
X065593Y056723D01*
X065548Y056725D01*
X065503Y056731D01*
X065458Y056741D01*
X065415Y056754D01*
X065373Y056772D01*
X065333Y056793D01*
X065295Y056817D01*
X065259Y056845D01*
X065225Y056875D01*
X065195Y056909D01*
X065167Y056945D01*
X065143Y056983D01*
X065122Y057023D01*
X065104Y057065D01*
X065091Y057108D01*
X065081Y057153D01*
X065075Y057198D01*
X065073Y057243D01*
X068069Y054990D02*
X068176Y054884D01*
X068176Y054563D01*
X068393Y054670D02*
X068500Y054777D01*
X068820Y054777D01*
X068820Y054884D02*
X068820Y054563D01*
X068500Y054563D01*
X068393Y054670D01*
X068500Y054990D02*
X068714Y054990D01*
X068820Y054884D01*
X069038Y054884D02*
X069145Y054990D01*
X069465Y054990D01*
X069358Y054777D02*
X069465Y054670D01*
X069358Y054563D01*
X069038Y054563D01*
X069145Y054777D02*
X069038Y054884D01*
X069145Y054777D02*
X069358Y054777D01*
X070327Y054563D02*
X070754Y054990D01*
X070754Y055097D01*
X070647Y055204D01*
X070434Y055204D01*
X070327Y055097D01*
X070327Y054563D02*
X070754Y054563D01*
X070971Y054670D02*
X071078Y054563D01*
X071292Y054563D01*
X071399Y054670D01*
X071399Y055097D01*
X071292Y055204D01*
X071078Y055204D01*
X070971Y055097D01*
X070971Y054990D01*
X071078Y054884D01*
X071399Y054884D01*
X071616Y054884D02*
X072043Y054884D01*
X072261Y055097D02*
X072367Y055204D01*
X072581Y055204D01*
X072688Y055097D01*
X072688Y054990D01*
X072581Y054884D01*
X072688Y054777D01*
X072688Y054670D01*
X072581Y054563D01*
X072367Y054563D01*
X072261Y054670D01*
X072474Y054884D02*
X072581Y054884D01*
X072905Y055097D02*
X073012Y055204D01*
X073225Y055204D01*
X073332Y055097D01*
X073332Y054990D01*
X072905Y054563D01*
X073332Y054563D01*
X075193Y056283D02*
X076093Y056283D01*
X076193Y056383D01*
X076193Y060333D01*
X075313Y062973D01*
X075311Y062973D02*
X075301Y063000D01*
X075287Y063026D01*
X075270Y063049D01*
X075250Y063070D01*
X075228Y063089D01*
X075203Y063104D01*
X075177Y063117D01*
X075149Y063126D01*
X075121Y063131D01*
X075092Y063133D01*
X075093Y063133D02*
X073393Y063133D01*
X073153Y062954D02*
X073150Y062944D01*
X073153Y062953D02*
X072903Y061993D01*
X072911Y062017D02*
X072904Y061986D01*
X072895Y061955D01*
X072881Y061925D01*
X072864Y061898D01*
X072844Y061873D01*
X072821Y061850D01*
X072795Y061830D01*
X072768Y061813D01*
X072738Y061800D01*
X072707Y061791D01*
X072675Y061785D01*
X072643Y061783D01*
X072243Y061783D01*
X072243Y058933D01*
X072243Y058133D01*
X072243Y058933D02*
X071693Y058933D01*
X071693Y059233D01*
X071093Y059233D01*
X071093Y058933D01*
X070743Y058933D01*
X070743Y058833D01*
X070743Y058133D01*
X070743Y058833D02*
X069043Y058833D01*
X069043Y059233D01*
X070743Y059233D01*
X070743Y058933D01*
X070743Y059233D02*
X070743Y061783D01*
X072243Y061783D01*
X071793Y061783D02*
X071793Y061383D01*
X070993Y061383D01*
X070993Y061783D01*
X070743Y061783D02*
X069043Y061783D01*
X069043Y059233D01*
X071093Y059233D02*
X071093Y059833D01*
X071095Y059867D01*
X071101Y059900D01*
X071110Y059932D01*
X071123Y059963D01*
X071139Y059993D01*
X071158Y060020D01*
X071181Y060045D01*
X071206Y060068D01*
X071233Y060087D01*
X071263Y060103D01*
X071294Y060116D01*
X071326Y060125D01*
X071359Y060131D01*
X071393Y060133D01*
X071427Y060131D01*
X071460Y060125D01*
X071492Y060116D01*
X071523Y060103D01*
X071553Y060087D01*
X071580Y060068D01*
X071605Y060045D01*
X071628Y060020D01*
X071647Y059993D01*
X071663Y059963D01*
X071676Y059932D01*
X071685Y059900D01*
X071691Y059867D01*
X071693Y059833D01*
X071693Y059233D01*
X073673Y057243D02*
X073675Y057288D01*
X073681Y057333D01*
X073691Y057378D01*
X073704Y057421D01*
X073722Y057463D01*
X073743Y057503D01*
X073767Y057541D01*
X073795Y057577D01*
X073825Y057611D01*
X073859Y057641D01*
X073895Y057669D01*
X073933Y057693D01*
X073973Y057714D01*
X074015Y057732D01*
X074058Y057745D01*
X074103Y057755D01*
X074148Y057761D01*
X074193Y057763D01*
X074238Y057761D01*
X074283Y057755D01*
X074328Y057745D01*
X074371Y057732D01*
X074413Y057714D01*
X074453Y057693D01*
X074491Y057669D01*
X074527Y057641D01*
X074561Y057611D01*
X074591Y057577D01*
X074619Y057541D01*
X074643Y057503D01*
X074664Y057463D01*
X074682Y057421D01*
X074695Y057378D01*
X074705Y057333D01*
X074711Y057288D01*
X074713Y057243D01*
X074711Y057198D01*
X074705Y057153D01*
X074695Y057108D01*
X074682Y057065D01*
X074664Y057023D01*
X074643Y056983D01*
X074619Y056945D01*
X074591Y056909D01*
X074561Y056875D01*
X074527Y056845D01*
X074491Y056817D01*
X074453Y056793D01*
X074413Y056772D01*
X074371Y056754D01*
X074328Y056741D01*
X074283Y056731D01*
X074238Y056725D01*
X074193Y056723D01*
X074148Y056725D01*
X074103Y056731D01*
X074058Y056741D01*
X074015Y056754D01*
X073973Y056772D01*
X073933Y056793D01*
X073895Y056817D01*
X073859Y056845D01*
X073825Y056875D01*
X073795Y056909D01*
X073767Y056945D01*
X073743Y056983D01*
X073722Y057023D01*
X073704Y057065D01*
X073691Y057108D01*
X073681Y057153D01*
X073675Y057198D01*
X073673Y057243D01*
X074143Y060333D02*
X074145Y060380D01*
X074151Y060426D01*
X074161Y060472D01*
X074174Y060516D01*
X074192Y060560D01*
X074213Y060601D01*
X074237Y060641D01*
X074265Y060679D01*
X074296Y060714D01*
X074330Y060746D01*
X074366Y060775D01*
X074405Y060801D01*
X074445Y060824D01*
X074488Y060843D01*
X074532Y060859D01*
X074577Y060871D01*
X074623Y060879D01*
X074670Y060883D01*
X074716Y060883D01*
X074763Y060879D01*
X074809Y060871D01*
X074854Y060859D01*
X074898Y060843D01*
X074941Y060824D01*
X074981Y060801D01*
X075020Y060775D01*
X075056Y060746D01*
X075090Y060714D01*
X075121Y060679D01*
X075149Y060641D01*
X075173Y060601D01*
X075194Y060560D01*
X075212Y060516D01*
X075225Y060472D01*
X075235Y060426D01*
X075241Y060380D01*
X075243Y060333D01*
X075241Y060286D01*
X075235Y060240D01*
X075225Y060194D01*
X075212Y060150D01*
X075194Y060106D01*
X075173Y060065D01*
X075149Y060025D01*
X075121Y059987D01*
X075090Y059952D01*
X075056Y059920D01*
X075020Y059891D01*
X074981Y059865D01*
X074941Y059842D01*
X074898Y059823D01*
X074854Y059807D01*
X074809Y059795D01*
X074763Y059787D01*
X074716Y059783D01*
X074670Y059783D01*
X074623Y059787D01*
X074577Y059795D01*
X074532Y059807D01*
X074488Y059823D01*
X074445Y059842D01*
X074405Y059865D01*
X074366Y059891D01*
X074330Y059920D01*
X074296Y059952D01*
X074265Y059987D01*
X074237Y060025D01*
X074213Y060065D01*
X074192Y060106D01*
X074174Y060150D01*
X074161Y060194D01*
X074151Y060240D01*
X074145Y060286D01*
X074143Y060333D01*
X073493Y061783D02*
X074993Y061783D01*
X074993Y062883D01*
X073493Y062883D01*
X073493Y061783D01*
X073773Y062063D02*
X074133Y062063D01*
X073953Y062063D02*
X073953Y062604D01*
X073773Y062424D01*
X074325Y062514D02*
X074415Y062604D01*
X074595Y062604D01*
X074685Y062514D01*
X074325Y062153D01*
X074415Y062063D01*
X074595Y062063D01*
X074685Y062153D01*
X074685Y062514D01*
X074325Y062514D02*
X074325Y062153D01*
X073393Y063133D02*
X073364Y063131D01*
X073335Y063126D01*
X073307Y063118D01*
X073280Y063106D01*
X073255Y063091D01*
X073232Y063074D01*
X073210Y063054D01*
X073192Y063031D01*
X073176Y063007D01*
X073163Y062981D01*
X073153Y062953D01*
X069043Y061783D02*
X067143Y061783D01*
X067111Y061785D01*
X067079Y061791D01*
X067048Y061800D01*
X067018Y061813D01*
X066991Y061830D01*
X066965Y061850D01*
X066942Y061873D01*
X066922Y061898D01*
X066905Y061925D01*
X066891Y061955D01*
X066882Y061986D01*
X066875Y062017D01*
X066883Y061993D02*
X066633Y062953D01*
X066633Y062954D02*
X066636Y062944D01*
X066633Y062953D02*
X066623Y062981D01*
X066610Y063007D01*
X066594Y063031D01*
X066576Y063054D01*
X066554Y063074D01*
X066531Y063091D01*
X066506Y063106D01*
X066479Y063118D01*
X066451Y063126D01*
X066422Y063131D01*
X066393Y063133D01*
X064693Y063133D01*
X064664Y063131D01*
X064636Y063126D01*
X064608Y063117D01*
X064582Y063104D01*
X064557Y063089D01*
X064535Y063070D01*
X064515Y063049D01*
X064498Y063026D01*
X064484Y063000D01*
X064474Y062973D01*
X064473Y062973D02*
X063593Y060333D01*
X064543Y060333D02*
X064545Y060380D01*
X064551Y060426D01*
X064561Y060472D01*
X064574Y060516D01*
X064592Y060560D01*
X064613Y060601D01*
X064637Y060641D01*
X064665Y060679D01*
X064696Y060714D01*
X064730Y060746D01*
X064766Y060775D01*
X064805Y060801D01*
X064845Y060824D01*
X064888Y060843D01*
X064932Y060859D01*
X064977Y060871D01*
X065023Y060879D01*
X065070Y060883D01*
X065116Y060883D01*
X065163Y060879D01*
X065209Y060871D01*
X065254Y060859D01*
X065298Y060843D01*
X065341Y060824D01*
X065381Y060801D01*
X065420Y060775D01*
X065456Y060746D01*
X065490Y060714D01*
X065521Y060679D01*
X065549Y060641D01*
X065573Y060601D01*
X065594Y060560D01*
X065612Y060516D01*
X065625Y060472D01*
X065635Y060426D01*
X065641Y060380D01*
X065643Y060333D01*
X065641Y060286D01*
X065635Y060240D01*
X065625Y060194D01*
X065612Y060150D01*
X065594Y060106D01*
X065573Y060065D01*
X065549Y060025D01*
X065521Y059987D01*
X065490Y059952D01*
X065456Y059920D01*
X065420Y059891D01*
X065381Y059865D01*
X065341Y059842D01*
X065298Y059823D01*
X065254Y059807D01*
X065209Y059795D01*
X065163Y059787D01*
X065116Y059783D01*
X065070Y059783D01*
X065023Y059787D01*
X064977Y059795D01*
X064932Y059807D01*
X064888Y059823D01*
X064845Y059842D01*
X064805Y059865D01*
X064766Y059891D01*
X064730Y059920D01*
X064696Y059952D01*
X064665Y059987D01*
X064637Y060025D01*
X064613Y060065D01*
X064592Y060106D01*
X064574Y060150D01*
X064561Y060194D01*
X064551Y060240D01*
X064545Y060286D01*
X064543Y060333D01*
D11*
X052140Y049360D02*
X052140Y049053D01*
X052140Y049284D02*
X051833Y049284D01*
X051833Y049360D02*
X051833Y049053D01*
X051680Y049130D02*
X051680Y049437D01*
X051603Y049514D01*
X051373Y049514D01*
X051373Y049053D01*
X051603Y049053D01*
X051680Y049130D01*
X051833Y049360D02*
X051987Y049514D01*
X052140Y049360D01*
X052913Y048937D02*
X052913Y048630D01*
X052989Y048553D01*
X053143Y048553D01*
X053219Y048630D01*
X053219Y048784D01*
X053066Y048784D01*
X053219Y048937D02*
X053143Y049014D01*
X052989Y049014D01*
X052913Y048937D01*
X053373Y049014D02*
X053680Y048553D01*
X053680Y049014D01*
X053833Y049014D02*
X054064Y049014D01*
X054140Y048937D01*
X054140Y048630D01*
X054064Y048553D01*
X053833Y048553D01*
X053833Y049014D01*
X053373Y049014D02*
X053373Y048553D01*
X053219Y048014D02*
X053219Y047707D01*
X053066Y047553D01*
X052913Y047707D01*
X052913Y048014D01*
X053373Y047784D02*
X053373Y047630D01*
X053450Y047553D01*
X053680Y047553D01*
X053833Y047630D02*
X053910Y047553D01*
X054140Y047553D01*
X054140Y047860D02*
X053910Y047860D01*
X053833Y047784D01*
X053833Y047630D01*
X053680Y047860D02*
X053450Y047860D01*
X053373Y047784D01*
X052140Y047553D02*
X051833Y047553D01*
X051833Y048014D01*
X051680Y047937D02*
X051603Y048014D01*
X051450Y048014D01*
X051373Y047937D01*
X051373Y047630D01*
X051450Y047553D01*
X051603Y047553D01*
X051680Y047630D01*
X051219Y047630D02*
X051143Y047553D01*
X050989Y047553D01*
X050913Y047630D01*
X050989Y047784D02*
X051143Y047784D01*
X051219Y047707D01*
X051219Y047630D01*
X050989Y047784D02*
X050913Y047860D01*
X050913Y047937D01*
X050989Y048014D01*
X051143Y048014D01*
X051219Y047937D01*
X051143Y049053D02*
X050989Y049053D01*
X050913Y049130D01*
X050989Y049284D02*
X051143Y049284D01*
X051219Y049207D01*
X051219Y049130D01*
X051143Y049053D01*
X050989Y049284D02*
X050913Y049360D01*
X050913Y049437D01*
X050989Y049514D01*
X051143Y049514D01*
X051219Y049437D01*
X070852Y041948D02*
X071199Y041601D01*
X071112Y041687D02*
X071373Y041948D01*
X071373Y041601D02*
X070852Y041601D01*
X070852Y041430D02*
X070852Y041257D01*
X070852Y041344D02*
X071373Y041344D01*
X071373Y041430D02*
X071373Y041257D01*
X071373Y041088D02*
X071199Y040915D01*
X071199Y041002D02*
X071199Y040741D01*
X071373Y040741D02*
X070852Y040741D01*
X070852Y041002D01*
X070939Y041088D01*
X071112Y041088D01*
X071199Y041002D01*
X071112Y040573D02*
X071112Y040226D01*
X071026Y040226D02*
X070852Y040399D01*
X071026Y040573D01*
X071373Y040573D01*
X071373Y040226D02*
X071026Y040226D01*
X070852Y040057D02*
X070852Y039710D01*
X071373Y039710D01*
X071373Y039541D02*
X071026Y039541D01*
X070852Y039368D01*
X071026Y039194D01*
X071373Y039194D01*
X071286Y039026D02*
X071373Y038939D01*
X071373Y038766D01*
X071286Y038679D01*
X071286Y038508D02*
X071373Y038508D01*
X071373Y038421D01*
X071286Y038421D01*
X071286Y038508D01*
X071286Y038252D02*
X071373Y038166D01*
X071373Y037992D01*
X071286Y037905D01*
X071112Y037992D02*
X071112Y038166D01*
X071199Y038252D01*
X071286Y038252D01*
X071112Y037992D02*
X071026Y037905D01*
X070939Y037905D01*
X070852Y037992D01*
X070852Y038166D01*
X070939Y038252D01*
X070939Y038679D02*
X070852Y038766D01*
X070852Y038939D01*
X070939Y039026D01*
X071112Y038939D02*
X071199Y039026D01*
X071286Y039026D01*
X071112Y038939D02*
X071112Y038766D01*
X071026Y038679D01*
X070939Y038679D01*
X071112Y039194D02*
X071112Y039541D01*
X071112Y039710D02*
X071112Y039884D01*
X071199Y037221D02*
X070852Y037221D01*
X070852Y036874D02*
X071199Y036874D01*
X071373Y037048D01*
X071199Y037221D01*
X071286Y036705D02*
X070939Y036705D01*
X070852Y036619D01*
X070852Y036445D01*
X070939Y036358D01*
X071286Y036358D01*
X071373Y036445D01*
X071373Y036619D01*
X071286Y036705D01*
X071373Y036190D02*
X071112Y035929D01*
X071199Y035843D02*
X070852Y036190D01*
X070852Y035843D02*
X071373Y035843D01*
X071286Y035674D02*
X071373Y035587D01*
X071373Y035414D01*
X071286Y035327D01*
X071112Y035414D02*
X071112Y035587D01*
X071199Y035674D01*
X071286Y035674D01*
X071112Y035414D02*
X071026Y035327D01*
X070939Y035327D01*
X070852Y035414D01*
X070852Y035587D01*
X070939Y035674D01*
X070852Y035158D02*
X070852Y034811D01*
X070852Y034641D02*
X070852Y034468D01*
X070852Y034554D02*
X071373Y034554D01*
X071373Y034468D02*
X071373Y034641D01*
X071373Y034985D02*
X070852Y034985D01*
X071286Y034297D02*
X071373Y034297D01*
X071373Y034210D01*
X071286Y034210D01*
X071286Y034297D01*
X071112Y034041D02*
X071199Y033954D01*
X071199Y033694D01*
X071373Y033694D02*
X070852Y033694D01*
X070852Y033954D01*
X070939Y034041D01*
X071112Y034041D01*
X071112Y033010D02*
X071112Y032663D01*
X071026Y032663D02*
X070852Y032836D01*
X071026Y033010D01*
X071373Y033010D01*
X071373Y032663D02*
X071026Y032663D01*
X071112Y032494D02*
X071199Y032408D01*
X071199Y032147D01*
X071373Y032147D02*
X070852Y032147D01*
X070852Y032408D01*
X070939Y032494D01*
X071112Y032494D01*
X071199Y032321D02*
X071373Y032494D01*
X071373Y031977D02*
X071373Y031804D01*
X071373Y031890D02*
X070852Y031890D01*
X070852Y031804D02*
X070852Y031977D01*
X070852Y031635D02*
X070852Y031288D01*
X071373Y031288D01*
X071373Y031635D01*
X071112Y031461D02*
X071112Y031288D01*
X071112Y031119D02*
X071199Y031033D01*
X071199Y030772D01*
X071373Y030772D02*
X070852Y030772D01*
X070852Y031033D01*
X070939Y031119D01*
X071112Y031119D01*
X071199Y030946D02*
X071373Y031119D01*
X071286Y030604D02*
X070939Y030604D01*
X070852Y030517D01*
X070852Y030343D01*
X070939Y030257D01*
X071286Y030257D01*
X071373Y030343D01*
X071373Y030517D01*
X071286Y030604D01*
X071373Y030088D02*
X070852Y030088D01*
X071026Y029914D01*
X070852Y029741D01*
X071373Y029741D01*
X071373Y029570D02*
X071373Y029483D01*
X071286Y029483D01*
X071286Y029570D01*
X071373Y029570D01*
X071373Y029315D02*
X070852Y029315D01*
X071026Y029141D01*
X070852Y028968D01*
X071373Y028968D01*
X071286Y028712D02*
X070852Y028712D01*
X070852Y028625D02*
X070852Y028799D01*
X071286Y028712D02*
X071373Y028625D01*
X071373Y028539D01*
X071286Y028452D01*
X070852Y027768D02*
X070852Y027421D01*
X070852Y027252D02*
X070852Y026905D01*
X071373Y026905D01*
X071373Y027252D01*
X071112Y027078D02*
X071112Y026905D01*
X071286Y026736D02*
X070852Y026736D01*
X070852Y026389D02*
X071286Y026389D01*
X071373Y026476D01*
X071373Y026650D01*
X071286Y026736D01*
X071286Y026221D02*
X071373Y026134D01*
X071373Y025960D01*
X071286Y025874D01*
X070939Y025874D01*
X070852Y025960D01*
X070852Y026134D01*
X070939Y026221D01*
X071286Y026221D01*
X071373Y026221D02*
X071199Y026047D01*
X071199Y025705D02*
X071286Y025705D01*
X071373Y025618D01*
X071373Y025445D01*
X071286Y025358D01*
X071373Y025189D02*
X071026Y025189D01*
X070852Y025016D01*
X071026Y024842D01*
X071373Y024842D01*
X071112Y024842D02*
X071112Y025189D01*
X071026Y025358D02*
X071112Y025445D01*
X071112Y025618D01*
X071199Y025705D01*
X070939Y025705D02*
X070852Y025618D01*
X070852Y025445D01*
X070939Y025358D01*
X071026Y025358D01*
X071112Y024674D02*
X071199Y024587D01*
X071199Y024327D01*
X071373Y024327D02*
X070852Y024327D01*
X070852Y024587D01*
X070939Y024674D01*
X071112Y024674D01*
X071286Y024156D02*
X071373Y024156D01*
X071373Y024069D01*
X071286Y024069D01*
X071286Y024156D01*
X071373Y023900D02*
X070852Y023900D01*
X071026Y023727D01*
X070852Y023553D01*
X071373Y023553D01*
X071373Y027594D02*
X070852Y027594D01*
X052711Y027595D02*
X052634Y027519D01*
X052251Y027519D01*
X052251Y027288D02*
X052174Y027288D01*
X052404Y027288D02*
X052711Y027288D01*
X052711Y027212D02*
X052711Y027365D01*
X052711Y027595D02*
X052711Y027749D01*
X052634Y027826D01*
X052251Y027826D01*
X052327Y027979D02*
X052404Y027979D01*
X052481Y028056D01*
X052481Y028209D01*
X052558Y028286D01*
X052634Y028286D01*
X052711Y028209D01*
X052711Y028056D01*
X052634Y027979D01*
X052327Y027979D02*
X052251Y028056D01*
X052251Y028209D01*
X052327Y028286D01*
X052251Y028439D02*
X052251Y028670D01*
X052327Y028746D01*
X052404Y028746D01*
X052481Y028670D01*
X052481Y028439D01*
X052711Y028439D02*
X052711Y028670D01*
X052634Y028746D01*
X052558Y028746D01*
X052481Y028670D01*
X052711Y028439D02*
X052251Y028439D01*
X052404Y027288D02*
X052404Y027212D01*
X052481Y027058D02*
X052404Y026981D01*
X052404Y026751D01*
X052711Y026751D01*
X052711Y026598D02*
X052711Y026444D01*
X052711Y026521D02*
X052404Y026521D01*
X052404Y026444D01*
X052481Y026291D02*
X052404Y026214D01*
X052481Y026137D01*
X052711Y026137D01*
X052711Y025984D02*
X052404Y025984D01*
X052404Y026061D01*
X052481Y026137D01*
X052481Y026291D02*
X052711Y026291D01*
X052251Y026521D02*
X052174Y026521D01*
X052481Y027058D02*
X052711Y027058D01*
X050373Y016400D02*
X050373Y016093D01*
X050373Y016246D02*
X049912Y016246D01*
X050066Y016093D01*
X037105Y028026D02*
X037105Y028179D01*
X037028Y028256D01*
X037028Y028410D02*
X037105Y028486D01*
X037105Y028717D01*
X037182Y028717D02*
X037258Y028640D01*
X037258Y028563D01*
X037182Y028717D02*
X036798Y028717D01*
X036875Y028870D02*
X037028Y028870D01*
X037105Y028947D01*
X037105Y029177D01*
X037105Y029330D02*
X037105Y029484D01*
X037105Y029407D02*
X036644Y029407D01*
X036644Y029330D01*
X036798Y029177D02*
X036798Y028947D01*
X036875Y028870D01*
X036798Y028410D02*
X037028Y028410D01*
X036721Y028256D02*
X036644Y028179D01*
X036644Y028026D01*
X036721Y027949D01*
X037028Y027949D01*
X037105Y028026D01*
X037028Y029637D02*
X036875Y029637D01*
X036798Y029714D01*
X036798Y029868D01*
X036875Y029944D01*
X037028Y029944D01*
X037105Y029868D01*
X037105Y029714D01*
X037028Y029637D01*
X037105Y030098D02*
X036798Y030098D01*
X036798Y030328D01*
X036875Y030405D01*
X037105Y030405D01*
X037028Y030558D02*
X036875Y030558D01*
X036798Y030635D01*
X036798Y030788D01*
X036875Y030865D01*
X036951Y030865D01*
X036951Y030558D01*
X037028Y030558D02*
X037105Y030635D01*
X037105Y030788D01*
X037105Y031479D02*
X037105Y031632D01*
X037105Y031556D02*
X036644Y031556D01*
X036644Y031632D02*
X036644Y031479D01*
X036644Y031786D02*
X036951Y031786D01*
X037105Y031939D01*
X036951Y032093D01*
X036644Y032093D01*
X028873Y025400D02*
X028873Y025093D01*
X028873Y025246D02*
X028412Y025246D01*
X028566Y025093D01*
X028333Y016514D02*
X028333Y016053D01*
X028640Y016053D01*
X028180Y016130D02*
X028103Y016053D01*
X027950Y016053D01*
X027873Y016130D01*
X027873Y016437D01*
X027950Y016514D01*
X028103Y016514D01*
X028180Y016437D01*
X027719Y016437D02*
X027643Y016514D01*
X027489Y016514D01*
X027413Y016437D01*
X027413Y016360D01*
X027489Y016284D01*
X027643Y016284D01*
X027719Y016207D01*
X027719Y016130D01*
X027643Y016053D01*
X027489Y016053D01*
X027413Y016130D01*
X027489Y015014D02*
X027413Y014937D01*
X027413Y014860D01*
X027489Y014784D01*
X027643Y014784D01*
X027719Y014707D01*
X027719Y014630D01*
X027643Y014553D01*
X027489Y014553D01*
X027413Y014630D01*
X027489Y015014D02*
X027643Y015014D01*
X027719Y014937D01*
X027873Y015014D02*
X027873Y014553D01*
X028103Y014553D01*
X028180Y014630D01*
X028180Y014937D01*
X028103Y015014D01*
X027873Y015014D01*
X028333Y014860D02*
X028487Y015014D01*
X028640Y014860D01*
X028640Y014553D01*
X028640Y014784D02*
X028333Y014784D01*
X028333Y014860D02*
X028333Y014553D01*
X002963Y029613D02*
X002963Y029920D01*
X002963Y029766D02*
X002502Y029766D01*
X002656Y029613D01*
X008999Y046053D02*
X009173Y046053D01*
X009259Y046140D01*
X009259Y046574D01*
X009428Y046487D02*
X009428Y046400D01*
X009515Y046314D01*
X009688Y046314D01*
X009775Y046227D01*
X009775Y046140D01*
X009688Y046053D01*
X009515Y046053D01*
X009428Y046140D01*
X009428Y046487D02*
X009515Y046574D01*
X009688Y046574D01*
X009775Y046487D01*
X009944Y046574D02*
X010204Y046574D01*
X010291Y046487D01*
X010291Y046400D01*
X010204Y046314D01*
X009944Y046314D01*
X009944Y046574D02*
X009944Y046053D01*
X010204Y046053D01*
X010291Y046140D01*
X010291Y046227D01*
X010204Y046314D01*
X008999Y046053D02*
X008913Y046140D01*
X008913Y046574D01*
X009913Y047640D02*
X009999Y047553D01*
X010173Y047553D01*
X010259Y047640D01*
X010259Y047814D01*
X010173Y047900D01*
X010086Y047900D01*
X009913Y047814D01*
X009913Y048074D01*
X010259Y048074D01*
X010428Y047900D02*
X010602Y047553D01*
X010775Y047900D01*
X011459Y047814D02*
X011546Y047900D01*
X011806Y047900D01*
X011975Y047814D02*
X011975Y047640D01*
X012062Y047553D01*
X012235Y047553D01*
X012322Y047640D01*
X012322Y047814D01*
X012235Y047900D01*
X012062Y047900D01*
X011975Y047814D01*
X011806Y047640D02*
X011720Y047727D01*
X011546Y047727D01*
X011459Y047814D01*
X011459Y047553D02*
X011720Y047553D01*
X011806Y047640D01*
X012491Y047640D02*
X012577Y047553D01*
X012838Y047553D01*
X012838Y047900D01*
X013006Y047900D02*
X013006Y047553D01*
X013006Y047727D02*
X013180Y047900D01*
X013267Y047900D01*
X013436Y047814D02*
X013436Y047640D01*
X013523Y047553D01*
X013783Y047553D01*
X013952Y047640D02*
X013952Y047814D01*
X014038Y047900D01*
X014212Y047900D01*
X014299Y047814D01*
X014299Y047727D01*
X013952Y047727D01*
X013952Y047640D02*
X014038Y047553D01*
X014212Y047553D01*
X013783Y047900D02*
X013523Y047900D01*
X013436Y047814D01*
X012491Y047900D02*
X012491Y047640D01*
X014983Y047553D02*
X015243Y047553D01*
X015330Y047640D01*
X015243Y047727D01*
X015070Y047727D01*
X014983Y047814D01*
X015070Y047900D01*
X015330Y047900D01*
X015499Y047814D02*
X015585Y047900D01*
X015759Y047900D01*
X015846Y047814D01*
X015846Y047727D01*
X015499Y047727D01*
X015499Y047640D02*
X015499Y047814D01*
X015499Y047640D02*
X015585Y047553D01*
X015759Y047553D01*
X016014Y047553D02*
X016188Y047553D01*
X016101Y047553D02*
X016101Y048074D01*
X016014Y048074D01*
X016358Y047814D02*
X016445Y047900D01*
X016618Y047900D01*
X016705Y047814D01*
X016705Y047727D01*
X016358Y047727D01*
X016358Y047640D02*
X016358Y047814D01*
X016358Y047640D02*
X016445Y047553D01*
X016618Y047553D01*
X016874Y047640D02*
X016960Y047553D01*
X017221Y047553D01*
X017476Y047640D02*
X017563Y047553D01*
X017476Y047640D02*
X017476Y047987D01*
X017389Y047900D02*
X017563Y047900D01*
X017221Y047900D02*
X016960Y047900D01*
X016874Y047814D01*
X016874Y047640D01*
X010117Y048553D02*
X010031Y048640D01*
X010031Y048987D01*
X010117Y048900D02*
X009944Y048900D01*
X009775Y048900D02*
X009428Y048553D01*
X009259Y048553D02*
X008913Y048553D01*
X008913Y049074D01*
X009259Y049074D01*
X009428Y048900D02*
X009775Y048553D01*
X009086Y048814D02*
X008913Y048814D01*
X029912Y047246D02*
X030373Y047246D01*
X030373Y047093D02*
X030373Y047400D01*
X030066Y047093D02*
X029912Y047246D01*
D12*
X027889Y042037D02*
X026393Y042037D01*
X026393Y021959D01*
X056747Y021959D01*
X056747Y040396D01*
X056747Y042037D01*
X051889Y042037D01*
X027889Y042037D01*
X027933Y042035D01*
X027976Y042029D01*
X028018Y042020D01*
X028060Y042007D01*
X028100Y041990D01*
X028139Y041970D01*
X028176Y041947D01*
X028210Y041920D01*
X028243Y041891D01*
X028272Y041858D01*
X028299Y041824D01*
X028322Y041787D01*
X028342Y041748D01*
X028359Y041708D01*
X028372Y041666D01*
X028381Y041624D01*
X028387Y041581D01*
X028389Y041537D01*
X028389Y039537D01*
X028391Y039493D01*
X028397Y039450D01*
X028406Y039408D01*
X028419Y039366D01*
X028436Y039326D01*
X028456Y039287D01*
X028479Y039250D01*
X028506Y039216D01*
X028535Y039183D01*
X028568Y039154D01*
X028602Y039127D01*
X028639Y039104D01*
X028678Y039084D01*
X028718Y039067D01*
X028760Y039054D01*
X028802Y039045D01*
X028845Y039039D01*
X028889Y039037D01*
X037389Y039037D01*
X037389Y038537D01*
X038889Y038537D01*
X038889Y039037D01*
X046389Y039037D01*
X046433Y039035D01*
X046476Y039029D01*
X046518Y039020D01*
X046560Y039007D01*
X046600Y038990D01*
X046639Y038970D01*
X046676Y038947D01*
X046710Y038920D01*
X046743Y038891D01*
X046772Y038858D01*
X046799Y038824D01*
X046822Y038787D01*
X046842Y038748D01*
X046859Y038708D01*
X046872Y038666D01*
X046881Y038624D01*
X046887Y038581D01*
X046889Y038537D01*
X046889Y035537D01*
X046891Y035493D01*
X046897Y035450D01*
X046906Y035408D01*
X046919Y035366D01*
X046936Y035326D01*
X046956Y035287D01*
X046979Y035250D01*
X047006Y035216D01*
X047035Y035183D01*
X047068Y035154D01*
X047102Y035127D01*
X047139Y035104D01*
X047178Y035084D01*
X047218Y035067D01*
X047260Y035054D01*
X047302Y035045D01*
X047345Y035039D01*
X047389Y035037D01*
X050389Y035037D01*
X050433Y035039D01*
X050476Y035045D01*
X050518Y035054D01*
X050560Y035067D01*
X050600Y035084D01*
X050639Y035104D01*
X050676Y035127D01*
X050710Y035154D01*
X050743Y035183D01*
X050772Y035216D01*
X050799Y035250D01*
X050822Y035287D01*
X050842Y035326D01*
X050859Y035366D01*
X050872Y035408D01*
X050881Y035450D01*
X050887Y035493D01*
X050889Y035537D01*
X050889Y041037D01*
X050891Y041097D01*
X050896Y041158D01*
X050905Y041217D01*
X050918Y041276D01*
X050934Y041335D01*
X050954Y041392D01*
X050977Y041447D01*
X051004Y041502D01*
X051033Y041554D01*
X051066Y041605D01*
X051102Y041654D01*
X051140Y041700D01*
X051182Y041744D01*
X051226Y041786D01*
X051272Y041824D01*
X051321Y041860D01*
X051372Y041893D01*
X051424Y041922D01*
X051479Y041949D01*
X051534Y041972D01*
X051591Y041992D01*
X051650Y042008D01*
X051709Y042021D01*
X051768Y042030D01*
X051829Y042035D01*
X051889Y042037D01*
X053889Y039537D02*
X055889Y039537D01*
X055889Y039538D02*
X055945Y039540D01*
X056001Y039545D01*
X056056Y039554D01*
X056111Y039567D01*
X056165Y039584D01*
X056217Y039603D01*
X056268Y039626D01*
X056318Y039653D01*
X056366Y039683D01*
X056411Y039715D01*
X056455Y039751D01*
X056496Y039789D01*
X056534Y039830D01*
X056570Y039874D01*
X056602Y039919D01*
X056632Y039967D01*
X056659Y040017D01*
X056682Y040068D01*
X056701Y040120D01*
X056718Y040174D01*
X056731Y040229D01*
X056740Y040284D01*
X056745Y040340D01*
X056747Y040396D01*
X053889Y039537D02*
X053845Y039535D01*
X053802Y039529D01*
X053760Y039520D01*
X053718Y039507D01*
X053678Y039490D01*
X053639Y039470D01*
X053602Y039447D01*
X053568Y039420D01*
X053535Y039391D01*
X053506Y039358D01*
X053479Y039324D01*
X053456Y039287D01*
X053436Y039248D01*
X053419Y039208D01*
X053406Y039166D01*
X053397Y039124D01*
X053391Y039081D01*
X053389Y039037D01*
X053389Y036037D01*
X053391Y035993D01*
X053397Y035950D01*
X053406Y035908D01*
X053419Y035866D01*
X053436Y035826D01*
X053456Y035787D01*
X053479Y035750D01*
X053506Y035716D01*
X053535Y035683D01*
X053568Y035654D01*
X053602Y035627D01*
X053639Y035604D01*
X053678Y035584D01*
X053718Y035567D01*
X053760Y035554D01*
X053802Y035545D01*
X053845Y035539D01*
X053889Y035537D01*
X055837Y035537D01*
X055837Y035538D02*
X055896Y035536D01*
X055955Y035530D01*
X056014Y035521D01*
X056071Y035507D01*
X056128Y035490D01*
X056184Y035469D01*
X056238Y035445D01*
X056290Y035417D01*
X056340Y035385D01*
X056389Y035351D01*
X056434Y035313D01*
X056478Y035273D01*
X056518Y035229D01*
X056556Y035184D01*
X056590Y035135D01*
X056622Y035085D01*
X056650Y035033D01*
X056674Y034979D01*
X056695Y034923D01*
X056712Y034866D01*
X056726Y034809D01*
X056735Y034750D01*
X056741Y034691D01*
X056743Y034632D01*
X050389Y025537D02*
X038889Y025537D01*
X038889Y026037D01*
X037389Y026037D01*
X037389Y025537D01*
X036389Y025537D01*
X036345Y025539D01*
X036302Y025545D01*
X036260Y025554D01*
X036218Y025567D01*
X036178Y025584D01*
X036139Y025604D01*
X036102Y025627D01*
X036068Y025654D01*
X036035Y025683D01*
X036006Y025716D01*
X035979Y025750D01*
X035956Y025787D01*
X035936Y025826D01*
X035919Y025866D01*
X035906Y025908D01*
X035897Y025950D01*
X035891Y025993D01*
X035889Y026037D01*
X035889Y026537D01*
X035887Y026581D01*
X035881Y026624D01*
X035872Y026666D01*
X035859Y026708D01*
X035842Y026748D01*
X035822Y026787D01*
X035799Y026824D01*
X035772Y026858D01*
X035743Y026891D01*
X035710Y026920D01*
X035676Y026947D01*
X035639Y026970D01*
X035600Y026990D01*
X035560Y027007D01*
X035518Y027020D01*
X035476Y027029D01*
X035433Y027035D01*
X035389Y027037D01*
X031389Y027037D01*
X031345Y027035D01*
X031302Y027029D01*
X031260Y027020D01*
X031218Y027007D01*
X031178Y026990D01*
X031139Y026970D01*
X031102Y026947D01*
X031068Y026920D01*
X031035Y026891D01*
X031006Y026858D01*
X030979Y026824D01*
X030956Y026787D01*
X030936Y026748D01*
X030919Y026708D01*
X030906Y026666D01*
X030897Y026624D01*
X030891Y026581D01*
X030889Y026537D01*
X030889Y025537D01*
X030887Y025493D01*
X030881Y025450D01*
X030872Y025408D01*
X030859Y025366D01*
X030842Y025326D01*
X030822Y025287D01*
X030799Y025250D01*
X030772Y025216D01*
X030743Y025183D01*
X030710Y025154D01*
X030676Y025127D01*
X030639Y025104D01*
X030600Y025084D01*
X030560Y025067D01*
X030518Y025054D01*
X030476Y025045D01*
X030433Y025039D01*
X030389Y025037D01*
X029889Y025037D01*
X029845Y025035D01*
X029802Y025029D01*
X029760Y025020D01*
X029718Y025007D01*
X029678Y024990D01*
X029639Y024970D01*
X029602Y024947D01*
X029568Y024920D01*
X029535Y024891D01*
X029506Y024858D01*
X029479Y024824D01*
X029456Y024787D01*
X029436Y024748D01*
X029419Y024708D01*
X029406Y024666D01*
X029397Y024624D01*
X029391Y024581D01*
X029389Y024537D01*
X029389Y022970D01*
X029387Y022909D01*
X029382Y022849D01*
X029373Y022789D01*
X029360Y022730D01*
X029344Y022671D01*
X029324Y022614D01*
X029301Y022558D01*
X029274Y022503D01*
X029244Y022451D01*
X029211Y022400D01*
X029175Y022351D01*
X029137Y022304D01*
X029095Y022260D01*
X029051Y022218D01*
X029004Y022180D01*
X028955Y022144D01*
X028904Y022111D01*
X028852Y022081D01*
X028797Y022054D01*
X028741Y022031D01*
X028684Y022011D01*
X028625Y021995D01*
X028566Y021982D01*
X028506Y021973D01*
X028446Y021968D01*
X028385Y021966D01*
X046418Y018567D02*
X046418Y018160D01*
X046519Y018058D01*
X046723Y018058D01*
X046825Y018160D01*
X046825Y018364D01*
X046621Y018364D01*
X046418Y018567D02*
X046519Y018669D01*
X046723Y018669D01*
X046825Y018567D01*
X047025Y018669D02*
X047330Y018669D01*
X047432Y018567D01*
X047432Y018364D01*
X047330Y018262D01*
X047025Y018262D01*
X047025Y018058D02*
X047025Y018669D01*
X047633Y018669D02*
X047836Y018669D01*
X047735Y018669D02*
X047735Y018058D01*
X047836Y018058D02*
X047633Y018058D01*
X048038Y018160D02*
X048140Y018058D01*
X048343Y018058D01*
X048445Y018160D01*
X048445Y018567D01*
X048343Y018669D01*
X048140Y018669D01*
X048038Y018567D01*
X048038Y018160D01*
X048646Y017957D02*
X049053Y017957D01*
X049254Y018160D02*
X049661Y018567D01*
X049661Y018160D01*
X049559Y018058D01*
X049355Y018058D01*
X049254Y018160D01*
X049254Y018567D01*
X049355Y018669D01*
X049559Y018669D01*
X049661Y018567D01*
X051959Y021966D02*
X053869Y021966D01*
X051959Y021966D02*
X051914Y021968D01*
X051870Y021973D01*
X051826Y021982D01*
X051783Y021994D01*
X051740Y022009D01*
X051700Y022028D01*
X051661Y022050D01*
X051623Y022075D01*
X051588Y022103D01*
X051555Y022133D01*
X051525Y022166D01*
X051497Y022201D01*
X051472Y022239D01*
X051450Y022278D01*
X051431Y022318D01*
X051416Y022361D01*
X051404Y022404D01*
X051395Y022448D01*
X051390Y022492D01*
X051388Y022537D01*
X051389Y022537D02*
X051389Y024537D01*
X051387Y024597D01*
X051382Y024658D01*
X051373Y024717D01*
X051360Y024776D01*
X051344Y024835D01*
X051324Y024892D01*
X051301Y024947D01*
X051274Y025002D01*
X051245Y025054D01*
X051212Y025105D01*
X051176Y025154D01*
X051138Y025200D01*
X051096Y025244D01*
X051052Y025286D01*
X051006Y025324D01*
X050957Y025360D01*
X050906Y025393D01*
X050854Y025422D01*
X050799Y025449D01*
X050744Y025472D01*
X050687Y025492D01*
X050628Y025508D01*
X050569Y025521D01*
X050510Y025530D01*
X050449Y025535D01*
X050389Y025537D01*
X049053Y045457D02*
X048646Y045457D01*
X048445Y045660D02*
X048445Y046067D01*
X048343Y046169D01*
X048140Y046169D01*
X048038Y046067D01*
X048038Y045660D01*
X048140Y045558D01*
X048343Y045558D01*
X048445Y045660D01*
X047836Y045558D02*
X047633Y045558D01*
X047735Y045558D02*
X047735Y046169D01*
X047836Y046169D02*
X047633Y046169D01*
X047432Y046067D02*
X047330Y046169D01*
X047025Y046169D01*
X047025Y045558D01*
X047025Y045762D02*
X047330Y045762D01*
X047432Y045864D01*
X047432Y046067D01*
X046825Y046067D02*
X046723Y046169D01*
X046519Y046169D01*
X046418Y046067D01*
X046418Y045660D01*
X046519Y045558D01*
X046723Y045558D01*
X046825Y045660D01*
X046825Y045864D01*
X046621Y045864D01*
X049254Y045965D02*
X049457Y046169D01*
X049457Y045558D01*
X049254Y045558D02*
X049661Y045558D01*
D13*
X037909Y056033D02*
X037911Y056095D01*
X037917Y056158D01*
X037927Y056219D01*
X037941Y056280D01*
X037958Y056340D01*
X037979Y056399D01*
X038005Y056456D01*
X038033Y056511D01*
X038065Y056565D01*
X038101Y056616D01*
X038139Y056666D01*
X038181Y056712D01*
X038225Y056756D01*
X038273Y056797D01*
X038322Y056835D01*
X038374Y056869D01*
X038428Y056900D01*
X038484Y056928D01*
X038542Y056952D01*
X038601Y056973D01*
X038661Y056989D01*
X038722Y057002D01*
X038784Y057011D01*
X038846Y057016D01*
X038909Y057017D01*
X038971Y057014D01*
X039033Y057007D01*
X039095Y056996D01*
X039155Y056981D01*
X039215Y056963D01*
X039273Y056941D01*
X039330Y056915D01*
X039385Y056885D01*
X039438Y056852D01*
X039489Y056816D01*
X039537Y056777D01*
X039583Y056734D01*
X039626Y056689D01*
X039666Y056641D01*
X039703Y056591D01*
X039737Y056538D01*
X039768Y056484D01*
X039794Y056428D01*
X039818Y056370D01*
X039837Y056310D01*
X039853Y056250D01*
X039865Y056188D01*
X039873Y056127D01*
X039877Y056064D01*
X039877Y056002D01*
X039873Y055939D01*
X039865Y055878D01*
X039853Y055816D01*
X039837Y055756D01*
X039818Y055696D01*
X039794Y055638D01*
X039768Y055582D01*
X039737Y055528D01*
X039703Y055475D01*
X039666Y055425D01*
X039626Y055377D01*
X039583Y055332D01*
X039537Y055289D01*
X039489Y055250D01*
X039438Y055214D01*
X039385Y055181D01*
X039330Y055151D01*
X039273Y055125D01*
X039215Y055103D01*
X039155Y055085D01*
X039095Y055070D01*
X039033Y055059D01*
X038971Y055052D01*
X038909Y055049D01*
X038846Y055050D01*
X038784Y055055D01*
X038722Y055064D01*
X038661Y055077D01*
X038601Y055093D01*
X038542Y055114D01*
X038484Y055138D01*
X038428Y055166D01*
X038374Y055197D01*
X038322Y055231D01*
X038273Y055269D01*
X038225Y055310D01*
X038181Y055354D01*
X038139Y055400D01*
X038101Y055450D01*
X038065Y055501D01*
X038033Y055555D01*
X038005Y055610D01*
X037979Y055667D01*
X037958Y055726D01*
X037941Y055786D01*
X037927Y055847D01*
X037917Y055908D01*
X037911Y055971D01*
X037909Y056033D01*
X038193Y056583D02*
X038593Y056583D01*
X014707Y034423D02*
X014707Y029620D01*
X000888Y029620D01*
X000888Y030486D01*
X000140Y030486D01*
X000140Y033557D01*
X000888Y033557D01*
X000888Y030486D01*
X000888Y033557D02*
X000888Y034423D01*
X014707Y034423D01*
X009888Y032022D02*
X008888Y031022D01*
X007888Y032022D01*
X008888Y033022D01*
X009888Y032022D01*
X009872Y032037D02*
X007904Y032037D01*
X007951Y031959D02*
X009825Y031959D01*
X009747Y031880D02*
X008029Y031880D01*
X008108Y031802D02*
X009668Y031802D01*
X009590Y031723D02*
X008186Y031723D01*
X008265Y031645D02*
X009511Y031645D01*
X009433Y031566D02*
X008343Y031566D01*
X008422Y031488D02*
X009354Y031488D01*
X009276Y031409D02*
X008500Y031409D01*
X008579Y031331D02*
X009197Y031331D01*
X009119Y031252D02*
X008657Y031252D01*
X008736Y031174D02*
X009040Y031174D01*
X008962Y031095D02*
X008814Y031095D01*
X007982Y032116D02*
X009794Y032116D01*
X009715Y032194D02*
X008061Y032194D01*
X008139Y032273D02*
X009637Y032273D01*
X009558Y032351D02*
X008218Y032351D01*
X008296Y032430D02*
X009480Y032430D01*
X009401Y032508D02*
X008375Y032508D01*
X008453Y032587D02*
X009323Y032587D01*
X009244Y032665D02*
X008532Y032665D01*
X008610Y032744D02*
X009166Y032744D01*
X009087Y032822D02*
X008689Y032822D01*
X008767Y032901D02*
X009009Y032901D01*
X008930Y032979D02*
X008846Y032979D01*
X038193Y009583D02*
X038593Y009583D01*
X037909Y009033D02*
X037911Y009095D01*
X037917Y009158D01*
X037927Y009219D01*
X037941Y009280D01*
X037958Y009340D01*
X037979Y009399D01*
X038005Y009456D01*
X038033Y009511D01*
X038065Y009565D01*
X038101Y009616D01*
X038139Y009666D01*
X038181Y009712D01*
X038225Y009756D01*
X038273Y009797D01*
X038322Y009835D01*
X038374Y009869D01*
X038428Y009900D01*
X038484Y009928D01*
X038542Y009952D01*
X038601Y009973D01*
X038661Y009989D01*
X038722Y010002D01*
X038784Y010011D01*
X038846Y010016D01*
X038909Y010017D01*
X038971Y010014D01*
X039033Y010007D01*
X039095Y009996D01*
X039155Y009981D01*
X039215Y009963D01*
X039273Y009941D01*
X039330Y009915D01*
X039385Y009885D01*
X039438Y009852D01*
X039489Y009816D01*
X039537Y009777D01*
X039583Y009734D01*
X039626Y009689D01*
X039666Y009641D01*
X039703Y009591D01*
X039737Y009538D01*
X039768Y009484D01*
X039794Y009428D01*
X039818Y009370D01*
X039837Y009310D01*
X039853Y009250D01*
X039865Y009188D01*
X039873Y009127D01*
X039877Y009064D01*
X039877Y009002D01*
X039873Y008939D01*
X039865Y008878D01*
X039853Y008816D01*
X039837Y008756D01*
X039818Y008696D01*
X039794Y008638D01*
X039768Y008582D01*
X039737Y008528D01*
X039703Y008475D01*
X039666Y008425D01*
X039626Y008377D01*
X039583Y008332D01*
X039537Y008289D01*
X039489Y008250D01*
X039438Y008214D01*
X039385Y008181D01*
X039330Y008151D01*
X039273Y008125D01*
X039215Y008103D01*
X039155Y008085D01*
X039095Y008070D01*
X039033Y008059D01*
X038971Y008052D01*
X038909Y008049D01*
X038846Y008050D01*
X038784Y008055D01*
X038722Y008064D01*
X038661Y008077D01*
X038601Y008093D01*
X038542Y008114D01*
X038484Y008138D01*
X038428Y008166D01*
X038374Y008197D01*
X038322Y008231D01*
X038273Y008269D01*
X038225Y008310D01*
X038181Y008354D01*
X038139Y008400D01*
X038101Y008450D01*
X038065Y008501D01*
X038033Y008555D01*
X038005Y008610D01*
X037979Y008667D01*
X037958Y008726D01*
X037941Y008786D01*
X037927Y008847D01*
X037917Y008908D01*
X037911Y008971D01*
X037909Y009033D01*
X067778Y027331D02*
X067932Y027331D01*
X068239Y027331D02*
X068853Y027331D01*
X068853Y027484D02*
X068853Y027177D01*
X068853Y026870D02*
X068853Y026410D01*
X068699Y026256D01*
X068392Y026256D01*
X068239Y026410D01*
X068239Y026870D01*
X068239Y027177D02*
X068239Y027331D01*
X068239Y027791D02*
X068239Y028098D01*
X068085Y027945D02*
X068699Y027945D01*
X068853Y028098D01*
X068853Y028405D02*
X068853Y028712D01*
X068853Y028558D02*
X068239Y028558D01*
X068239Y028405D01*
X067932Y028558D02*
X067778Y028558D01*
X068239Y029019D02*
X068853Y029326D01*
X068239Y029633D01*
X068392Y029940D02*
X068239Y030093D01*
X068239Y030400D01*
X068392Y030553D01*
X068546Y030553D01*
X068546Y029940D01*
X068699Y029940D02*
X068392Y029940D01*
X068699Y029940D02*
X068853Y030093D01*
X068853Y030400D01*
X068853Y031781D02*
X067932Y031781D01*
X067932Y032395D01*
X068392Y032088D02*
X068392Y031781D01*
X068392Y032702D02*
X068239Y032855D01*
X068239Y033162D01*
X068392Y033316D01*
X068546Y033316D01*
X068546Y032702D01*
X068699Y032702D02*
X068392Y032702D01*
X068699Y032702D02*
X068853Y032855D01*
X068853Y033162D01*
X068699Y033623D02*
X068392Y033623D01*
X068239Y033776D01*
X068239Y034083D01*
X068392Y034237D01*
X068546Y034237D01*
X068546Y033623D01*
X068699Y033623D02*
X068853Y033776D01*
X068853Y034083D01*
X068699Y034544D02*
X068392Y034544D01*
X068239Y034697D01*
X068239Y035157D01*
X067932Y035157D02*
X068853Y035157D01*
X068853Y034697D01*
X068699Y034544D01*
X068853Y035464D02*
X068853Y035771D01*
X068853Y035618D02*
X068239Y035618D01*
X068239Y035464D01*
X067932Y035618D02*
X067778Y035618D01*
X068239Y036078D02*
X068239Y036539D01*
X068392Y036692D01*
X068853Y036692D01*
X068699Y036999D02*
X068853Y037152D01*
X068853Y037613D01*
X069006Y037613D02*
X068239Y037613D01*
X068239Y037152D01*
X068392Y036999D01*
X068699Y036999D01*
X069159Y037306D02*
X069159Y037459D01*
X069006Y037613D01*
X068853Y038841D02*
X067932Y038841D01*
X068239Y039147D01*
X067932Y039454D01*
X068853Y039454D01*
X068699Y039761D02*
X068239Y039761D01*
X068699Y039761D02*
X068853Y039915D01*
X068853Y040375D01*
X068239Y040375D01*
X067932Y040682D02*
X067932Y040836D01*
X068853Y040836D01*
X068853Y040989D02*
X068853Y040682D01*
X068699Y041449D02*
X068085Y041449D01*
X068239Y041296D02*
X068239Y041603D01*
X068239Y041910D02*
X068239Y042063D01*
X068853Y042063D01*
X068853Y041910D02*
X068853Y042217D01*
X068853Y042524D02*
X068853Y042984D01*
X068699Y043138D01*
X068392Y043138D01*
X068239Y042984D01*
X068239Y042524D01*
X069159Y042524D01*
X068853Y043444D02*
X068853Y043751D01*
X068853Y043598D02*
X067932Y043598D01*
X067932Y043444D01*
X068392Y044058D02*
X068239Y044212D01*
X068239Y044519D01*
X068392Y044672D01*
X068546Y044672D01*
X068546Y044058D01*
X068699Y044058D02*
X068392Y044058D01*
X068699Y044058D02*
X068853Y044212D01*
X068853Y044519D01*
X068853Y044979D02*
X068239Y045593D01*
X068392Y045900D02*
X068699Y045900D01*
X068853Y046053D01*
X068853Y046360D01*
X068699Y046514D01*
X068392Y046514D01*
X068239Y046360D01*
X068239Y046053D01*
X068392Y045900D01*
X068853Y045593D02*
X068239Y044979D01*
X068239Y046821D02*
X068853Y046821D01*
X068546Y046821D02*
X068239Y047128D01*
X068239Y047281D01*
X067932Y042063D02*
X067778Y042063D01*
X068699Y041449D02*
X068853Y041603D01*
X068853Y036078D02*
X068239Y036078D01*
X068392Y025950D02*
X068853Y025950D01*
X068853Y025489D01*
X068699Y025336D01*
X068546Y025489D01*
X068546Y025950D01*
X068392Y025950D02*
X068239Y025796D01*
X068239Y025489D01*
X068392Y025029D02*
X068699Y025029D01*
X068853Y024875D01*
X068853Y024415D01*
X069159Y024415D02*
X068239Y024415D01*
X068239Y024875D01*
X068392Y025029D01*
X068392Y024108D02*
X068853Y024108D01*
X068853Y023648D01*
X068699Y023494D01*
X068546Y023648D01*
X068546Y024108D01*
X068392Y024108D02*
X068239Y023955D01*
X068239Y023648D01*
X068085Y023187D02*
X067932Y023034D01*
X067932Y022727D01*
X068085Y022573D01*
X068699Y022573D01*
X068853Y022727D01*
X068853Y023034D01*
X068699Y023187D01*
D14*
X054669Y037022D02*
X054671Y037051D01*
X054677Y037079D01*
X054687Y037106D01*
X054700Y037132D01*
X054717Y037156D01*
X054736Y037177D01*
X054759Y037195D01*
X054783Y037210D01*
X054810Y037222D01*
X054838Y037230D01*
X054867Y037234D01*
X054895Y037234D01*
X054924Y037230D01*
X054952Y037222D01*
X054979Y037210D01*
X055003Y037195D01*
X055026Y037177D01*
X055045Y037156D01*
X055062Y037132D01*
X055075Y037106D01*
X055085Y037079D01*
X055091Y037051D01*
X055093Y037022D01*
X055091Y036993D01*
X055085Y036965D01*
X055075Y036938D01*
X055062Y036912D01*
X055045Y036888D01*
X055026Y036867D01*
X055003Y036849D01*
X054979Y036834D01*
X054952Y036822D01*
X054924Y036814D01*
X054895Y036810D01*
X054867Y036810D01*
X054838Y036814D01*
X054810Y036822D01*
X054783Y036834D01*
X054759Y036849D01*
X054736Y036867D01*
X054717Y036888D01*
X054700Y036912D01*
X054687Y036938D01*
X054677Y036965D01*
X054671Y036993D01*
X054669Y037022D01*
X054669Y038029D02*
X054671Y038058D01*
X054677Y038086D01*
X054687Y038113D01*
X054700Y038139D01*
X054717Y038163D01*
X054736Y038184D01*
X054759Y038202D01*
X054783Y038217D01*
X054810Y038229D01*
X054838Y038237D01*
X054867Y038241D01*
X054895Y038241D01*
X054924Y038237D01*
X054952Y038229D01*
X054979Y038217D01*
X055003Y038202D01*
X055026Y038184D01*
X055045Y038163D01*
X055062Y038139D01*
X055075Y038113D01*
X055085Y038086D01*
X055091Y038058D01*
X055093Y038029D01*
X055091Y038000D01*
X055085Y037972D01*
X055075Y037945D01*
X055062Y037919D01*
X055045Y037895D01*
X055026Y037874D01*
X055003Y037856D01*
X054979Y037841D01*
X054952Y037829D01*
X054924Y037821D01*
X054895Y037817D01*
X054867Y037817D01*
X054838Y037821D01*
X054810Y037829D01*
X054783Y037841D01*
X054759Y037856D01*
X054736Y037874D01*
X054717Y037895D01*
X054700Y037919D01*
X054687Y037945D01*
X054677Y037972D01*
X054671Y038000D01*
X054669Y038029D01*
X049145Y039726D02*
X049147Y039755D01*
X049153Y039783D01*
X049163Y039810D01*
X049176Y039836D01*
X049193Y039860D01*
X049212Y039881D01*
X049235Y039899D01*
X049259Y039914D01*
X049286Y039926D01*
X049314Y039934D01*
X049343Y039938D01*
X049371Y039938D01*
X049400Y039934D01*
X049428Y039926D01*
X049455Y039914D01*
X049479Y039899D01*
X049502Y039881D01*
X049521Y039860D01*
X049538Y039836D01*
X049551Y039810D01*
X049561Y039783D01*
X049567Y039755D01*
X049569Y039726D01*
X049567Y039697D01*
X049561Y039669D01*
X049551Y039642D01*
X049538Y039616D01*
X049521Y039592D01*
X049502Y039571D01*
X049479Y039553D01*
X049455Y039538D01*
X049428Y039526D01*
X049400Y039518D01*
X049371Y039514D01*
X049343Y039514D01*
X049314Y039518D01*
X049286Y039526D01*
X049259Y039538D01*
X049235Y039553D01*
X049212Y039571D01*
X049193Y039592D01*
X049176Y039616D01*
X049163Y039642D01*
X049153Y039669D01*
X049147Y039697D01*
X049145Y039726D01*
X048145Y039726D02*
X048147Y039755D01*
X048153Y039783D01*
X048163Y039810D01*
X048176Y039836D01*
X048193Y039860D01*
X048212Y039881D01*
X048235Y039899D01*
X048259Y039914D01*
X048286Y039926D01*
X048314Y039934D01*
X048343Y039938D01*
X048371Y039938D01*
X048400Y039934D01*
X048428Y039926D01*
X048455Y039914D01*
X048479Y039899D01*
X048502Y039881D01*
X048521Y039860D01*
X048538Y039836D01*
X048551Y039810D01*
X048561Y039783D01*
X048567Y039755D01*
X048569Y039726D01*
X048567Y039697D01*
X048561Y039669D01*
X048551Y039642D01*
X048538Y039616D01*
X048521Y039592D01*
X048502Y039571D01*
X048479Y039553D01*
X048455Y039538D01*
X048428Y039526D01*
X048400Y039518D01*
X048371Y039514D01*
X048343Y039514D01*
X048314Y039518D01*
X048286Y039526D01*
X048259Y039538D01*
X048235Y039553D01*
X048212Y039571D01*
X048193Y039592D01*
X048176Y039616D01*
X048163Y039642D01*
X048153Y039669D01*
X048147Y039697D01*
X048145Y039726D01*
X047145Y039726D02*
X047147Y039755D01*
X047153Y039783D01*
X047163Y039810D01*
X047176Y039836D01*
X047193Y039860D01*
X047212Y039881D01*
X047235Y039899D01*
X047259Y039914D01*
X047286Y039926D01*
X047314Y039934D01*
X047343Y039938D01*
X047371Y039938D01*
X047400Y039934D01*
X047428Y039926D01*
X047455Y039914D01*
X047479Y039899D01*
X047502Y039881D01*
X047521Y039860D01*
X047538Y039836D01*
X047551Y039810D01*
X047561Y039783D01*
X047567Y039755D01*
X047569Y039726D01*
X047567Y039697D01*
X047561Y039669D01*
X047551Y039642D01*
X047538Y039616D01*
X047521Y039592D01*
X047502Y039571D01*
X047479Y039553D01*
X047455Y039538D01*
X047428Y039526D01*
X047400Y039518D01*
X047371Y039514D01*
X047343Y039514D01*
X047314Y039518D01*
X047286Y039526D01*
X047259Y039538D01*
X047235Y039553D01*
X047212Y039571D01*
X047193Y039592D01*
X047176Y039616D01*
X047163Y039642D01*
X047153Y039669D01*
X047147Y039697D01*
X047145Y039726D01*
X046145Y039726D02*
X046147Y039755D01*
X046153Y039783D01*
X046163Y039810D01*
X046176Y039836D01*
X046193Y039860D01*
X046212Y039881D01*
X046235Y039899D01*
X046259Y039914D01*
X046286Y039926D01*
X046314Y039934D01*
X046343Y039938D01*
X046371Y039938D01*
X046400Y039934D01*
X046428Y039926D01*
X046455Y039914D01*
X046479Y039899D01*
X046502Y039881D01*
X046521Y039860D01*
X046538Y039836D01*
X046551Y039810D01*
X046561Y039783D01*
X046567Y039755D01*
X046569Y039726D01*
X046567Y039697D01*
X046561Y039669D01*
X046551Y039642D01*
X046538Y039616D01*
X046521Y039592D01*
X046502Y039571D01*
X046479Y039553D01*
X046455Y039538D01*
X046428Y039526D01*
X046400Y039518D01*
X046371Y039514D01*
X046343Y039514D01*
X046314Y039518D01*
X046286Y039526D01*
X046259Y039538D01*
X046235Y039553D01*
X046212Y039571D01*
X046193Y039592D01*
X046176Y039616D01*
X046163Y039642D01*
X046153Y039669D01*
X046147Y039697D01*
X046145Y039726D01*
X045145Y039726D02*
X045147Y039755D01*
X045153Y039783D01*
X045163Y039810D01*
X045176Y039836D01*
X045193Y039860D01*
X045212Y039881D01*
X045235Y039899D01*
X045259Y039914D01*
X045286Y039926D01*
X045314Y039934D01*
X045343Y039938D01*
X045371Y039938D01*
X045400Y039934D01*
X045428Y039926D01*
X045455Y039914D01*
X045479Y039899D01*
X045502Y039881D01*
X045521Y039860D01*
X045538Y039836D01*
X045551Y039810D01*
X045561Y039783D01*
X045567Y039755D01*
X045569Y039726D01*
X045567Y039697D01*
X045561Y039669D01*
X045551Y039642D01*
X045538Y039616D01*
X045521Y039592D01*
X045502Y039571D01*
X045479Y039553D01*
X045455Y039538D01*
X045428Y039526D01*
X045400Y039518D01*
X045371Y039514D01*
X045343Y039514D01*
X045314Y039518D01*
X045286Y039526D01*
X045259Y039538D01*
X045235Y039553D01*
X045212Y039571D01*
X045193Y039592D01*
X045176Y039616D01*
X045163Y039642D01*
X045153Y039669D01*
X045147Y039697D01*
X045145Y039726D01*
X044145Y039726D02*
X044147Y039755D01*
X044153Y039783D01*
X044163Y039810D01*
X044176Y039836D01*
X044193Y039860D01*
X044212Y039881D01*
X044235Y039899D01*
X044259Y039914D01*
X044286Y039926D01*
X044314Y039934D01*
X044343Y039938D01*
X044371Y039938D01*
X044400Y039934D01*
X044428Y039926D01*
X044455Y039914D01*
X044479Y039899D01*
X044502Y039881D01*
X044521Y039860D01*
X044538Y039836D01*
X044551Y039810D01*
X044561Y039783D01*
X044567Y039755D01*
X044569Y039726D01*
X044567Y039697D01*
X044561Y039669D01*
X044551Y039642D01*
X044538Y039616D01*
X044521Y039592D01*
X044502Y039571D01*
X044479Y039553D01*
X044455Y039538D01*
X044428Y039526D01*
X044400Y039518D01*
X044371Y039514D01*
X044343Y039514D01*
X044314Y039518D01*
X044286Y039526D01*
X044259Y039538D01*
X044235Y039553D01*
X044212Y039571D01*
X044193Y039592D01*
X044176Y039616D01*
X044163Y039642D01*
X044153Y039669D01*
X044147Y039697D01*
X044145Y039726D01*
X043145Y039726D02*
X043147Y039755D01*
X043153Y039783D01*
X043163Y039810D01*
X043176Y039836D01*
X043193Y039860D01*
X043212Y039881D01*
X043235Y039899D01*
X043259Y039914D01*
X043286Y039926D01*
X043314Y039934D01*
X043343Y039938D01*
X043371Y039938D01*
X043400Y039934D01*
X043428Y039926D01*
X043455Y039914D01*
X043479Y039899D01*
X043502Y039881D01*
X043521Y039860D01*
X043538Y039836D01*
X043551Y039810D01*
X043561Y039783D01*
X043567Y039755D01*
X043569Y039726D01*
X043567Y039697D01*
X043561Y039669D01*
X043551Y039642D01*
X043538Y039616D01*
X043521Y039592D01*
X043502Y039571D01*
X043479Y039553D01*
X043455Y039538D01*
X043428Y039526D01*
X043400Y039518D01*
X043371Y039514D01*
X043343Y039514D01*
X043314Y039518D01*
X043286Y039526D01*
X043259Y039538D01*
X043235Y039553D01*
X043212Y039571D01*
X043193Y039592D01*
X043176Y039616D01*
X043163Y039642D01*
X043153Y039669D01*
X043147Y039697D01*
X043145Y039726D01*
X042145Y039726D02*
X042147Y039755D01*
X042153Y039783D01*
X042163Y039810D01*
X042176Y039836D01*
X042193Y039860D01*
X042212Y039881D01*
X042235Y039899D01*
X042259Y039914D01*
X042286Y039926D01*
X042314Y039934D01*
X042343Y039938D01*
X042371Y039938D01*
X042400Y039934D01*
X042428Y039926D01*
X042455Y039914D01*
X042479Y039899D01*
X042502Y039881D01*
X042521Y039860D01*
X042538Y039836D01*
X042551Y039810D01*
X042561Y039783D01*
X042567Y039755D01*
X042569Y039726D01*
X042567Y039697D01*
X042561Y039669D01*
X042551Y039642D01*
X042538Y039616D01*
X042521Y039592D01*
X042502Y039571D01*
X042479Y039553D01*
X042455Y039538D01*
X042428Y039526D01*
X042400Y039518D01*
X042371Y039514D01*
X042343Y039514D01*
X042314Y039518D01*
X042286Y039526D01*
X042259Y039538D01*
X042235Y039553D01*
X042212Y039571D01*
X042193Y039592D01*
X042176Y039616D01*
X042163Y039642D01*
X042153Y039669D01*
X042147Y039697D01*
X042145Y039726D01*
X041145Y039726D02*
X041147Y039755D01*
X041153Y039783D01*
X041163Y039810D01*
X041176Y039836D01*
X041193Y039860D01*
X041212Y039881D01*
X041235Y039899D01*
X041259Y039914D01*
X041286Y039926D01*
X041314Y039934D01*
X041343Y039938D01*
X041371Y039938D01*
X041400Y039934D01*
X041428Y039926D01*
X041455Y039914D01*
X041479Y039899D01*
X041502Y039881D01*
X041521Y039860D01*
X041538Y039836D01*
X041551Y039810D01*
X041561Y039783D01*
X041567Y039755D01*
X041569Y039726D01*
X041567Y039697D01*
X041561Y039669D01*
X041551Y039642D01*
X041538Y039616D01*
X041521Y039592D01*
X041502Y039571D01*
X041479Y039553D01*
X041455Y039538D01*
X041428Y039526D01*
X041400Y039518D01*
X041371Y039514D01*
X041343Y039514D01*
X041314Y039518D01*
X041286Y039526D01*
X041259Y039538D01*
X041235Y039553D01*
X041212Y039571D01*
X041193Y039592D01*
X041176Y039616D01*
X041163Y039642D01*
X041153Y039669D01*
X041147Y039697D01*
X041145Y039726D01*
X040145Y039726D02*
X040147Y039755D01*
X040153Y039783D01*
X040163Y039810D01*
X040176Y039836D01*
X040193Y039860D01*
X040212Y039881D01*
X040235Y039899D01*
X040259Y039914D01*
X040286Y039926D01*
X040314Y039934D01*
X040343Y039938D01*
X040371Y039938D01*
X040400Y039934D01*
X040428Y039926D01*
X040455Y039914D01*
X040479Y039899D01*
X040502Y039881D01*
X040521Y039860D01*
X040538Y039836D01*
X040551Y039810D01*
X040561Y039783D01*
X040567Y039755D01*
X040569Y039726D01*
X040567Y039697D01*
X040561Y039669D01*
X040551Y039642D01*
X040538Y039616D01*
X040521Y039592D01*
X040502Y039571D01*
X040479Y039553D01*
X040455Y039538D01*
X040428Y039526D01*
X040400Y039518D01*
X040371Y039514D01*
X040343Y039514D01*
X040314Y039518D01*
X040286Y039526D01*
X040259Y039538D01*
X040235Y039553D01*
X040212Y039571D01*
X040193Y039592D01*
X040176Y039616D01*
X040163Y039642D01*
X040153Y039669D01*
X040147Y039697D01*
X040145Y039726D01*
X039145Y039726D02*
X039147Y039755D01*
X039153Y039783D01*
X039163Y039810D01*
X039176Y039836D01*
X039193Y039860D01*
X039212Y039881D01*
X039235Y039899D01*
X039259Y039914D01*
X039286Y039926D01*
X039314Y039934D01*
X039343Y039938D01*
X039371Y039938D01*
X039400Y039934D01*
X039428Y039926D01*
X039455Y039914D01*
X039479Y039899D01*
X039502Y039881D01*
X039521Y039860D01*
X039538Y039836D01*
X039551Y039810D01*
X039561Y039783D01*
X039567Y039755D01*
X039569Y039726D01*
X039567Y039697D01*
X039561Y039669D01*
X039551Y039642D01*
X039538Y039616D01*
X039521Y039592D01*
X039502Y039571D01*
X039479Y039553D01*
X039455Y039538D01*
X039428Y039526D01*
X039400Y039518D01*
X039371Y039514D01*
X039343Y039514D01*
X039314Y039518D01*
X039286Y039526D01*
X039259Y039538D01*
X039235Y039553D01*
X039212Y039571D01*
X039193Y039592D01*
X039176Y039616D01*
X039163Y039642D01*
X039153Y039669D01*
X039147Y039697D01*
X039145Y039726D01*
X038145Y039726D02*
X038147Y039755D01*
X038153Y039783D01*
X038163Y039810D01*
X038176Y039836D01*
X038193Y039860D01*
X038212Y039881D01*
X038235Y039899D01*
X038259Y039914D01*
X038286Y039926D01*
X038314Y039934D01*
X038343Y039938D01*
X038371Y039938D01*
X038400Y039934D01*
X038428Y039926D01*
X038455Y039914D01*
X038479Y039899D01*
X038502Y039881D01*
X038521Y039860D01*
X038538Y039836D01*
X038551Y039810D01*
X038561Y039783D01*
X038567Y039755D01*
X038569Y039726D01*
X038567Y039697D01*
X038561Y039669D01*
X038551Y039642D01*
X038538Y039616D01*
X038521Y039592D01*
X038502Y039571D01*
X038479Y039553D01*
X038455Y039538D01*
X038428Y039526D01*
X038400Y039518D01*
X038371Y039514D01*
X038343Y039514D01*
X038314Y039518D01*
X038286Y039526D01*
X038259Y039538D01*
X038235Y039553D01*
X038212Y039571D01*
X038193Y039592D01*
X038176Y039616D01*
X038163Y039642D01*
X038153Y039669D01*
X038147Y039697D01*
X038145Y039726D01*
X037145Y039726D02*
X037147Y039755D01*
X037153Y039783D01*
X037163Y039810D01*
X037176Y039836D01*
X037193Y039860D01*
X037212Y039881D01*
X037235Y039899D01*
X037259Y039914D01*
X037286Y039926D01*
X037314Y039934D01*
X037343Y039938D01*
X037371Y039938D01*
X037400Y039934D01*
X037428Y039926D01*
X037455Y039914D01*
X037479Y039899D01*
X037502Y039881D01*
X037521Y039860D01*
X037538Y039836D01*
X037551Y039810D01*
X037561Y039783D01*
X037567Y039755D01*
X037569Y039726D01*
X037567Y039697D01*
X037561Y039669D01*
X037551Y039642D01*
X037538Y039616D01*
X037521Y039592D01*
X037502Y039571D01*
X037479Y039553D01*
X037455Y039538D01*
X037428Y039526D01*
X037400Y039518D01*
X037371Y039514D01*
X037343Y039514D01*
X037314Y039518D01*
X037286Y039526D01*
X037259Y039538D01*
X037235Y039553D01*
X037212Y039571D01*
X037193Y039592D01*
X037176Y039616D01*
X037163Y039642D01*
X037153Y039669D01*
X037147Y039697D01*
X037145Y039726D01*
X036145Y039726D02*
X036147Y039755D01*
X036153Y039783D01*
X036163Y039810D01*
X036176Y039836D01*
X036193Y039860D01*
X036212Y039881D01*
X036235Y039899D01*
X036259Y039914D01*
X036286Y039926D01*
X036314Y039934D01*
X036343Y039938D01*
X036371Y039938D01*
X036400Y039934D01*
X036428Y039926D01*
X036455Y039914D01*
X036479Y039899D01*
X036502Y039881D01*
X036521Y039860D01*
X036538Y039836D01*
X036551Y039810D01*
X036561Y039783D01*
X036567Y039755D01*
X036569Y039726D01*
X036567Y039697D01*
X036561Y039669D01*
X036551Y039642D01*
X036538Y039616D01*
X036521Y039592D01*
X036502Y039571D01*
X036479Y039553D01*
X036455Y039538D01*
X036428Y039526D01*
X036400Y039518D01*
X036371Y039514D01*
X036343Y039514D01*
X036314Y039518D01*
X036286Y039526D01*
X036259Y039538D01*
X036235Y039553D01*
X036212Y039571D01*
X036193Y039592D01*
X036176Y039616D01*
X036163Y039642D01*
X036153Y039669D01*
X036147Y039697D01*
X036145Y039726D01*
X035145Y039726D02*
X035147Y039755D01*
X035153Y039783D01*
X035163Y039810D01*
X035176Y039836D01*
X035193Y039860D01*
X035212Y039881D01*
X035235Y039899D01*
X035259Y039914D01*
X035286Y039926D01*
X035314Y039934D01*
X035343Y039938D01*
X035371Y039938D01*
X035400Y039934D01*
X035428Y039926D01*
X035455Y039914D01*
X035479Y039899D01*
X035502Y039881D01*
X035521Y039860D01*
X035538Y039836D01*
X035551Y039810D01*
X035561Y039783D01*
X035567Y039755D01*
X035569Y039726D01*
X035567Y039697D01*
X035561Y039669D01*
X035551Y039642D01*
X035538Y039616D01*
X035521Y039592D01*
X035502Y039571D01*
X035479Y039553D01*
X035455Y039538D01*
X035428Y039526D01*
X035400Y039518D01*
X035371Y039514D01*
X035343Y039514D01*
X035314Y039518D01*
X035286Y039526D01*
X035259Y039538D01*
X035235Y039553D01*
X035212Y039571D01*
X035193Y039592D01*
X035176Y039616D01*
X035163Y039642D01*
X035153Y039669D01*
X035147Y039697D01*
X035145Y039726D01*
X034145Y039726D02*
X034147Y039755D01*
X034153Y039783D01*
X034163Y039810D01*
X034176Y039836D01*
X034193Y039860D01*
X034212Y039881D01*
X034235Y039899D01*
X034259Y039914D01*
X034286Y039926D01*
X034314Y039934D01*
X034343Y039938D01*
X034371Y039938D01*
X034400Y039934D01*
X034428Y039926D01*
X034455Y039914D01*
X034479Y039899D01*
X034502Y039881D01*
X034521Y039860D01*
X034538Y039836D01*
X034551Y039810D01*
X034561Y039783D01*
X034567Y039755D01*
X034569Y039726D01*
X034567Y039697D01*
X034561Y039669D01*
X034551Y039642D01*
X034538Y039616D01*
X034521Y039592D01*
X034502Y039571D01*
X034479Y039553D01*
X034455Y039538D01*
X034428Y039526D01*
X034400Y039518D01*
X034371Y039514D01*
X034343Y039514D01*
X034314Y039518D01*
X034286Y039526D01*
X034259Y039538D01*
X034235Y039553D01*
X034212Y039571D01*
X034193Y039592D01*
X034176Y039616D01*
X034163Y039642D01*
X034153Y039669D01*
X034147Y039697D01*
X034145Y039726D01*
X033145Y039726D02*
X033147Y039755D01*
X033153Y039783D01*
X033163Y039810D01*
X033176Y039836D01*
X033193Y039860D01*
X033212Y039881D01*
X033235Y039899D01*
X033259Y039914D01*
X033286Y039926D01*
X033314Y039934D01*
X033343Y039938D01*
X033371Y039938D01*
X033400Y039934D01*
X033428Y039926D01*
X033455Y039914D01*
X033479Y039899D01*
X033502Y039881D01*
X033521Y039860D01*
X033538Y039836D01*
X033551Y039810D01*
X033561Y039783D01*
X033567Y039755D01*
X033569Y039726D01*
X033567Y039697D01*
X033561Y039669D01*
X033551Y039642D01*
X033538Y039616D01*
X033521Y039592D01*
X033502Y039571D01*
X033479Y039553D01*
X033455Y039538D01*
X033428Y039526D01*
X033400Y039518D01*
X033371Y039514D01*
X033343Y039514D01*
X033314Y039518D01*
X033286Y039526D01*
X033259Y039538D01*
X033235Y039553D01*
X033212Y039571D01*
X033193Y039592D01*
X033176Y039616D01*
X033163Y039642D01*
X033153Y039669D01*
X033147Y039697D01*
X033145Y039726D01*
X033145Y040726D02*
X033147Y040755D01*
X033153Y040783D01*
X033163Y040810D01*
X033176Y040836D01*
X033193Y040860D01*
X033212Y040881D01*
X033235Y040899D01*
X033259Y040914D01*
X033286Y040926D01*
X033314Y040934D01*
X033343Y040938D01*
X033371Y040938D01*
X033400Y040934D01*
X033428Y040926D01*
X033455Y040914D01*
X033479Y040899D01*
X033502Y040881D01*
X033521Y040860D01*
X033538Y040836D01*
X033551Y040810D01*
X033561Y040783D01*
X033567Y040755D01*
X033569Y040726D01*
X033567Y040697D01*
X033561Y040669D01*
X033551Y040642D01*
X033538Y040616D01*
X033521Y040592D01*
X033502Y040571D01*
X033479Y040553D01*
X033455Y040538D01*
X033428Y040526D01*
X033400Y040518D01*
X033371Y040514D01*
X033343Y040514D01*
X033314Y040518D01*
X033286Y040526D01*
X033259Y040538D01*
X033235Y040553D01*
X033212Y040571D01*
X033193Y040592D01*
X033176Y040616D01*
X033163Y040642D01*
X033153Y040669D01*
X033147Y040697D01*
X033145Y040726D01*
X034145Y040726D02*
X034147Y040755D01*
X034153Y040783D01*
X034163Y040810D01*
X034176Y040836D01*
X034193Y040860D01*
X034212Y040881D01*
X034235Y040899D01*
X034259Y040914D01*
X034286Y040926D01*
X034314Y040934D01*
X034343Y040938D01*
X034371Y040938D01*
X034400Y040934D01*
X034428Y040926D01*
X034455Y040914D01*
X034479Y040899D01*
X034502Y040881D01*
X034521Y040860D01*
X034538Y040836D01*
X034551Y040810D01*
X034561Y040783D01*
X034567Y040755D01*
X034569Y040726D01*
X034567Y040697D01*
X034561Y040669D01*
X034551Y040642D01*
X034538Y040616D01*
X034521Y040592D01*
X034502Y040571D01*
X034479Y040553D01*
X034455Y040538D01*
X034428Y040526D01*
X034400Y040518D01*
X034371Y040514D01*
X034343Y040514D01*
X034314Y040518D01*
X034286Y040526D01*
X034259Y040538D01*
X034235Y040553D01*
X034212Y040571D01*
X034193Y040592D01*
X034176Y040616D01*
X034163Y040642D01*
X034153Y040669D01*
X034147Y040697D01*
X034145Y040726D01*
X035145Y040726D02*
X035147Y040755D01*
X035153Y040783D01*
X035163Y040810D01*
X035176Y040836D01*
X035193Y040860D01*
X035212Y040881D01*
X035235Y040899D01*
X035259Y040914D01*
X035286Y040926D01*
X035314Y040934D01*
X035343Y040938D01*
X035371Y040938D01*
X035400Y040934D01*
X035428Y040926D01*
X035455Y040914D01*
X035479Y040899D01*
X035502Y040881D01*
X035521Y040860D01*
X035538Y040836D01*
X035551Y040810D01*
X035561Y040783D01*
X035567Y040755D01*
X035569Y040726D01*
X035567Y040697D01*
X035561Y040669D01*
X035551Y040642D01*
X035538Y040616D01*
X035521Y040592D01*
X035502Y040571D01*
X035479Y040553D01*
X035455Y040538D01*
X035428Y040526D01*
X035400Y040518D01*
X035371Y040514D01*
X035343Y040514D01*
X035314Y040518D01*
X035286Y040526D01*
X035259Y040538D01*
X035235Y040553D01*
X035212Y040571D01*
X035193Y040592D01*
X035176Y040616D01*
X035163Y040642D01*
X035153Y040669D01*
X035147Y040697D01*
X035145Y040726D01*
X036145Y040726D02*
X036147Y040755D01*
X036153Y040783D01*
X036163Y040810D01*
X036176Y040836D01*
X036193Y040860D01*
X036212Y040881D01*
X036235Y040899D01*
X036259Y040914D01*
X036286Y040926D01*
X036314Y040934D01*
X036343Y040938D01*
X036371Y040938D01*
X036400Y040934D01*
X036428Y040926D01*
X036455Y040914D01*
X036479Y040899D01*
X036502Y040881D01*
X036521Y040860D01*
X036538Y040836D01*
X036551Y040810D01*
X036561Y040783D01*
X036567Y040755D01*
X036569Y040726D01*
X036567Y040697D01*
X036561Y040669D01*
X036551Y040642D01*
X036538Y040616D01*
X036521Y040592D01*
X036502Y040571D01*
X036479Y040553D01*
X036455Y040538D01*
X036428Y040526D01*
X036400Y040518D01*
X036371Y040514D01*
X036343Y040514D01*
X036314Y040518D01*
X036286Y040526D01*
X036259Y040538D01*
X036235Y040553D01*
X036212Y040571D01*
X036193Y040592D01*
X036176Y040616D01*
X036163Y040642D01*
X036153Y040669D01*
X036147Y040697D01*
X036145Y040726D01*
X037145Y040726D02*
X037147Y040755D01*
X037153Y040783D01*
X037163Y040810D01*
X037176Y040836D01*
X037193Y040860D01*
X037212Y040881D01*
X037235Y040899D01*
X037259Y040914D01*
X037286Y040926D01*
X037314Y040934D01*
X037343Y040938D01*
X037371Y040938D01*
X037400Y040934D01*
X037428Y040926D01*
X037455Y040914D01*
X037479Y040899D01*
X037502Y040881D01*
X037521Y040860D01*
X037538Y040836D01*
X037551Y040810D01*
X037561Y040783D01*
X037567Y040755D01*
X037569Y040726D01*
X037567Y040697D01*
X037561Y040669D01*
X037551Y040642D01*
X037538Y040616D01*
X037521Y040592D01*
X037502Y040571D01*
X037479Y040553D01*
X037455Y040538D01*
X037428Y040526D01*
X037400Y040518D01*
X037371Y040514D01*
X037343Y040514D01*
X037314Y040518D01*
X037286Y040526D01*
X037259Y040538D01*
X037235Y040553D01*
X037212Y040571D01*
X037193Y040592D01*
X037176Y040616D01*
X037163Y040642D01*
X037153Y040669D01*
X037147Y040697D01*
X037145Y040726D01*
X038145Y040726D02*
X038147Y040755D01*
X038153Y040783D01*
X038163Y040810D01*
X038176Y040836D01*
X038193Y040860D01*
X038212Y040881D01*
X038235Y040899D01*
X038259Y040914D01*
X038286Y040926D01*
X038314Y040934D01*
X038343Y040938D01*
X038371Y040938D01*
X038400Y040934D01*
X038428Y040926D01*
X038455Y040914D01*
X038479Y040899D01*
X038502Y040881D01*
X038521Y040860D01*
X038538Y040836D01*
X038551Y040810D01*
X038561Y040783D01*
X038567Y040755D01*
X038569Y040726D01*
X038567Y040697D01*
X038561Y040669D01*
X038551Y040642D01*
X038538Y040616D01*
X038521Y040592D01*
X038502Y040571D01*
X038479Y040553D01*
X038455Y040538D01*
X038428Y040526D01*
X038400Y040518D01*
X038371Y040514D01*
X038343Y040514D01*
X038314Y040518D01*
X038286Y040526D01*
X038259Y040538D01*
X038235Y040553D01*
X038212Y040571D01*
X038193Y040592D01*
X038176Y040616D01*
X038163Y040642D01*
X038153Y040669D01*
X038147Y040697D01*
X038145Y040726D01*
X039145Y040726D02*
X039147Y040755D01*
X039153Y040783D01*
X039163Y040810D01*
X039176Y040836D01*
X039193Y040860D01*
X039212Y040881D01*
X039235Y040899D01*
X039259Y040914D01*
X039286Y040926D01*
X039314Y040934D01*
X039343Y040938D01*
X039371Y040938D01*
X039400Y040934D01*
X039428Y040926D01*
X039455Y040914D01*
X039479Y040899D01*
X039502Y040881D01*
X039521Y040860D01*
X039538Y040836D01*
X039551Y040810D01*
X039561Y040783D01*
X039567Y040755D01*
X039569Y040726D01*
X039567Y040697D01*
X039561Y040669D01*
X039551Y040642D01*
X039538Y040616D01*
X039521Y040592D01*
X039502Y040571D01*
X039479Y040553D01*
X039455Y040538D01*
X039428Y040526D01*
X039400Y040518D01*
X039371Y040514D01*
X039343Y040514D01*
X039314Y040518D01*
X039286Y040526D01*
X039259Y040538D01*
X039235Y040553D01*
X039212Y040571D01*
X039193Y040592D01*
X039176Y040616D01*
X039163Y040642D01*
X039153Y040669D01*
X039147Y040697D01*
X039145Y040726D01*
X040145Y040726D02*
X040147Y040755D01*
X040153Y040783D01*
X040163Y040810D01*
X040176Y040836D01*
X040193Y040860D01*
X040212Y040881D01*
X040235Y040899D01*
X040259Y040914D01*
X040286Y040926D01*
X040314Y040934D01*
X040343Y040938D01*
X040371Y040938D01*
X040400Y040934D01*
X040428Y040926D01*
X040455Y040914D01*
X040479Y040899D01*
X040502Y040881D01*
X040521Y040860D01*
X040538Y040836D01*
X040551Y040810D01*
X040561Y040783D01*
X040567Y040755D01*
X040569Y040726D01*
X040567Y040697D01*
X040561Y040669D01*
X040551Y040642D01*
X040538Y040616D01*
X040521Y040592D01*
X040502Y040571D01*
X040479Y040553D01*
X040455Y040538D01*
X040428Y040526D01*
X040400Y040518D01*
X040371Y040514D01*
X040343Y040514D01*
X040314Y040518D01*
X040286Y040526D01*
X040259Y040538D01*
X040235Y040553D01*
X040212Y040571D01*
X040193Y040592D01*
X040176Y040616D01*
X040163Y040642D01*
X040153Y040669D01*
X040147Y040697D01*
X040145Y040726D01*
X041145Y040726D02*
X041147Y040755D01*
X041153Y040783D01*
X041163Y040810D01*
X041176Y040836D01*
X041193Y040860D01*
X041212Y040881D01*
X041235Y040899D01*
X041259Y040914D01*
X041286Y040926D01*
X041314Y040934D01*
X041343Y040938D01*
X041371Y040938D01*
X041400Y040934D01*
X041428Y040926D01*
X041455Y040914D01*
X041479Y040899D01*
X041502Y040881D01*
X041521Y040860D01*
X041538Y040836D01*
X041551Y040810D01*
X041561Y040783D01*
X041567Y040755D01*
X041569Y040726D01*
X041567Y040697D01*
X041561Y040669D01*
X041551Y040642D01*
X041538Y040616D01*
X041521Y040592D01*
X041502Y040571D01*
X041479Y040553D01*
X041455Y040538D01*
X041428Y040526D01*
X041400Y040518D01*
X041371Y040514D01*
X041343Y040514D01*
X041314Y040518D01*
X041286Y040526D01*
X041259Y040538D01*
X041235Y040553D01*
X041212Y040571D01*
X041193Y040592D01*
X041176Y040616D01*
X041163Y040642D01*
X041153Y040669D01*
X041147Y040697D01*
X041145Y040726D01*
X042145Y040726D02*
X042147Y040755D01*
X042153Y040783D01*
X042163Y040810D01*
X042176Y040836D01*
X042193Y040860D01*
X042212Y040881D01*
X042235Y040899D01*
X042259Y040914D01*
X042286Y040926D01*
X042314Y040934D01*
X042343Y040938D01*
X042371Y040938D01*
X042400Y040934D01*
X042428Y040926D01*
X042455Y040914D01*
X042479Y040899D01*
X042502Y040881D01*
X042521Y040860D01*
X042538Y040836D01*
X042551Y040810D01*
X042561Y040783D01*
X042567Y040755D01*
X042569Y040726D01*
X042567Y040697D01*
X042561Y040669D01*
X042551Y040642D01*
X042538Y040616D01*
X042521Y040592D01*
X042502Y040571D01*
X042479Y040553D01*
X042455Y040538D01*
X042428Y040526D01*
X042400Y040518D01*
X042371Y040514D01*
X042343Y040514D01*
X042314Y040518D01*
X042286Y040526D01*
X042259Y040538D01*
X042235Y040553D01*
X042212Y040571D01*
X042193Y040592D01*
X042176Y040616D01*
X042163Y040642D01*
X042153Y040669D01*
X042147Y040697D01*
X042145Y040726D01*
X043145Y040726D02*
X043147Y040755D01*
X043153Y040783D01*
X043163Y040810D01*
X043176Y040836D01*
X043193Y040860D01*
X043212Y040881D01*
X043235Y040899D01*
X043259Y040914D01*
X043286Y040926D01*
X043314Y040934D01*
X043343Y040938D01*
X043371Y040938D01*
X043400Y040934D01*
X043428Y040926D01*
X043455Y040914D01*
X043479Y040899D01*
X043502Y040881D01*
X043521Y040860D01*
X043538Y040836D01*
X043551Y040810D01*
X043561Y040783D01*
X043567Y040755D01*
X043569Y040726D01*
X043567Y040697D01*
X043561Y040669D01*
X043551Y040642D01*
X043538Y040616D01*
X043521Y040592D01*
X043502Y040571D01*
X043479Y040553D01*
X043455Y040538D01*
X043428Y040526D01*
X043400Y040518D01*
X043371Y040514D01*
X043343Y040514D01*
X043314Y040518D01*
X043286Y040526D01*
X043259Y040538D01*
X043235Y040553D01*
X043212Y040571D01*
X043193Y040592D01*
X043176Y040616D01*
X043163Y040642D01*
X043153Y040669D01*
X043147Y040697D01*
X043145Y040726D01*
X044145Y040726D02*
X044147Y040755D01*
X044153Y040783D01*
X044163Y040810D01*
X044176Y040836D01*
X044193Y040860D01*
X044212Y040881D01*
X044235Y040899D01*
X044259Y040914D01*
X044286Y040926D01*
X044314Y040934D01*
X044343Y040938D01*
X044371Y040938D01*
X044400Y040934D01*
X044428Y040926D01*
X044455Y040914D01*
X044479Y040899D01*
X044502Y040881D01*
X044521Y040860D01*
X044538Y040836D01*
X044551Y040810D01*
X044561Y040783D01*
X044567Y040755D01*
X044569Y040726D01*
X044567Y040697D01*
X044561Y040669D01*
X044551Y040642D01*
X044538Y040616D01*
X044521Y040592D01*
X044502Y040571D01*
X044479Y040553D01*
X044455Y040538D01*
X044428Y040526D01*
X044400Y040518D01*
X044371Y040514D01*
X044343Y040514D01*
X044314Y040518D01*
X044286Y040526D01*
X044259Y040538D01*
X044235Y040553D01*
X044212Y040571D01*
X044193Y040592D01*
X044176Y040616D01*
X044163Y040642D01*
X044153Y040669D01*
X044147Y040697D01*
X044145Y040726D01*
X045145Y040726D02*
X045147Y040755D01*
X045153Y040783D01*
X045163Y040810D01*
X045176Y040836D01*
X045193Y040860D01*
X045212Y040881D01*
X045235Y040899D01*
X045259Y040914D01*
X045286Y040926D01*
X045314Y040934D01*
X045343Y040938D01*
X045371Y040938D01*
X045400Y040934D01*
X045428Y040926D01*
X045455Y040914D01*
X045479Y040899D01*
X045502Y040881D01*
X045521Y040860D01*
X045538Y040836D01*
X045551Y040810D01*
X045561Y040783D01*
X045567Y040755D01*
X045569Y040726D01*
X045567Y040697D01*
X045561Y040669D01*
X045551Y040642D01*
X045538Y040616D01*
X045521Y040592D01*
X045502Y040571D01*
X045479Y040553D01*
X045455Y040538D01*
X045428Y040526D01*
X045400Y040518D01*
X045371Y040514D01*
X045343Y040514D01*
X045314Y040518D01*
X045286Y040526D01*
X045259Y040538D01*
X045235Y040553D01*
X045212Y040571D01*
X045193Y040592D01*
X045176Y040616D01*
X045163Y040642D01*
X045153Y040669D01*
X045147Y040697D01*
X045145Y040726D01*
X046145Y040726D02*
X046147Y040755D01*
X046153Y040783D01*
X046163Y040810D01*
X046176Y040836D01*
X046193Y040860D01*
X046212Y040881D01*
X046235Y040899D01*
X046259Y040914D01*
X046286Y040926D01*
X046314Y040934D01*
X046343Y040938D01*
X046371Y040938D01*
X046400Y040934D01*
X046428Y040926D01*
X046455Y040914D01*
X046479Y040899D01*
X046502Y040881D01*
X046521Y040860D01*
X046538Y040836D01*
X046551Y040810D01*
X046561Y040783D01*
X046567Y040755D01*
X046569Y040726D01*
X046567Y040697D01*
X046561Y040669D01*
X046551Y040642D01*
X046538Y040616D01*
X046521Y040592D01*
X046502Y040571D01*
X046479Y040553D01*
X046455Y040538D01*
X046428Y040526D01*
X046400Y040518D01*
X046371Y040514D01*
X046343Y040514D01*
X046314Y040518D01*
X046286Y040526D01*
X046259Y040538D01*
X046235Y040553D01*
X046212Y040571D01*
X046193Y040592D01*
X046176Y040616D01*
X046163Y040642D01*
X046153Y040669D01*
X046147Y040697D01*
X046145Y040726D01*
X047145Y040726D02*
X047147Y040755D01*
X047153Y040783D01*
X047163Y040810D01*
X047176Y040836D01*
X047193Y040860D01*
X047212Y040881D01*
X047235Y040899D01*
X047259Y040914D01*
X047286Y040926D01*
X047314Y040934D01*
X047343Y040938D01*
X047371Y040938D01*
X047400Y040934D01*
X047428Y040926D01*
X047455Y040914D01*
X047479Y040899D01*
X047502Y040881D01*
X047521Y040860D01*
X047538Y040836D01*
X047551Y040810D01*
X047561Y040783D01*
X047567Y040755D01*
X047569Y040726D01*
X047567Y040697D01*
X047561Y040669D01*
X047551Y040642D01*
X047538Y040616D01*
X047521Y040592D01*
X047502Y040571D01*
X047479Y040553D01*
X047455Y040538D01*
X047428Y040526D01*
X047400Y040518D01*
X047371Y040514D01*
X047343Y040514D01*
X047314Y040518D01*
X047286Y040526D01*
X047259Y040538D01*
X047235Y040553D01*
X047212Y040571D01*
X047193Y040592D01*
X047176Y040616D01*
X047163Y040642D01*
X047153Y040669D01*
X047147Y040697D01*
X047145Y040726D01*
X048145Y040726D02*
X048147Y040755D01*
X048153Y040783D01*
X048163Y040810D01*
X048176Y040836D01*
X048193Y040860D01*
X048212Y040881D01*
X048235Y040899D01*
X048259Y040914D01*
X048286Y040926D01*
X048314Y040934D01*
X048343Y040938D01*
X048371Y040938D01*
X048400Y040934D01*
X048428Y040926D01*
X048455Y040914D01*
X048479Y040899D01*
X048502Y040881D01*
X048521Y040860D01*
X048538Y040836D01*
X048551Y040810D01*
X048561Y040783D01*
X048567Y040755D01*
X048569Y040726D01*
X048567Y040697D01*
X048561Y040669D01*
X048551Y040642D01*
X048538Y040616D01*
X048521Y040592D01*
X048502Y040571D01*
X048479Y040553D01*
X048455Y040538D01*
X048428Y040526D01*
X048400Y040518D01*
X048371Y040514D01*
X048343Y040514D01*
X048314Y040518D01*
X048286Y040526D01*
X048259Y040538D01*
X048235Y040553D01*
X048212Y040571D01*
X048193Y040592D01*
X048176Y040616D01*
X048163Y040642D01*
X048153Y040669D01*
X048147Y040697D01*
X048145Y040726D01*
X049145Y040726D02*
X049147Y040755D01*
X049153Y040783D01*
X049163Y040810D01*
X049176Y040836D01*
X049193Y040860D01*
X049212Y040881D01*
X049235Y040899D01*
X049259Y040914D01*
X049286Y040926D01*
X049314Y040934D01*
X049343Y040938D01*
X049371Y040938D01*
X049400Y040934D01*
X049428Y040926D01*
X049455Y040914D01*
X049479Y040899D01*
X049502Y040881D01*
X049521Y040860D01*
X049538Y040836D01*
X049551Y040810D01*
X049561Y040783D01*
X049567Y040755D01*
X049569Y040726D01*
X049567Y040697D01*
X049561Y040669D01*
X049551Y040642D01*
X049538Y040616D01*
X049521Y040592D01*
X049502Y040571D01*
X049479Y040553D01*
X049455Y040538D01*
X049428Y040526D01*
X049400Y040518D01*
X049371Y040514D01*
X049343Y040514D01*
X049314Y040518D01*
X049286Y040526D01*
X049259Y040538D01*
X049235Y040553D01*
X049212Y040571D01*
X049193Y040592D01*
X049176Y040616D01*
X049163Y040642D01*
X049153Y040669D01*
X049147Y040697D01*
X049145Y040726D01*
X032145Y040726D02*
X032147Y040755D01*
X032153Y040783D01*
X032163Y040810D01*
X032176Y040836D01*
X032193Y040860D01*
X032212Y040881D01*
X032235Y040899D01*
X032259Y040914D01*
X032286Y040926D01*
X032314Y040934D01*
X032343Y040938D01*
X032371Y040938D01*
X032400Y040934D01*
X032428Y040926D01*
X032455Y040914D01*
X032479Y040899D01*
X032502Y040881D01*
X032521Y040860D01*
X032538Y040836D01*
X032551Y040810D01*
X032561Y040783D01*
X032567Y040755D01*
X032569Y040726D01*
X032567Y040697D01*
X032561Y040669D01*
X032551Y040642D01*
X032538Y040616D01*
X032521Y040592D01*
X032502Y040571D01*
X032479Y040553D01*
X032455Y040538D01*
X032428Y040526D01*
X032400Y040518D01*
X032371Y040514D01*
X032343Y040514D01*
X032314Y040518D01*
X032286Y040526D01*
X032259Y040538D01*
X032235Y040553D01*
X032212Y040571D01*
X032193Y040592D01*
X032176Y040616D01*
X032163Y040642D01*
X032153Y040669D01*
X032147Y040697D01*
X032145Y040726D01*
X031145Y040726D02*
X031147Y040755D01*
X031153Y040783D01*
X031163Y040810D01*
X031176Y040836D01*
X031193Y040860D01*
X031212Y040881D01*
X031235Y040899D01*
X031259Y040914D01*
X031286Y040926D01*
X031314Y040934D01*
X031343Y040938D01*
X031371Y040938D01*
X031400Y040934D01*
X031428Y040926D01*
X031455Y040914D01*
X031479Y040899D01*
X031502Y040881D01*
X031521Y040860D01*
X031538Y040836D01*
X031551Y040810D01*
X031561Y040783D01*
X031567Y040755D01*
X031569Y040726D01*
X031567Y040697D01*
X031561Y040669D01*
X031551Y040642D01*
X031538Y040616D01*
X031521Y040592D01*
X031502Y040571D01*
X031479Y040553D01*
X031455Y040538D01*
X031428Y040526D01*
X031400Y040518D01*
X031371Y040514D01*
X031343Y040514D01*
X031314Y040518D01*
X031286Y040526D01*
X031259Y040538D01*
X031235Y040553D01*
X031212Y040571D01*
X031193Y040592D01*
X031176Y040616D01*
X031163Y040642D01*
X031153Y040669D01*
X031147Y040697D01*
X031145Y040726D01*
X030145Y040726D02*
X030147Y040755D01*
X030153Y040783D01*
X030163Y040810D01*
X030176Y040836D01*
X030193Y040860D01*
X030212Y040881D01*
X030235Y040899D01*
X030259Y040914D01*
X030286Y040926D01*
X030314Y040934D01*
X030343Y040938D01*
X030371Y040938D01*
X030400Y040934D01*
X030428Y040926D01*
X030455Y040914D01*
X030479Y040899D01*
X030502Y040881D01*
X030521Y040860D01*
X030538Y040836D01*
X030551Y040810D01*
X030561Y040783D01*
X030567Y040755D01*
X030569Y040726D01*
X030567Y040697D01*
X030561Y040669D01*
X030551Y040642D01*
X030538Y040616D01*
X030521Y040592D01*
X030502Y040571D01*
X030479Y040553D01*
X030455Y040538D01*
X030428Y040526D01*
X030400Y040518D01*
X030371Y040514D01*
X030343Y040514D01*
X030314Y040518D01*
X030286Y040526D01*
X030259Y040538D01*
X030235Y040553D01*
X030212Y040571D01*
X030193Y040592D01*
X030176Y040616D01*
X030163Y040642D01*
X030153Y040669D01*
X030147Y040697D01*
X030145Y040726D01*
X030145Y039726D02*
X030147Y039755D01*
X030153Y039783D01*
X030163Y039810D01*
X030176Y039836D01*
X030193Y039860D01*
X030212Y039881D01*
X030235Y039899D01*
X030259Y039914D01*
X030286Y039926D01*
X030314Y039934D01*
X030343Y039938D01*
X030371Y039938D01*
X030400Y039934D01*
X030428Y039926D01*
X030455Y039914D01*
X030479Y039899D01*
X030502Y039881D01*
X030521Y039860D01*
X030538Y039836D01*
X030551Y039810D01*
X030561Y039783D01*
X030567Y039755D01*
X030569Y039726D01*
X030567Y039697D01*
X030561Y039669D01*
X030551Y039642D01*
X030538Y039616D01*
X030521Y039592D01*
X030502Y039571D01*
X030479Y039553D01*
X030455Y039538D01*
X030428Y039526D01*
X030400Y039518D01*
X030371Y039514D01*
X030343Y039514D01*
X030314Y039518D01*
X030286Y039526D01*
X030259Y039538D01*
X030235Y039553D01*
X030212Y039571D01*
X030193Y039592D01*
X030176Y039616D01*
X030163Y039642D01*
X030153Y039669D01*
X030147Y039697D01*
X030145Y039726D01*
X031145Y039726D02*
X031147Y039755D01*
X031153Y039783D01*
X031163Y039810D01*
X031176Y039836D01*
X031193Y039860D01*
X031212Y039881D01*
X031235Y039899D01*
X031259Y039914D01*
X031286Y039926D01*
X031314Y039934D01*
X031343Y039938D01*
X031371Y039938D01*
X031400Y039934D01*
X031428Y039926D01*
X031455Y039914D01*
X031479Y039899D01*
X031502Y039881D01*
X031521Y039860D01*
X031538Y039836D01*
X031551Y039810D01*
X031561Y039783D01*
X031567Y039755D01*
X031569Y039726D01*
X031567Y039697D01*
X031561Y039669D01*
X031551Y039642D01*
X031538Y039616D01*
X031521Y039592D01*
X031502Y039571D01*
X031479Y039553D01*
X031455Y039538D01*
X031428Y039526D01*
X031400Y039518D01*
X031371Y039514D01*
X031343Y039514D01*
X031314Y039518D01*
X031286Y039526D01*
X031259Y039538D01*
X031235Y039553D01*
X031212Y039571D01*
X031193Y039592D01*
X031176Y039616D01*
X031163Y039642D01*
X031153Y039669D01*
X031147Y039697D01*
X031145Y039726D01*
X032145Y039726D02*
X032147Y039755D01*
X032153Y039783D01*
X032163Y039810D01*
X032176Y039836D01*
X032193Y039860D01*
X032212Y039881D01*
X032235Y039899D01*
X032259Y039914D01*
X032286Y039926D01*
X032314Y039934D01*
X032343Y039938D01*
X032371Y039938D01*
X032400Y039934D01*
X032428Y039926D01*
X032455Y039914D01*
X032479Y039899D01*
X032502Y039881D01*
X032521Y039860D01*
X032538Y039836D01*
X032551Y039810D01*
X032561Y039783D01*
X032567Y039755D01*
X032569Y039726D01*
X032567Y039697D01*
X032561Y039669D01*
X032551Y039642D01*
X032538Y039616D01*
X032521Y039592D01*
X032502Y039571D01*
X032479Y039553D01*
X032455Y039538D01*
X032428Y039526D01*
X032400Y039518D01*
X032371Y039514D01*
X032343Y039514D01*
X032314Y039518D01*
X032286Y039526D01*
X032259Y039538D01*
X032235Y039553D01*
X032212Y039571D01*
X032193Y039592D01*
X032176Y039616D01*
X032163Y039642D01*
X032153Y039669D01*
X032147Y039697D01*
X032145Y039726D01*
X032145Y024226D02*
X032147Y024255D01*
X032153Y024283D01*
X032163Y024310D01*
X032176Y024336D01*
X032193Y024360D01*
X032212Y024381D01*
X032235Y024399D01*
X032259Y024414D01*
X032286Y024426D01*
X032314Y024434D01*
X032343Y024438D01*
X032371Y024438D01*
X032400Y024434D01*
X032428Y024426D01*
X032455Y024414D01*
X032479Y024399D01*
X032502Y024381D01*
X032521Y024360D01*
X032538Y024336D01*
X032551Y024310D01*
X032561Y024283D01*
X032567Y024255D01*
X032569Y024226D01*
X032567Y024197D01*
X032561Y024169D01*
X032551Y024142D01*
X032538Y024116D01*
X032521Y024092D01*
X032502Y024071D01*
X032479Y024053D01*
X032455Y024038D01*
X032428Y024026D01*
X032400Y024018D01*
X032371Y024014D01*
X032343Y024014D01*
X032314Y024018D01*
X032286Y024026D01*
X032259Y024038D01*
X032235Y024053D01*
X032212Y024071D01*
X032193Y024092D01*
X032176Y024116D01*
X032163Y024142D01*
X032153Y024169D01*
X032147Y024197D01*
X032145Y024226D01*
X031145Y024226D02*
X031147Y024255D01*
X031153Y024283D01*
X031163Y024310D01*
X031176Y024336D01*
X031193Y024360D01*
X031212Y024381D01*
X031235Y024399D01*
X031259Y024414D01*
X031286Y024426D01*
X031314Y024434D01*
X031343Y024438D01*
X031371Y024438D01*
X031400Y024434D01*
X031428Y024426D01*
X031455Y024414D01*
X031479Y024399D01*
X031502Y024381D01*
X031521Y024360D01*
X031538Y024336D01*
X031551Y024310D01*
X031561Y024283D01*
X031567Y024255D01*
X031569Y024226D01*
X031567Y024197D01*
X031561Y024169D01*
X031551Y024142D01*
X031538Y024116D01*
X031521Y024092D01*
X031502Y024071D01*
X031479Y024053D01*
X031455Y024038D01*
X031428Y024026D01*
X031400Y024018D01*
X031371Y024014D01*
X031343Y024014D01*
X031314Y024018D01*
X031286Y024026D01*
X031259Y024038D01*
X031235Y024053D01*
X031212Y024071D01*
X031193Y024092D01*
X031176Y024116D01*
X031163Y024142D01*
X031153Y024169D01*
X031147Y024197D01*
X031145Y024226D01*
X030145Y024226D02*
X030147Y024255D01*
X030153Y024283D01*
X030163Y024310D01*
X030176Y024336D01*
X030193Y024360D01*
X030212Y024381D01*
X030235Y024399D01*
X030259Y024414D01*
X030286Y024426D01*
X030314Y024434D01*
X030343Y024438D01*
X030371Y024438D01*
X030400Y024434D01*
X030428Y024426D01*
X030455Y024414D01*
X030479Y024399D01*
X030502Y024381D01*
X030521Y024360D01*
X030538Y024336D01*
X030551Y024310D01*
X030561Y024283D01*
X030567Y024255D01*
X030569Y024226D01*
X030567Y024197D01*
X030561Y024169D01*
X030551Y024142D01*
X030538Y024116D01*
X030521Y024092D01*
X030502Y024071D01*
X030479Y024053D01*
X030455Y024038D01*
X030428Y024026D01*
X030400Y024018D01*
X030371Y024014D01*
X030343Y024014D01*
X030314Y024018D01*
X030286Y024026D01*
X030259Y024038D01*
X030235Y024053D01*
X030212Y024071D01*
X030193Y024092D01*
X030176Y024116D01*
X030163Y024142D01*
X030153Y024169D01*
X030147Y024197D01*
X030145Y024226D01*
X030145Y023226D02*
X030147Y023255D01*
X030153Y023283D01*
X030163Y023310D01*
X030176Y023336D01*
X030193Y023360D01*
X030212Y023381D01*
X030235Y023399D01*
X030259Y023414D01*
X030286Y023426D01*
X030314Y023434D01*
X030343Y023438D01*
X030371Y023438D01*
X030400Y023434D01*
X030428Y023426D01*
X030455Y023414D01*
X030479Y023399D01*
X030502Y023381D01*
X030521Y023360D01*
X030538Y023336D01*
X030551Y023310D01*
X030561Y023283D01*
X030567Y023255D01*
X030569Y023226D01*
X030567Y023197D01*
X030561Y023169D01*
X030551Y023142D01*
X030538Y023116D01*
X030521Y023092D01*
X030502Y023071D01*
X030479Y023053D01*
X030455Y023038D01*
X030428Y023026D01*
X030400Y023018D01*
X030371Y023014D01*
X030343Y023014D01*
X030314Y023018D01*
X030286Y023026D01*
X030259Y023038D01*
X030235Y023053D01*
X030212Y023071D01*
X030193Y023092D01*
X030176Y023116D01*
X030163Y023142D01*
X030153Y023169D01*
X030147Y023197D01*
X030145Y023226D01*
X031145Y023226D02*
X031147Y023255D01*
X031153Y023283D01*
X031163Y023310D01*
X031176Y023336D01*
X031193Y023360D01*
X031212Y023381D01*
X031235Y023399D01*
X031259Y023414D01*
X031286Y023426D01*
X031314Y023434D01*
X031343Y023438D01*
X031371Y023438D01*
X031400Y023434D01*
X031428Y023426D01*
X031455Y023414D01*
X031479Y023399D01*
X031502Y023381D01*
X031521Y023360D01*
X031538Y023336D01*
X031551Y023310D01*
X031561Y023283D01*
X031567Y023255D01*
X031569Y023226D01*
X031567Y023197D01*
X031561Y023169D01*
X031551Y023142D01*
X031538Y023116D01*
X031521Y023092D01*
X031502Y023071D01*
X031479Y023053D01*
X031455Y023038D01*
X031428Y023026D01*
X031400Y023018D01*
X031371Y023014D01*
X031343Y023014D01*
X031314Y023018D01*
X031286Y023026D01*
X031259Y023038D01*
X031235Y023053D01*
X031212Y023071D01*
X031193Y023092D01*
X031176Y023116D01*
X031163Y023142D01*
X031153Y023169D01*
X031147Y023197D01*
X031145Y023226D01*
X032145Y023226D02*
X032147Y023255D01*
X032153Y023283D01*
X032163Y023310D01*
X032176Y023336D01*
X032193Y023360D01*
X032212Y023381D01*
X032235Y023399D01*
X032259Y023414D01*
X032286Y023426D01*
X032314Y023434D01*
X032343Y023438D01*
X032371Y023438D01*
X032400Y023434D01*
X032428Y023426D01*
X032455Y023414D01*
X032479Y023399D01*
X032502Y023381D01*
X032521Y023360D01*
X032538Y023336D01*
X032551Y023310D01*
X032561Y023283D01*
X032567Y023255D01*
X032569Y023226D01*
X032567Y023197D01*
X032561Y023169D01*
X032551Y023142D01*
X032538Y023116D01*
X032521Y023092D01*
X032502Y023071D01*
X032479Y023053D01*
X032455Y023038D01*
X032428Y023026D01*
X032400Y023018D01*
X032371Y023014D01*
X032343Y023014D01*
X032314Y023018D01*
X032286Y023026D01*
X032259Y023038D01*
X032235Y023053D01*
X032212Y023071D01*
X032193Y023092D01*
X032176Y023116D01*
X032163Y023142D01*
X032153Y023169D01*
X032147Y023197D01*
X032145Y023226D01*
X033145Y023226D02*
X033147Y023255D01*
X033153Y023283D01*
X033163Y023310D01*
X033176Y023336D01*
X033193Y023360D01*
X033212Y023381D01*
X033235Y023399D01*
X033259Y023414D01*
X033286Y023426D01*
X033314Y023434D01*
X033343Y023438D01*
X033371Y023438D01*
X033400Y023434D01*
X033428Y023426D01*
X033455Y023414D01*
X033479Y023399D01*
X033502Y023381D01*
X033521Y023360D01*
X033538Y023336D01*
X033551Y023310D01*
X033561Y023283D01*
X033567Y023255D01*
X033569Y023226D01*
X033567Y023197D01*
X033561Y023169D01*
X033551Y023142D01*
X033538Y023116D01*
X033521Y023092D01*
X033502Y023071D01*
X033479Y023053D01*
X033455Y023038D01*
X033428Y023026D01*
X033400Y023018D01*
X033371Y023014D01*
X033343Y023014D01*
X033314Y023018D01*
X033286Y023026D01*
X033259Y023038D01*
X033235Y023053D01*
X033212Y023071D01*
X033193Y023092D01*
X033176Y023116D01*
X033163Y023142D01*
X033153Y023169D01*
X033147Y023197D01*
X033145Y023226D01*
X033145Y024226D02*
X033147Y024255D01*
X033153Y024283D01*
X033163Y024310D01*
X033176Y024336D01*
X033193Y024360D01*
X033212Y024381D01*
X033235Y024399D01*
X033259Y024414D01*
X033286Y024426D01*
X033314Y024434D01*
X033343Y024438D01*
X033371Y024438D01*
X033400Y024434D01*
X033428Y024426D01*
X033455Y024414D01*
X033479Y024399D01*
X033502Y024381D01*
X033521Y024360D01*
X033538Y024336D01*
X033551Y024310D01*
X033561Y024283D01*
X033567Y024255D01*
X033569Y024226D01*
X033567Y024197D01*
X033561Y024169D01*
X033551Y024142D01*
X033538Y024116D01*
X033521Y024092D01*
X033502Y024071D01*
X033479Y024053D01*
X033455Y024038D01*
X033428Y024026D01*
X033400Y024018D01*
X033371Y024014D01*
X033343Y024014D01*
X033314Y024018D01*
X033286Y024026D01*
X033259Y024038D01*
X033235Y024053D01*
X033212Y024071D01*
X033193Y024092D01*
X033176Y024116D01*
X033163Y024142D01*
X033153Y024169D01*
X033147Y024197D01*
X033145Y024226D01*
X034145Y024226D02*
X034147Y024255D01*
X034153Y024283D01*
X034163Y024310D01*
X034176Y024336D01*
X034193Y024360D01*
X034212Y024381D01*
X034235Y024399D01*
X034259Y024414D01*
X034286Y024426D01*
X034314Y024434D01*
X034343Y024438D01*
X034371Y024438D01*
X034400Y024434D01*
X034428Y024426D01*
X034455Y024414D01*
X034479Y024399D01*
X034502Y024381D01*
X034521Y024360D01*
X034538Y024336D01*
X034551Y024310D01*
X034561Y024283D01*
X034567Y024255D01*
X034569Y024226D01*
X034567Y024197D01*
X034561Y024169D01*
X034551Y024142D01*
X034538Y024116D01*
X034521Y024092D01*
X034502Y024071D01*
X034479Y024053D01*
X034455Y024038D01*
X034428Y024026D01*
X034400Y024018D01*
X034371Y024014D01*
X034343Y024014D01*
X034314Y024018D01*
X034286Y024026D01*
X034259Y024038D01*
X034235Y024053D01*
X034212Y024071D01*
X034193Y024092D01*
X034176Y024116D01*
X034163Y024142D01*
X034153Y024169D01*
X034147Y024197D01*
X034145Y024226D01*
X034145Y023226D02*
X034147Y023255D01*
X034153Y023283D01*
X034163Y023310D01*
X034176Y023336D01*
X034193Y023360D01*
X034212Y023381D01*
X034235Y023399D01*
X034259Y023414D01*
X034286Y023426D01*
X034314Y023434D01*
X034343Y023438D01*
X034371Y023438D01*
X034400Y023434D01*
X034428Y023426D01*
X034455Y023414D01*
X034479Y023399D01*
X034502Y023381D01*
X034521Y023360D01*
X034538Y023336D01*
X034551Y023310D01*
X034561Y023283D01*
X034567Y023255D01*
X034569Y023226D01*
X034567Y023197D01*
X034561Y023169D01*
X034551Y023142D01*
X034538Y023116D01*
X034521Y023092D01*
X034502Y023071D01*
X034479Y023053D01*
X034455Y023038D01*
X034428Y023026D01*
X034400Y023018D01*
X034371Y023014D01*
X034343Y023014D01*
X034314Y023018D01*
X034286Y023026D01*
X034259Y023038D01*
X034235Y023053D01*
X034212Y023071D01*
X034193Y023092D01*
X034176Y023116D01*
X034163Y023142D01*
X034153Y023169D01*
X034147Y023197D01*
X034145Y023226D01*
X035145Y023226D02*
X035147Y023255D01*
X035153Y023283D01*
X035163Y023310D01*
X035176Y023336D01*
X035193Y023360D01*
X035212Y023381D01*
X035235Y023399D01*
X035259Y023414D01*
X035286Y023426D01*
X035314Y023434D01*
X035343Y023438D01*
X035371Y023438D01*
X035400Y023434D01*
X035428Y023426D01*
X035455Y023414D01*
X035479Y023399D01*
X035502Y023381D01*
X035521Y023360D01*
X035538Y023336D01*
X035551Y023310D01*
X035561Y023283D01*
X035567Y023255D01*
X035569Y023226D01*
X035567Y023197D01*
X035561Y023169D01*
X035551Y023142D01*
X035538Y023116D01*
X035521Y023092D01*
X035502Y023071D01*
X035479Y023053D01*
X035455Y023038D01*
X035428Y023026D01*
X035400Y023018D01*
X035371Y023014D01*
X035343Y023014D01*
X035314Y023018D01*
X035286Y023026D01*
X035259Y023038D01*
X035235Y023053D01*
X035212Y023071D01*
X035193Y023092D01*
X035176Y023116D01*
X035163Y023142D01*
X035153Y023169D01*
X035147Y023197D01*
X035145Y023226D01*
X035145Y024226D02*
X035147Y024255D01*
X035153Y024283D01*
X035163Y024310D01*
X035176Y024336D01*
X035193Y024360D01*
X035212Y024381D01*
X035235Y024399D01*
X035259Y024414D01*
X035286Y024426D01*
X035314Y024434D01*
X035343Y024438D01*
X035371Y024438D01*
X035400Y024434D01*
X035428Y024426D01*
X035455Y024414D01*
X035479Y024399D01*
X035502Y024381D01*
X035521Y024360D01*
X035538Y024336D01*
X035551Y024310D01*
X035561Y024283D01*
X035567Y024255D01*
X035569Y024226D01*
X035567Y024197D01*
X035561Y024169D01*
X035551Y024142D01*
X035538Y024116D01*
X035521Y024092D01*
X035502Y024071D01*
X035479Y024053D01*
X035455Y024038D01*
X035428Y024026D01*
X035400Y024018D01*
X035371Y024014D01*
X035343Y024014D01*
X035314Y024018D01*
X035286Y024026D01*
X035259Y024038D01*
X035235Y024053D01*
X035212Y024071D01*
X035193Y024092D01*
X035176Y024116D01*
X035163Y024142D01*
X035153Y024169D01*
X035147Y024197D01*
X035145Y024226D01*
X036145Y024226D02*
X036147Y024255D01*
X036153Y024283D01*
X036163Y024310D01*
X036176Y024336D01*
X036193Y024360D01*
X036212Y024381D01*
X036235Y024399D01*
X036259Y024414D01*
X036286Y024426D01*
X036314Y024434D01*
X036343Y024438D01*
X036371Y024438D01*
X036400Y024434D01*
X036428Y024426D01*
X036455Y024414D01*
X036479Y024399D01*
X036502Y024381D01*
X036521Y024360D01*
X036538Y024336D01*
X036551Y024310D01*
X036561Y024283D01*
X036567Y024255D01*
X036569Y024226D01*
X036567Y024197D01*
X036561Y024169D01*
X036551Y024142D01*
X036538Y024116D01*
X036521Y024092D01*
X036502Y024071D01*
X036479Y024053D01*
X036455Y024038D01*
X036428Y024026D01*
X036400Y024018D01*
X036371Y024014D01*
X036343Y024014D01*
X036314Y024018D01*
X036286Y024026D01*
X036259Y024038D01*
X036235Y024053D01*
X036212Y024071D01*
X036193Y024092D01*
X036176Y024116D01*
X036163Y024142D01*
X036153Y024169D01*
X036147Y024197D01*
X036145Y024226D01*
X036145Y023226D02*
X036147Y023255D01*
X036153Y023283D01*
X036163Y023310D01*
X036176Y023336D01*
X036193Y023360D01*
X036212Y023381D01*
X036235Y023399D01*
X036259Y023414D01*
X036286Y023426D01*
X036314Y023434D01*
X036343Y023438D01*
X036371Y023438D01*
X036400Y023434D01*
X036428Y023426D01*
X036455Y023414D01*
X036479Y023399D01*
X036502Y023381D01*
X036521Y023360D01*
X036538Y023336D01*
X036551Y023310D01*
X036561Y023283D01*
X036567Y023255D01*
X036569Y023226D01*
X036567Y023197D01*
X036561Y023169D01*
X036551Y023142D01*
X036538Y023116D01*
X036521Y023092D01*
X036502Y023071D01*
X036479Y023053D01*
X036455Y023038D01*
X036428Y023026D01*
X036400Y023018D01*
X036371Y023014D01*
X036343Y023014D01*
X036314Y023018D01*
X036286Y023026D01*
X036259Y023038D01*
X036235Y023053D01*
X036212Y023071D01*
X036193Y023092D01*
X036176Y023116D01*
X036163Y023142D01*
X036153Y023169D01*
X036147Y023197D01*
X036145Y023226D01*
X037145Y023226D02*
X037147Y023255D01*
X037153Y023283D01*
X037163Y023310D01*
X037176Y023336D01*
X037193Y023360D01*
X037212Y023381D01*
X037235Y023399D01*
X037259Y023414D01*
X037286Y023426D01*
X037314Y023434D01*
X037343Y023438D01*
X037371Y023438D01*
X037400Y023434D01*
X037428Y023426D01*
X037455Y023414D01*
X037479Y023399D01*
X037502Y023381D01*
X037521Y023360D01*
X037538Y023336D01*
X037551Y023310D01*
X037561Y023283D01*
X037567Y023255D01*
X037569Y023226D01*
X037567Y023197D01*
X037561Y023169D01*
X037551Y023142D01*
X037538Y023116D01*
X037521Y023092D01*
X037502Y023071D01*
X037479Y023053D01*
X037455Y023038D01*
X037428Y023026D01*
X037400Y023018D01*
X037371Y023014D01*
X037343Y023014D01*
X037314Y023018D01*
X037286Y023026D01*
X037259Y023038D01*
X037235Y023053D01*
X037212Y023071D01*
X037193Y023092D01*
X037176Y023116D01*
X037163Y023142D01*
X037153Y023169D01*
X037147Y023197D01*
X037145Y023226D01*
X037145Y024226D02*
X037147Y024255D01*
X037153Y024283D01*
X037163Y024310D01*
X037176Y024336D01*
X037193Y024360D01*
X037212Y024381D01*
X037235Y024399D01*
X037259Y024414D01*
X037286Y024426D01*
X037314Y024434D01*
X037343Y024438D01*
X037371Y024438D01*
X037400Y024434D01*
X037428Y024426D01*
X037455Y024414D01*
X037479Y024399D01*
X037502Y024381D01*
X037521Y024360D01*
X037538Y024336D01*
X037551Y024310D01*
X037561Y024283D01*
X037567Y024255D01*
X037569Y024226D01*
X037567Y024197D01*
X037561Y024169D01*
X037551Y024142D01*
X037538Y024116D01*
X037521Y024092D01*
X037502Y024071D01*
X037479Y024053D01*
X037455Y024038D01*
X037428Y024026D01*
X037400Y024018D01*
X037371Y024014D01*
X037343Y024014D01*
X037314Y024018D01*
X037286Y024026D01*
X037259Y024038D01*
X037235Y024053D01*
X037212Y024071D01*
X037193Y024092D01*
X037176Y024116D01*
X037163Y024142D01*
X037153Y024169D01*
X037147Y024197D01*
X037145Y024226D01*
X038145Y024226D02*
X038147Y024255D01*
X038153Y024283D01*
X038163Y024310D01*
X038176Y024336D01*
X038193Y024360D01*
X038212Y024381D01*
X038235Y024399D01*
X038259Y024414D01*
X038286Y024426D01*
X038314Y024434D01*
X038343Y024438D01*
X038371Y024438D01*
X038400Y024434D01*
X038428Y024426D01*
X038455Y024414D01*
X038479Y024399D01*
X038502Y024381D01*
X038521Y024360D01*
X038538Y024336D01*
X038551Y024310D01*
X038561Y024283D01*
X038567Y024255D01*
X038569Y024226D01*
X038567Y024197D01*
X038561Y024169D01*
X038551Y024142D01*
X038538Y024116D01*
X038521Y024092D01*
X038502Y024071D01*
X038479Y024053D01*
X038455Y024038D01*
X038428Y024026D01*
X038400Y024018D01*
X038371Y024014D01*
X038343Y024014D01*
X038314Y024018D01*
X038286Y024026D01*
X038259Y024038D01*
X038235Y024053D01*
X038212Y024071D01*
X038193Y024092D01*
X038176Y024116D01*
X038163Y024142D01*
X038153Y024169D01*
X038147Y024197D01*
X038145Y024226D01*
X038145Y023226D02*
X038147Y023255D01*
X038153Y023283D01*
X038163Y023310D01*
X038176Y023336D01*
X038193Y023360D01*
X038212Y023381D01*
X038235Y023399D01*
X038259Y023414D01*
X038286Y023426D01*
X038314Y023434D01*
X038343Y023438D01*
X038371Y023438D01*
X038400Y023434D01*
X038428Y023426D01*
X038455Y023414D01*
X038479Y023399D01*
X038502Y023381D01*
X038521Y023360D01*
X038538Y023336D01*
X038551Y023310D01*
X038561Y023283D01*
X038567Y023255D01*
X038569Y023226D01*
X038567Y023197D01*
X038561Y023169D01*
X038551Y023142D01*
X038538Y023116D01*
X038521Y023092D01*
X038502Y023071D01*
X038479Y023053D01*
X038455Y023038D01*
X038428Y023026D01*
X038400Y023018D01*
X038371Y023014D01*
X038343Y023014D01*
X038314Y023018D01*
X038286Y023026D01*
X038259Y023038D01*
X038235Y023053D01*
X038212Y023071D01*
X038193Y023092D01*
X038176Y023116D01*
X038163Y023142D01*
X038153Y023169D01*
X038147Y023197D01*
X038145Y023226D01*
X039145Y023226D02*
X039147Y023255D01*
X039153Y023283D01*
X039163Y023310D01*
X039176Y023336D01*
X039193Y023360D01*
X039212Y023381D01*
X039235Y023399D01*
X039259Y023414D01*
X039286Y023426D01*
X039314Y023434D01*
X039343Y023438D01*
X039371Y023438D01*
X039400Y023434D01*
X039428Y023426D01*
X039455Y023414D01*
X039479Y023399D01*
X039502Y023381D01*
X039521Y023360D01*
X039538Y023336D01*
X039551Y023310D01*
X039561Y023283D01*
X039567Y023255D01*
X039569Y023226D01*
X039567Y023197D01*
X039561Y023169D01*
X039551Y023142D01*
X039538Y023116D01*
X039521Y023092D01*
X039502Y023071D01*
X039479Y023053D01*
X039455Y023038D01*
X039428Y023026D01*
X039400Y023018D01*
X039371Y023014D01*
X039343Y023014D01*
X039314Y023018D01*
X039286Y023026D01*
X039259Y023038D01*
X039235Y023053D01*
X039212Y023071D01*
X039193Y023092D01*
X039176Y023116D01*
X039163Y023142D01*
X039153Y023169D01*
X039147Y023197D01*
X039145Y023226D01*
X039145Y024226D02*
X039147Y024255D01*
X039153Y024283D01*
X039163Y024310D01*
X039176Y024336D01*
X039193Y024360D01*
X039212Y024381D01*
X039235Y024399D01*
X039259Y024414D01*
X039286Y024426D01*
X039314Y024434D01*
X039343Y024438D01*
X039371Y024438D01*
X039400Y024434D01*
X039428Y024426D01*
X039455Y024414D01*
X039479Y024399D01*
X039502Y024381D01*
X039521Y024360D01*
X039538Y024336D01*
X039551Y024310D01*
X039561Y024283D01*
X039567Y024255D01*
X039569Y024226D01*
X039567Y024197D01*
X039561Y024169D01*
X039551Y024142D01*
X039538Y024116D01*
X039521Y024092D01*
X039502Y024071D01*
X039479Y024053D01*
X039455Y024038D01*
X039428Y024026D01*
X039400Y024018D01*
X039371Y024014D01*
X039343Y024014D01*
X039314Y024018D01*
X039286Y024026D01*
X039259Y024038D01*
X039235Y024053D01*
X039212Y024071D01*
X039193Y024092D01*
X039176Y024116D01*
X039163Y024142D01*
X039153Y024169D01*
X039147Y024197D01*
X039145Y024226D01*
X040145Y024226D02*
X040147Y024255D01*
X040153Y024283D01*
X040163Y024310D01*
X040176Y024336D01*
X040193Y024360D01*
X040212Y024381D01*
X040235Y024399D01*
X040259Y024414D01*
X040286Y024426D01*
X040314Y024434D01*
X040343Y024438D01*
X040371Y024438D01*
X040400Y024434D01*
X040428Y024426D01*
X040455Y024414D01*
X040479Y024399D01*
X040502Y024381D01*
X040521Y024360D01*
X040538Y024336D01*
X040551Y024310D01*
X040561Y024283D01*
X040567Y024255D01*
X040569Y024226D01*
X040567Y024197D01*
X040561Y024169D01*
X040551Y024142D01*
X040538Y024116D01*
X040521Y024092D01*
X040502Y024071D01*
X040479Y024053D01*
X040455Y024038D01*
X040428Y024026D01*
X040400Y024018D01*
X040371Y024014D01*
X040343Y024014D01*
X040314Y024018D01*
X040286Y024026D01*
X040259Y024038D01*
X040235Y024053D01*
X040212Y024071D01*
X040193Y024092D01*
X040176Y024116D01*
X040163Y024142D01*
X040153Y024169D01*
X040147Y024197D01*
X040145Y024226D01*
X040145Y023226D02*
X040147Y023255D01*
X040153Y023283D01*
X040163Y023310D01*
X040176Y023336D01*
X040193Y023360D01*
X040212Y023381D01*
X040235Y023399D01*
X040259Y023414D01*
X040286Y023426D01*
X040314Y023434D01*
X040343Y023438D01*
X040371Y023438D01*
X040400Y023434D01*
X040428Y023426D01*
X040455Y023414D01*
X040479Y023399D01*
X040502Y023381D01*
X040521Y023360D01*
X040538Y023336D01*
X040551Y023310D01*
X040561Y023283D01*
X040567Y023255D01*
X040569Y023226D01*
X040567Y023197D01*
X040561Y023169D01*
X040551Y023142D01*
X040538Y023116D01*
X040521Y023092D01*
X040502Y023071D01*
X040479Y023053D01*
X040455Y023038D01*
X040428Y023026D01*
X040400Y023018D01*
X040371Y023014D01*
X040343Y023014D01*
X040314Y023018D01*
X040286Y023026D01*
X040259Y023038D01*
X040235Y023053D01*
X040212Y023071D01*
X040193Y023092D01*
X040176Y023116D01*
X040163Y023142D01*
X040153Y023169D01*
X040147Y023197D01*
X040145Y023226D01*
X041145Y023226D02*
X041147Y023255D01*
X041153Y023283D01*
X041163Y023310D01*
X041176Y023336D01*
X041193Y023360D01*
X041212Y023381D01*
X041235Y023399D01*
X041259Y023414D01*
X041286Y023426D01*
X041314Y023434D01*
X041343Y023438D01*
X041371Y023438D01*
X041400Y023434D01*
X041428Y023426D01*
X041455Y023414D01*
X041479Y023399D01*
X041502Y023381D01*
X041521Y023360D01*
X041538Y023336D01*
X041551Y023310D01*
X041561Y023283D01*
X041567Y023255D01*
X041569Y023226D01*
X041567Y023197D01*
X041561Y023169D01*
X041551Y023142D01*
X041538Y023116D01*
X041521Y023092D01*
X041502Y023071D01*
X041479Y023053D01*
X041455Y023038D01*
X041428Y023026D01*
X041400Y023018D01*
X041371Y023014D01*
X041343Y023014D01*
X041314Y023018D01*
X041286Y023026D01*
X041259Y023038D01*
X041235Y023053D01*
X041212Y023071D01*
X041193Y023092D01*
X041176Y023116D01*
X041163Y023142D01*
X041153Y023169D01*
X041147Y023197D01*
X041145Y023226D01*
X041145Y024226D02*
X041147Y024255D01*
X041153Y024283D01*
X041163Y024310D01*
X041176Y024336D01*
X041193Y024360D01*
X041212Y024381D01*
X041235Y024399D01*
X041259Y024414D01*
X041286Y024426D01*
X041314Y024434D01*
X041343Y024438D01*
X041371Y024438D01*
X041400Y024434D01*
X041428Y024426D01*
X041455Y024414D01*
X041479Y024399D01*
X041502Y024381D01*
X041521Y024360D01*
X041538Y024336D01*
X041551Y024310D01*
X041561Y024283D01*
X041567Y024255D01*
X041569Y024226D01*
X041567Y024197D01*
X041561Y024169D01*
X041551Y024142D01*
X041538Y024116D01*
X041521Y024092D01*
X041502Y024071D01*
X041479Y024053D01*
X041455Y024038D01*
X041428Y024026D01*
X041400Y024018D01*
X041371Y024014D01*
X041343Y024014D01*
X041314Y024018D01*
X041286Y024026D01*
X041259Y024038D01*
X041235Y024053D01*
X041212Y024071D01*
X041193Y024092D01*
X041176Y024116D01*
X041163Y024142D01*
X041153Y024169D01*
X041147Y024197D01*
X041145Y024226D01*
X042145Y024226D02*
X042147Y024255D01*
X042153Y024283D01*
X042163Y024310D01*
X042176Y024336D01*
X042193Y024360D01*
X042212Y024381D01*
X042235Y024399D01*
X042259Y024414D01*
X042286Y024426D01*
X042314Y024434D01*
X042343Y024438D01*
X042371Y024438D01*
X042400Y024434D01*
X042428Y024426D01*
X042455Y024414D01*
X042479Y024399D01*
X042502Y024381D01*
X042521Y024360D01*
X042538Y024336D01*
X042551Y024310D01*
X042561Y024283D01*
X042567Y024255D01*
X042569Y024226D01*
X042567Y024197D01*
X042561Y024169D01*
X042551Y024142D01*
X042538Y024116D01*
X042521Y024092D01*
X042502Y024071D01*
X042479Y024053D01*
X042455Y024038D01*
X042428Y024026D01*
X042400Y024018D01*
X042371Y024014D01*
X042343Y024014D01*
X042314Y024018D01*
X042286Y024026D01*
X042259Y024038D01*
X042235Y024053D01*
X042212Y024071D01*
X042193Y024092D01*
X042176Y024116D01*
X042163Y024142D01*
X042153Y024169D01*
X042147Y024197D01*
X042145Y024226D01*
X042145Y023226D02*
X042147Y023255D01*
X042153Y023283D01*
X042163Y023310D01*
X042176Y023336D01*
X042193Y023360D01*
X042212Y023381D01*
X042235Y023399D01*
X042259Y023414D01*
X042286Y023426D01*
X042314Y023434D01*
X042343Y023438D01*
X042371Y023438D01*
X042400Y023434D01*
X042428Y023426D01*
X042455Y023414D01*
X042479Y023399D01*
X042502Y023381D01*
X042521Y023360D01*
X042538Y023336D01*
X042551Y023310D01*
X042561Y023283D01*
X042567Y023255D01*
X042569Y023226D01*
X042567Y023197D01*
X042561Y023169D01*
X042551Y023142D01*
X042538Y023116D01*
X042521Y023092D01*
X042502Y023071D01*
X042479Y023053D01*
X042455Y023038D01*
X042428Y023026D01*
X042400Y023018D01*
X042371Y023014D01*
X042343Y023014D01*
X042314Y023018D01*
X042286Y023026D01*
X042259Y023038D01*
X042235Y023053D01*
X042212Y023071D01*
X042193Y023092D01*
X042176Y023116D01*
X042163Y023142D01*
X042153Y023169D01*
X042147Y023197D01*
X042145Y023226D01*
X043145Y023226D02*
X043147Y023255D01*
X043153Y023283D01*
X043163Y023310D01*
X043176Y023336D01*
X043193Y023360D01*
X043212Y023381D01*
X043235Y023399D01*
X043259Y023414D01*
X043286Y023426D01*
X043314Y023434D01*
X043343Y023438D01*
X043371Y023438D01*
X043400Y023434D01*
X043428Y023426D01*
X043455Y023414D01*
X043479Y023399D01*
X043502Y023381D01*
X043521Y023360D01*
X043538Y023336D01*
X043551Y023310D01*
X043561Y023283D01*
X043567Y023255D01*
X043569Y023226D01*
X043567Y023197D01*
X043561Y023169D01*
X043551Y023142D01*
X043538Y023116D01*
X043521Y023092D01*
X043502Y023071D01*
X043479Y023053D01*
X043455Y023038D01*
X043428Y023026D01*
X043400Y023018D01*
X043371Y023014D01*
X043343Y023014D01*
X043314Y023018D01*
X043286Y023026D01*
X043259Y023038D01*
X043235Y023053D01*
X043212Y023071D01*
X043193Y023092D01*
X043176Y023116D01*
X043163Y023142D01*
X043153Y023169D01*
X043147Y023197D01*
X043145Y023226D01*
X043145Y024226D02*
X043147Y024255D01*
X043153Y024283D01*
X043163Y024310D01*
X043176Y024336D01*
X043193Y024360D01*
X043212Y024381D01*
X043235Y024399D01*
X043259Y024414D01*
X043286Y024426D01*
X043314Y024434D01*
X043343Y024438D01*
X043371Y024438D01*
X043400Y024434D01*
X043428Y024426D01*
X043455Y024414D01*
X043479Y024399D01*
X043502Y024381D01*
X043521Y024360D01*
X043538Y024336D01*
X043551Y024310D01*
X043561Y024283D01*
X043567Y024255D01*
X043569Y024226D01*
X043567Y024197D01*
X043561Y024169D01*
X043551Y024142D01*
X043538Y024116D01*
X043521Y024092D01*
X043502Y024071D01*
X043479Y024053D01*
X043455Y024038D01*
X043428Y024026D01*
X043400Y024018D01*
X043371Y024014D01*
X043343Y024014D01*
X043314Y024018D01*
X043286Y024026D01*
X043259Y024038D01*
X043235Y024053D01*
X043212Y024071D01*
X043193Y024092D01*
X043176Y024116D01*
X043163Y024142D01*
X043153Y024169D01*
X043147Y024197D01*
X043145Y024226D01*
X044145Y024226D02*
X044147Y024255D01*
X044153Y024283D01*
X044163Y024310D01*
X044176Y024336D01*
X044193Y024360D01*
X044212Y024381D01*
X044235Y024399D01*
X044259Y024414D01*
X044286Y024426D01*
X044314Y024434D01*
X044343Y024438D01*
X044371Y024438D01*
X044400Y024434D01*
X044428Y024426D01*
X044455Y024414D01*
X044479Y024399D01*
X044502Y024381D01*
X044521Y024360D01*
X044538Y024336D01*
X044551Y024310D01*
X044561Y024283D01*
X044567Y024255D01*
X044569Y024226D01*
X044567Y024197D01*
X044561Y024169D01*
X044551Y024142D01*
X044538Y024116D01*
X044521Y024092D01*
X044502Y024071D01*
X044479Y024053D01*
X044455Y024038D01*
X044428Y024026D01*
X044400Y024018D01*
X044371Y024014D01*
X044343Y024014D01*
X044314Y024018D01*
X044286Y024026D01*
X044259Y024038D01*
X044235Y024053D01*
X044212Y024071D01*
X044193Y024092D01*
X044176Y024116D01*
X044163Y024142D01*
X044153Y024169D01*
X044147Y024197D01*
X044145Y024226D01*
X044145Y023226D02*
X044147Y023255D01*
X044153Y023283D01*
X044163Y023310D01*
X044176Y023336D01*
X044193Y023360D01*
X044212Y023381D01*
X044235Y023399D01*
X044259Y023414D01*
X044286Y023426D01*
X044314Y023434D01*
X044343Y023438D01*
X044371Y023438D01*
X044400Y023434D01*
X044428Y023426D01*
X044455Y023414D01*
X044479Y023399D01*
X044502Y023381D01*
X044521Y023360D01*
X044538Y023336D01*
X044551Y023310D01*
X044561Y023283D01*
X044567Y023255D01*
X044569Y023226D01*
X044567Y023197D01*
X044561Y023169D01*
X044551Y023142D01*
X044538Y023116D01*
X044521Y023092D01*
X044502Y023071D01*
X044479Y023053D01*
X044455Y023038D01*
X044428Y023026D01*
X044400Y023018D01*
X044371Y023014D01*
X044343Y023014D01*
X044314Y023018D01*
X044286Y023026D01*
X044259Y023038D01*
X044235Y023053D01*
X044212Y023071D01*
X044193Y023092D01*
X044176Y023116D01*
X044163Y023142D01*
X044153Y023169D01*
X044147Y023197D01*
X044145Y023226D01*
X045145Y023226D02*
X045147Y023255D01*
X045153Y023283D01*
X045163Y023310D01*
X045176Y023336D01*
X045193Y023360D01*
X045212Y023381D01*
X045235Y023399D01*
X045259Y023414D01*
X045286Y023426D01*
X045314Y023434D01*
X045343Y023438D01*
X045371Y023438D01*
X045400Y023434D01*
X045428Y023426D01*
X045455Y023414D01*
X045479Y023399D01*
X045502Y023381D01*
X045521Y023360D01*
X045538Y023336D01*
X045551Y023310D01*
X045561Y023283D01*
X045567Y023255D01*
X045569Y023226D01*
X045567Y023197D01*
X045561Y023169D01*
X045551Y023142D01*
X045538Y023116D01*
X045521Y023092D01*
X045502Y023071D01*
X045479Y023053D01*
X045455Y023038D01*
X045428Y023026D01*
X045400Y023018D01*
X045371Y023014D01*
X045343Y023014D01*
X045314Y023018D01*
X045286Y023026D01*
X045259Y023038D01*
X045235Y023053D01*
X045212Y023071D01*
X045193Y023092D01*
X045176Y023116D01*
X045163Y023142D01*
X045153Y023169D01*
X045147Y023197D01*
X045145Y023226D01*
X045145Y024226D02*
X045147Y024255D01*
X045153Y024283D01*
X045163Y024310D01*
X045176Y024336D01*
X045193Y024360D01*
X045212Y024381D01*
X045235Y024399D01*
X045259Y024414D01*
X045286Y024426D01*
X045314Y024434D01*
X045343Y024438D01*
X045371Y024438D01*
X045400Y024434D01*
X045428Y024426D01*
X045455Y024414D01*
X045479Y024399D01*
X045502Y024381D01*
X045521Y024360D01*
X045538Y024336D01*
X045551Y024310D01*
X045561Y024283D01*
X045567Y024255D01*
X045569Y024226D01*
X045567Y024197D01*
X045561Y024169D01*
X045551Y024142D01*
X045538Y024116D01*
X045521Y024092D01*
X045502Y024071D01*
X045479Y024053D01*
X045455Y024038D01*
X045428Y024026D01*
X045400Y024018D01*
X045371Y024014D01*
X045343Y024014D01*
X045314Y024018D01*
X045286Y024026D01*
X045259Y024038D01*
X045235Y024053D01*
X045212Y024071D01*
X045193Y024092D01*
X045176Y024116D01*
X045163Y024142D01*
X045153Y024169D01*
X045147Y024197D01*
X045145Y024226D01*
X046145Y024226D02*
X046147Y024255D01*
X046153Y024283D01*
X046163Y024310D01*
X046176Y024336D01*
X046193Y024360D01*
X046212Y024381D01*
X046235Y024399D01*
X046259Y024414D01*
X046286Y024426D01*
X046314Y024434D01*
X046343Y024438D01*
X046371Y024438D01*
X046400Y024434D01*
X046428Y024426D01*
X046455Y024414D01*
X046479Y024399D01*
X046502Y024381D01*
X046521Y024360D01*
X046538Y024336D01*
X046551Y024310D01*
X046561Y024283D01*
X046567Y024255D01*
X046569Y024226D01*
X046567Y024197D01*
X046561Y024169D01*
X046551Y024142D01*
X046538Y024116D01*
X046521Y024092D01*
X046502Y024071D01*
X046479Y024053D01*
X046455Y024038D01*
X046428Y024026D01*
X046400Y024018D01*
X046371Y024014D01*
X046343Y024014D01*
X046314Y024018D01*
X046286Y024026D01*
X046259Y024038D01*
X046235Y024053D01*
X046212Y024071D01*
X046193Y024092D01*
X046176Y024116D01*
X046163Y024142D01*
X046153Y024169D01*
X046147Y024197D01*
X046145Y024226D01*
X046145Y023226D02*
X046147Y023255D01*
X046153Y023283D01*
X046163Y023310D01*
X046176Y023336D01*
X046193Y023360D01*
X046212Y023381D01*
X046235Y023399D01*
X046259Y023414D01*
X046286Y023426D01*
X046314Y023434D01*
X046343Y023438D01*
X046371Y023438D01*
X046400Y023434D01*
X046428Y023426D01*
X046455Y023414D01*
X046479Y023399D01*
X046502Y023381D01*
X046521Y023360D01*
X046538Y023336D01*
X046551Y023310D01*
X046561Y023283D01*
X046567Y023255D01*
X046569Y023226D01*
X046567Y023197D01*
X046561Y023169D01*
X046551Y023142D01*
X046538Y023116D01*
X046521Y023092D01*
X046502Y023071D01*
X046479Y023053D01*
X046455Y023038D01*
X046428Y023026D01*
X046400Y023018D01*
X046371Y023014D01*
X046343Y023014D01*
X046314Y023018D01*
X046286Y023026D01*
X046259Y023038D01*
X046235Y023053D01*
X046212Y023071D01*
X046193Y023092D01*
X046176Y023116D01*
X046163Y023142D01*
X046153Y023169D01*
X046147Y023197D01*
X046145Y023226D01*
X047145Y023226D02*
X047147Y023255D01*
X047153Y023283D01*
X047163Y023310D01*
X047176Y023336D01*
X047193Y023360D01*
X047212Y023381D01*
X047235Y023399D01*
X047259Y023414D01*
X047286Y023426D01*
X047314Y023434D01*
X047343Y023438D01*
X047371Y023438D01*
X047400Y023434D01*
X047428Y023426D01*
X047455Y023414D01*
X047479Y023399D01*
X047502Y023381D01*
X047521Y023360D01*
X047538Y023336D01*
X047551Y023310D01*
X047561Y023283D01*
X047567Y023255D01*
X047569Y023226D01*
X047567Y023197D01*
X047561Y023169D01*
X047551Y023142D01*
X047538Y023116D01*
X047521Y023092D01*
X047502Y023071D01*
X047479Y023053D01*
X047455Y023038D01*
X047428Y023026D01*
X047400Y023018D01*
X047371Y023014D01*
X047343Y023014D01*
X047314Y023018D01*
X047286Y023026D01*
X047259Y023038D01*
X047235Y023053D01*
X047212Y023071D01*
X047193Y023092D01*
X047176Y023116D01*
X047163Y023142D01*
X047153Y023169D01*
X047147Y023197D01*
X047145Y023226D01*
X047145Y024226D02*
X047147Y024255D01*
X047153Y024283D01*
X047163Y024310D01*
X047176Y024336D01*
X047193Y024360D01*
X047212Y024381D01*
X047235Y024399D01*
X047259Y024414D01*
X047286Y024426D01*
X047314Y024434D01*
X047343Y024438D01*
X047371Y024438D01*
X047400Y024434D01*
X047428Y024426D01*
X047455Y024414D01*
X047479Y024399D01*
X047502Y024381D01*
X047521Y024360D01*
X047538Y024336D01*
X047551Y024310D01*
X047561Y024283D01*
X047567Y024255D01*
X047569Y024226D01*
X047567Y024197D01*
X047561Y024169D01*
X047551Y024142D01*
X047538Y024116D01*
X047521Y024092D01*
X047502Y024071D01*
X047479Y024053D01*
X047455Y024038D01*
X047428Y024026D01*
X047400Y024018D01*
X047371Y024014D01*
X047343Y024014D01*
X047314Y024018D01*
X047286Y024026D01*
X047259Y024038D01*
X047235Y024053D01*
X047212Y024071D01*
X047193Y024092D01*
X047176Y024116D01*
X047163Y024142D01*
X047153Y024169D01*
X047147Y024197D01*
X047145Y024226D01*
X048145Y024226D02*
X048147Y024255D01*
X048153Y024283D01*
X048163Y024310D01*
X048176Y024336D01*
X048193Y024360D01*
X048212Y024381D01*
X048235Y024399D01*
X048259Y024414D01*
X048286Y024426D01*
X048314Y024434D01*
X048343Y024438D01*
X048371Y024438D01*
X048400Y024434D01*
X048428Y024426D01*
X048455Y024414D01*
X048479Y024399D01*
X048502Y024381D01*
X048521Y024360D01*
X048538Y024336D01*
X048551Y024310D01*
X048561Y024283D01*
X048567Y024255D01*
X048569Y024226D01*
X048567Y024197D01*
X048561Y024169D01*
X048551Y024142D01*
X048538Y024116D01*
X048521Y024092D01*
X048502Y024071D01*
X048479Y024053D01*
X048455Y024038D01*
X048428Y024026D01*
X048400Y024018D01*
X048371Y024014D01*
X048343Y024014D01*
X048314Y024018D01*
X048286Y024026D01*
X048259Y024038D01*
X048235Y024053D01*
X048212Y024071D01*
X048193Y024092D01*
X048176Y024116D01*
X048163Y024142D01*
X048153Y024169D01*
X048147Y024197D01*
X048145Y024226D01*
X048145Y023226D02*
X048147Y023255D01*
X048153Y023283D01*
X048163Y023310D01*
X048176Y023336D01*
X048193Y023360D01*
X048212Y023381D01*
X048235Y023399D01*
X048259Y023414D01*
X048286Y023426D01*
X048314Y023434D01*
X048343Y023438D01*
X048371Y023438D01*
X048400Y023434D01*
X048428Y023426D01*
X048455Y023414D01*
X048479Y023399D01*
X048502Y023381D01*
X048521Y023360D01*
X048538Y023336D01*
X048551Y023310D01*
X048561Y023283D01*
X048567Y023255D01*
X048569Y023226D01*
X048567Y023197D01*
X048561Y023169D01*
X048551Y023142D01*
X048538Y023116D01*
X048521Y023092D01*
X048502Y023071D01*
X048479Y023053D01*
X048455Y023038D01*
X048428Y023026D01*
X048400Y023018D01*
X048371Y023014D01*
X048343Y023014D01*
X048314Y023018D01*
X048286Y023026D01*
X048259Y023038D01*
X048235Y023053D01*
X048212Y023071D01*
X048193Y023092D01*
X048176Y023116D01*
X048163Y023142D01*
X048153Y023169D01*
X048147Y023197D01*
X048145Y023226D01*
X049145Y023226D02*
X049147Y023255D01*
X049153Y023283D01*
X049163Y023310D01*
X049176Y023336D01*
X049193Y023360D01*
X049212Y023381D01*
X049235Y023399D01*
X049259Y023414D01*
X049286Y023426D01*
X049314Y023434D01*
X049343Y023438D01*
X049371Y023438D01*
X049400Y023434D01*
X049428Y023426D01*
X049455Y023414D01*
X049479Y023399D01*
X049502Y023381D01*
X049521Y023360D01*
X049538Y023336D01*
X049551Y023310D01*
X049561Y023283D01*
X049567Y023255D01*
X049569Y023226D01*
X049567Y023197D01*
X049561Y023169D01*
X049551Y023142D01*
X049538Y023116D01*
X049521Y023092D01*
X049502Y023071D01*
X049479Y023053D01*
X049455Y023038D01*
X049428Y023026D01*
X049400Y023018D01*
X049371Y023014D01*
X049343Y023014D01*
X049314Y023018D01*
X049286Y023026D01*
X049259Y023038D01*
X049235Y023053D01*
X049212Y023071D01*
X049193Y023092D01*
X049176Y023116D01*
X049163Y023142D01*
X049153Y023169D01*
X049147Y023197D01*
X049145Y023226D01*
X049145Y024226D02*
X049147Y024255D01*
X049153Y024283D01*
X049163Y024310D01*
X049176Y024336D01*
X049193Y024360D01*
X049212Y024381D01*
X049235Y024399D01*
X049259Y024414D01*
X049286Y024426D01*
X049314Y024434D01*
X049343Y024438D01*
X049371Y024438D01*
X049400Y024434D01*
X049428Y024426D01*
X049455Y024414D01*
X049479Y024399D01*
X049502Y024381D01*
X049521Y024360D01*
X049538Y024336D01*
X049551Y024310D01*
X049561Y024283D01*
X049567Y024255D01*
X049569Y024226D01*
X049567Y024197D01*
X049561Y024169D01*
X049551Y024142D01*
X049538Y024116D01*
X049521Y024092D01*
X049502Y024071D01*
X049479Y024053D01*
X049455Y024038D01*
X049428Y024026D01*
X049400Y024018D01*
X049371Y024014D01*
X049343Y024014D01*
X049314Y024018D01*
X049286Y024026D01*
X049259Y024038D01*
X049235Y024053D01*
X049212Y024071D01*
X049193Y024092D01*
X049176Y024116D01*
X049163Y024142D01*
X049153Y024169D01*
X049147Y024197D01*
X049145Y024226D01*
X051393Y003583D02*
X051893Y002583D01*
X050893Y002583D01*
X051393Y003583D01*
X031403Y002583D02*
X030903Y003583D01*
X030403Y002583D01*
X031403Y002583D01*
X010893Y002583D02*
X010393Y003583D01*
X009893Y002583D01*
X010893Y002583D01*
X071393Y002583D02*
X071893Y003583D01*
X072393Y002583D01*
X071393Y002583D01*
X067893Y060483D02*
X067393Y061483D01*
X068393Y061483D01*
X067893Y060483D01*
X047893Y061483D02*
X047393Y060483D01*
X046893Y061483D01*
X047893Y061483D01*
X027400Y061483D02*
X026900Y060483D01*
X026400Y061483D01*
X027400Y061483D01*
X006893Y061483D02*
X006393Y060483D01*
X005893Y061483D01*
X006893Y061483D01*
D15*
X008393Y061433D02*
X008393Y061533D01*
X028900Y061433D02*
X028900Y061533D01*
X049393Y061433D02*
X049393Y061533D01*
X069893Y061433D02*
X069893Y061533D01*
X069893Y002633D02*
X069893Y002533D01*
X049393Y002633D02*
X049393Y002533D01*
X028903Y002633D02*
X028903Y002533D01*
X008393Y002633D02*
X008393Y002533D01*
D16*
X008393Y003683D03*
X028903Y003683D03*
X049393Y003683D03*
X069893Y003683D03*
X069893Y060383D03*
X049393Y060383D03*
X028900Y060383D03*
X008393Y060383D03*
D17*
X006393Y061383D03*
X026900Y061383D03*
X047393Y061383D03*
X067893Y061383D03*
X071893Y002683D03*
X051393Y002683D03*
X030903Y002683D03*
X010393Y002683D03*
D18*
X010393Y002883D03*
X030903Y002883D03*
X051393Y002883D03*
X071893Y002883D03*
X067893Y061183D03*
X047393Y061183D03*
X026900Y061183D03*
X006393Y061183D03*
D19*
X006393Y060983D03*
X026900Y060983D03*
X047393Y060983D03*
X067893Y060983D03*
X071893Y003083D03*
X051393Y003083D03*
X030903Y003083D03*
X010393Y003083D03*
D20*
X010393Y003283D03*
X030903Y003283D03*
X051393Y003283D03*
X071893Y003283D03*
X067893Y060783D03*
X047393Y060783D03*
X026900Y060783D03*
X006393Y060783D03*
D21*
X006393Y060633D03*
X026900Y060633D03*
X047393Y060633D03*
X067893Y060633D03*
X071893Y003433D03*
X051393Y003433D03*
X030903Y003433D03*
X010393Y003433D03*
D22*
X033389Y030537D03*
D23*
X054816Y027535D03*
M02*
