%
M48
M72
T01C0.0236
T02C0.0276
T03C0.0315
T04C0.0360
T05C0.0400
T06C0.1300
T07C0.1378
%
T01
X20893Y30033
X39393Y44533
X39393Y45533
T02
X39393Y56033
X38393Y56033
X38393Y9033
X39393Y9033
T03
X39357Y15061
X40357Y15061
X41357Y15061
X42357Y15061
X42357Y16061
X41357Y16061
X40357Y16061
X39357Y16061
X38357Y16061
X37357Y16061
X36357Y16061
X35357Y16061
X34357Y16061
X33357Y16061
X32357Y16061
X31357Y16061
X30357Y16061
X30357Y15061
X31357Y15061
X32357Y15061
X33357Y15061
X34357Y15061
X35357Y15061
X36357Y15061
X37357Y15061
X38357Y15061
X43357Y15061
X44357Y15061
X45357Y15061
X45357Y16061
X44357Y16061
X43357Y16061
X46357Y16061
X47357Y16061
X48357Y16061
X49357Y16061
X49357Y15061
X48357Y15061
X47357Y15061
X46357Y15061
X27893Y25998
X27893Y26998
X27893Y27998
X27893Y28998
X27893Y29998
X27893Y30998
X27893Y31998
X27893Y32998
X27893Y33998
X27893Y34998
X27893Y35998
X27893Y36998
X27893Y37998
X26893Y37998
X26893Y36998
X26893Y35998
X26893Y34998
X26893Y33998
X26893Y32998
X26893Y31998
X26893Y30998
X26893Y29998
X26893Y28998
X26893Y27998
X26893Y26998
X26893Y25998
X13975Y30557
X12975Y30557
X11975Y30557
X10975Y30557
X9975Y30557
X8975Y30557
X7975Y30557
X6975Y30557
X5975Y30557
X4975Y30557
X3975Y30557
X2975Y30557
X2990Y33549
X3990Y33549
X4990Y33549
X5990Y33549
X6990Y33549
X7990Y33549
X8990Y33549
X9990Y33549
X10990Y33549
X11990Y33549
X12990Y33549
X13990Y33549
X30361Y47943
X31361Y47943
X32361Y47943
X32361Y48943
X31361Y48943
X30361Y48943
X33361Y48943
X34361Y48943
X35361Y48943
X36361Y48943
X37361Y48943
X38361Y48943
X39361Y48943
X40361Y48943
X41361Y48943
X42361Y48943
X43361Y48943
X44361Y48943
X45361Y48943
X46361Y48943
X47361Y48943
X48361Y48943
X49361Y48943
X49361Y47943
X48361Y47943
X47361Y47943
X46361Y47943
X45361Y47943
X44361Y47943
X43361Y47943
X42361Y47943
X41361Y47943
X40361Y47943
X39361Y47943
X38361Y47943
X37361Y47943
X36361Y47943
X35361Y47943
X34361Y47943
X33361Y47943
X54837Y47939
X54837Y48939
T04
X51393Y56533
X51393Y57533
X50393Y57533
X50393Y56533
X49393Y56533
X49393Y57533
X48393Y57533
X48393Y56533
X47393Y56533
X47393Y57533
X30900Y57533
X30900Y56533
X29900Y56533
X29900Y57533
X28900Y57533
X28900Y56533
X27900Y56533
X27900Y57533
X26900Y57533
X26900Y56533
X10393Y56533
X10393Y57533
X9393Y57533
X9393Y56533
X8393Y56533
X8393Y57533
X7393Y57533
X7393Y56533
X6393Y56533
X6393Y57533
X6393Y7533
X7393Y7533
X8393Y7533
X8393Y6533
X7393Y6533
X6393Y6533
X9393Y6533
X10393Y6533
X10393Y7533
X9393Y7533
X26903Y7533
X26903Y6533
X27903Y6533
X28903Y6533
X29903Y6533
X29903Y7533
X28903Y7533
X27903Y7533
X30903Y7533
X30903Y6533
X47393Y6533
X48393Y6533
X48393Y7533
X47393Y7533
X49393Y7533
X50393Y7533
X51393Y7533
X51393Y6533
X50393Y6533
X49393Y6533
X67893Y6533
X68893Y6533
X69893Y6533
X70893Y6533
X70893Y7533
X69893Y7533
X68893Y7533
X67893Y7533
X71893Y7533
X71893Y6533
X71893Y56533
X71893Y57533
X70893Y57533
X70893Y56533
X69893Y56533
X69893Y57533
X68893Y57533
X68893Y56533
X67893Y56533
X67893Y57533
T05
X26983Y48360
X25983Y48360
X23893Y48360
X22893Y48360
X6803Y48513
X6803Y47513
X6803Y46513
X2983Y49553
X2983Y50553
X2803Y43013
X2803Y42013
X2803Y41013
X19913Y28943
X19913Y27943
X19913Y26943
X53893Y16033
X53893Y15033
T06
X4093Y6823
X12693Y6823
X24603Y6823
X33203Y6823
X45093Y6823
X53693Y6823
X65593Y6823
X74193Y6823
X74193Y57243
X65593Y57243
X53693Y57243
X45093Y57243
X33200Y57243
X24600Y57243
X12693Y57243
X4093Y57243
T07
X3893Y53533
X27601Y40368
X27601Y23636
X3393Y10533
X54767Y23636
X74893Y10533
X54767Y40368
X74893Y53533
M30
